<svg id="Capa_2" data-name="Capa 2" xmlns="http://www.w3.org/2000/svg" viewBox="0 0 693.72 481.46"><title>bike</title><path d="M613.71,371.25A133.53,133.53,0,0,0,558.77,383l-.75-3.45a134.64,134.64,0,0,1,52.55-11v-9.79a144.51,144.51,0,0,0-54.67,11.12l-21-96.38a6.35,6.35,0,0,0,3.72,1.23,6.77,6.77,0,0,0,1.18-.11l9.15-1.71,30.87,70.49a2.13,2.13,0,0,0,2.35,1.24L690.73,324a2.13,2.13,0,0,0,1.73-2.09V246l2.6-.49A6.39,6.39,0,0,0,692.7,233l-70.9,13.27c2.77-2.19,2.81-6.06,2.28-9.81,3.89,2.16,8.31,3.78,10.82-.59s.79-9.8-2.14-14c6.1-2.78,6.5-10.75.32-15.1,1.83-4,3.45-9.34-.17-12.28-5.71-4.64-10.46-1.37-15.93.88-.64-3.83-2.09-7.75-6.12-8.68-4.19-1-7.4,2.84-9.49,6.5-3.27-3.06-7.3-5.44-11.84-4.67-6.31,1.07-5.41,8.61-3.94,13.65-4.55-.93-9.36-1.36-10.28,4.57-.53,3.44,1.69,6.39,4.58,8.7-3,1.29-5.4,3.58-5.61,7.22-.24,4.3,3.56,5.89,7.56,6.66-2.47,2.44-3.77,5.55-1.73,9.24,2.81,5.08,8.43,3.65,13.25,1.74-.52,4.38.6,8.75,5.71,9.69,4.81.88,7.52-3.23,9.12-7.51,1.9,2.28,4.06,4.33,6.62,5.1L537.41,262a6.37,6.37,0,0,0-4.37,3.11l-2.28-10.44c37.45-13.2,44.68-54.79,5.92-54.08-.25,0-.49,0-.74,0h-51.7c-4.83,0-8.74,3.28-8.74,7.35s3.91,7.31,8.74,7.31h51.7a10.35,10.35,0,0,0,1.78-.15c24,.27,9.18,21-15.39,30.54h0a8.76,8.76,0,0,0-2.35.87l-.19.07a1.14,1.14,0,0,0-.55.4c-1.63,1.15-2.55,2.78-2.21,4.34l10.23,47.77a9.36,9.36,0,0,0-1.49,1.72c-59.15,73.67-57.47,94.8-169.94,118.74L320.26,255.76h35.28c6.09,0,11.13-3.74,11.13-8.35s-5-8.34-11.13-8.34h-65l-17.9-17.62c-1.73-1.7-5.77-.4-9,2.86s-4.45,7.28-2.67,9l18.67,18.44a2.32,2.32,0,0,0,.91.51,12.38,12.38,0,0,0,9,3.49h17.69L321,320.09,277.4,381.38a144.38,144.38,0,0,0-77.92-22.72c-79.18,0-143.77,63.7-145.2,142.55h9.8c1.42-73.42,61.63-132.7,135.4-132.7a134.68,134.68,0,0,1,72.21,20.89l-1.3,1.83a133.47,133.47,0,0,0-70.42-20c-74.12,0-134.33,60.27-134.33,134.34a134.32,134.32,0,0,0,260.76,45.3l30.08,6.54-6.06,23H338.35a7.1,7.1,0,0,0,0,14.2h28.83a7.1,7.1,0,1,0,0-14.2h-6.12l5.49-20.85c3.42.26,7.06.13,10.11.13l.59.13v-.13a38.09,38.09,0,0,0,28.17-63.13l133.1-144.73,5.09,23.79a145.4,145.4,0,0,0-77.25,125.64h9.77a135.56,135.56,0,0,1,69.62-115.67l.79,3.67a134.42,134.42,0,0,0-67.16,116.3c0,74.06,60.26,134.3,134.33,134.3S748,579.65,748,505.59,687.74,371.25,613.71,371.25Zm9.16-115.59c2.17-4.86,17.11-.71,20.58,1.83,6,4.42,7.86,12.59,12.55,18.43-7.24.67-14.79-.4-21.1-4C631.44,269.92,620.59,260.76,622.87,255.66Zm-10.25-31.75c-4.39,5.46-12,2.65-14.86-2.83-1.27-2.41-2.07-5.72-.42-8.18a7,7,0,0,1,2.81-2.44,8.62,8.62,0,0,1,3.94-1.66c3.67-.53,7.76.69,9.92,3.87C616.42,216.23,615.14,220.78,612.62,223.91ZM324.64,337,356.1,483.47H343.28A145.29,145.29,0,0,0,288,388.81Zm33.12,154.19,2.91,13.55a19.74,19.74,0,0,0-5.88,7.18h-14.4A34.19,34.19,0,0,1,357.76,491.17ZM313,483.47H225.52l61.11-53.09-3.34-3.84-57.11,49.61,44-62.17A116.11,116.11,0,0,1,313,483.47Zm-112.74-1.11a21.16,21.16,0,0,0-4.46.48V389.7c1.12,0,2.24-.05,3.37-.05a115.26,115.26,0,0,1,60.29,16.95l-54.33,76.36A20.94,20.94,0,0,0,200.27,482.36Zm-9.55,2.3a21.14,21.14,0,0,0-7.08,5.84L114.1,426.93a115.76,115.76,0,0,1,76.61-37Zm-80-53.92L181,495a20.88,20.88,0,0,0-1.78,8.43c0,.51,0,1,.08,1.5l-96-.36A115.39,115.39,0,0,1,110.73,430.74ZM180.26,510a20.93,20.93,0,0,0,2,4.32l-73.44,63.8a115.31,115.31,0,0,1-25.5-68.49Zm5.15,8.34a21.15,21.15,0,0,0,5.3,3.82v99A115.77,115.77,0,0,1,112.1,582ZM195.81,524a20,20,0,0,0,7.66.21l12.41,2.7,65.42,59.81,3.44-3.76-59-53.9,81.77,17.77a116.17,116.17,0,0,1-108.38,74.7c-1.13,0-2.25,0-3.37-.05ZM200,630.14c-68.66,0-124.53-55.91-124.53-124.55A124.48,124.48,0,0,1,264.7,399.23l-3,4.15a119.14,119.14,0,0,0-62.57-17.67c-66.07,0-119.84,53.8-119.84,119.88a119.87,119.87,0,0,0,232.1,42.05l5.32,1.15A124.77,124.77,0,0,1,200,630.14ZM317,483.47a120,120,0,0,0-44.57-72.7l3-4.21a124.66,124.66,0,0,1,47.11,76.9Zm15.43,0a134.47,134.47,0,0,0-51.37-84.9l1.23-1.74a135.52,135.52,0,0,1,51.1,86.63Zm25.41,68.75a34.16,34.16,0,0,1-18.6-26.12h14.42A19.78,19.78,0,0,0,361.87,537Zm49.38-30.54a34.16,34.16,0,0,1-39.57,33.69l4-15.29c.27,0,.54,0,.82,0a19.75,19.75,0,0,0,19.74-19.73,19.5,19.5,0,0,0-1.6-7.74l10.11-11A34,34,0,0,1,407.23,521.69Zm-36.64-34c.82-.06,1.64-.1,2.47-.1a34.57,34.57,0,0,1,4.9.35l-3.4,12.95c-.37,0-.74,0-1.12-.06Zm15.27,10.61,1.95-7.39a34,34,0,0,1,3.24,1.77ZM534.35,337.58,395.11,488.25a37.92,37.92,0,0,0-5.92-2.62l5.58-21.17h13.06a7.12,7.12,0,0,0,0-14.24H379a7.12,7.12,0,0,0,0,14.24h5.14l-5,19.15c-.61,0-1.22-.06-1.83-.07v-.06h-7.58l-11-50.52C468.32,405,474.79,390,530.78,315.64l4.52,21.09A7,7,0,0,0,534.35,337.58Zm61.3,153.53-68.9-63a116.85,116.85,0,0,1,24.47-20.64ZM497,505.59A115.38,115.38,0,0,1,523.38,432l69,63A19.61,19.61,0,0,0,588,506.82l-91-.34C497,506.18,497,505.88,497,505.59ZM588.57,512a19.67,19.67,0,0,0,3.5,7.36l-68.74,59.71a115.35,115.35,0,0,1-26.19-67.42Zm7.16,11a19.65,19.65,0,0,0,8.32,3.76v94.36A115.75,115.75,0,0,1,526.71,583Zm13.5,4a19.68,19.68,0,0,0,12.19-5.41l72.74,66.51a115.55,115.55,0,0,1-81.23,33.31c-1.24,0-2.48,0-3.71-.07Zm88.55,57.39-73.11-66.84a19.63,19.63,0,0,0,2.29-5.49l101.69.38A115.49,115.49,0,0,1,697.78,584.48Zm31.07-77.12L627.54,507a19.62,19.62,0,0,0-2.57-9.33l76.62-66.56-3.4-3.91L621.84,493.5a19.72,19.72,0,0,0-12.61-5.79v-98c1.23,0,2.47-.06,3.71-.06A116.09,116.09,0,0,1,728.87,505.59C728.87,506.18,728.85,506.77,728.84,507.36ZM604.05,479.84,562.66,402a3.55,3.55,0,0,0,0-.86A115.09,115.09,0,0,1,604.05,390Zm9.66,150.3c-68.68,0-124.54-55.91-124.54-124.55a124.55,124.55,0,0,1,59.54-106.2l.59,2.74a4.48,4.48,0,0,0,.69,1.51,119.71,119.71,0,0,0-29.6,178l-.07.06,3.4,3.91.06,0a119.65,119.65,0,0,0,80.29,39.53v1.32h5.18v-1c1.23,0,2.47.06,3.71.06a119.85,119.85,0,1,0-51.08-228.26l-1-4.36A124.53,124.53,0,0,1,738.25,505.59C738.25,574.23,682.36,630.14,613.71,630.14Z" transform="translate(-54.28 -158.43)"/><path d="M619,191.56c5.1,2.28,14.26-8.57,16.24-12,3.61-6.31,4.69-13.86,4-21.1-5.84,4.69-14,6.51-18.43,12.55C618.27,174.44,614.13,189.39,619,191.56Zm5-9.94q2-2.87,4-5.71c2.59-3.61,5.83-7.1,8.07-10.92-3.58,6.1-7.64,11.9-11.7,17.7a15.06,15.06,0,0,1-2.77,3.45C621.26,184.63,623.23,182.74,624,181.61Z" transform="translate(-54.28 -158.43)"/><path d="M631.75,261.12c5.8,4.06,11.6,8.12,17.7,11.7-3.82-2.25-7.32-5.48-10.92-8.07q-2.84-2-5.71-4c-1.13-.79-3-2.76-4.51-2.35A15.06,15.06,0,0,0,631.75,261.12Z" transform="translate(-54.28 -158.43)"/></svg>