<?xml version="1.0" encoding="utf-8"?>
<!-- Generator: Adobe Illustrator 21.1.0, SVG Export Plug-In . SVG Version: 6.00 Build 0)  -->
<svg version="1.1" id="Layer_1" xmlns="http://www.w3.org/2000/svg" xmlns:xlink="http://www.w3.org/1999/xlink" x="0px" y="0px"
	 viewBox="0 0 432 432" style="enable-background:new 0 0 432 432;" xml:space="preserve">
<path d="M378.7,108.7c0-4.6-0.2-9.2,0.1-13.7c0.5-5.9-1.7-9.2-7.5-10.5c-1-0.2-1.9-0.4-3.1-0.6c0.2-1,0.2-1.8,0.6-2.4
	c2.6-3.6,1.2-6.5-1-9.7c-4.3-6.2-8.2-12.7-12.1-19.1c-0.5-0.8-0.4-2.6,0.2-3.4c2.9-3.8,5.2-8,6.5-12.6c0.7-2.3,3.5-13.3,0.6-14.5
	c-0.7-0.3-1.5-0.1-2,0.4c-1.6,1.2-2.4,3.3-3.2,5.1c-1,2.2-2.2,4-3.8,5.9c-3.1,3.6-6.8,6.6-10.2,9.9c-1.6,1.5-3.5,2.9-5.4,4
	c-4.3,2.3-8.2,0.9-9.6-3.8c-1.2-4.1-1.6-8.4-2.2-12.6c-0.7-4.6-1.2-9.2-2-13.7c-1.3-7-6.8,4.1-7.4,5.8c-2.5,6.5-6,12.4-10.7,17.6
	c-2.6,2.8-3.7,5.7-2.7,9.5c0.4,1.6,0.5,3.4,0.4,5c-0.1,1.1-0.6,2.6-1.5,3c-16.6,9.6-25.4,25.3-33.4,41.8c-4,8.3-8.2,16.7-13.7,24
	c-12.1,15.9-28.1,26.4-47.9,30.7c-19.3,4.1-38.6,8-57.9,12.1c-5.6,1.2-11.2,2.7-16.8,4c-6.1,1.4-9.3-0.1-12-5.8
	c-2.8-5.8-7.9-26.5-17.3-23.5c-4.1,1.3-5.6,4-4.4,8c1.4,4.7,3.7,8.9,5.4,13.3c1.8,4.7,2,10.5,2.5,15.5c0.3,3.2-1.6,5.1-4.1,6.8
	c-9.4,6.8-17.9,14.4-22.9,25.2c-4.1,8.8-5.2,18.3-4.9,27.7c0.6,23.7-8,44.3-20.6,63.6c-6,9.3-12.6,18.2-21.7,24.7
	c-3.3,2.4-4.9,5.8-5,9.9c-0.5,19.3-1.1,38.5-1.4,57.8c-0.1,4.6,0.7,9.2,1.4,13.8c0.2,1.2,1.7,2.6,2.9,3c5.7,2.2,12.1,2,18.1,1.7
	c3.9-0.2,12.9,0.4,10.1-6.4c-1.2-2.9-3.3-5.8-5.8-7.5c-5.6-3.7-7.6-8.3-6.7-14.9c0.8-5.5,1.2-11.3,0.9-16.8
	c-0.7-12.7,4.4-22.3,14.1-29.8c7.3-5.7,15-10.9,21.8-17.1c11.5-10.5,20.7-22.8,28.3-36.4c1.1-1.9,1.7-4,2.5-6.1c0.2,0,0.5,0,0.7,0
	c0.3,0.9,0.7,1.7,0.7,2.6c0.8,12.6-0.4,24.9-6.7,36c-2.3,4-5.5,7.7-9.1,10.6c-4.4,3.6-6.9,7.5-6,13.3c0.7,5.2,1.3,10.5,1.6,15.8
	c0.2,4.4,0.3,8.8-0.1,13.1c-0.6,6.6-1.8,13.1-2.6,19.7c-0.9,7.8,2.1,14.6,5.7,21.2c0.5,0.9,2.2,1.4,3.3,1.5c6,0.1,11.9,0.1,17.9,0.1
	c3.9,0,5.9-2,5-5.8c-0.6-2.5-1.8-5.7-3.8-6.8c-8.6-4.8-10.9-12.4-9.9-21.2c0.9-8.9,2.4-17.8,4.2-26.7c1.3-6.3,5.2-11.3,9.8-15.9
	c7.3-7.5,14.7-14.9,21.3-23.1c7.9-9.8,11.2-22,15.3-33.7c2.2-6.5,3.9-13.2,6.3-19.6c2-5.4,4-5.9,9-2.9c6.6,3.9,13,8.1,19.7,11.8
	c10.8,5.9,22.4,10.1,34.4,13c3.6,0.9,3.1,5.1,3.4,8c0.6,6.4,1.3,12.7,1.9,19.1c0.6,5.6,2,11.2,2,16.9c0.7,12.9,1.3,25.8,2.3,38.6
	c0.3,4.4,1.2,8.9,2.9,13c3.4,8.7,3.7,17.8,4.2,26.9c0.3,4.8,1.1,12.4,6.8,13.6c3.5,0.7,8-0.1,11.6-0.3c4.1-0.2,12.7,1.2,14.1-3.4
	c1.4-4.7-0.1-9-3.7-11.5c-8-5.4-9.9-13-9.7-21.7c0.3-11.8-2.3-23.3-4.4-34.8c-2.7-15-2-30.1-0.6-45.2c0.6-6.1,0.7-12.1,0.8-18.2
	c0-2.2,0.7-3.3,2.9-3.8c3.7-0.8,7.3-2,11.4-3.1c1.1,8.6,3,16.4,3.1,24.3c0.2,17.4,3.1,34.6,4.9,51.8c0.6,5.3-0.1,10.8,0.3,16.2
	c0.3,4.2,0.4,8.8,2.2,12.4c2.9,5.8,3.7,11.6,3.4,18c-0.2,4.1,0.4,8.3,1.1,12.3c0.5,2.9,2.7,4.6,5.8,4.7c6.5,0.2,13.1,0.5,19.6,0.5
	c3.2,0,5-2.2,5.8-5.3c1-4.4-1.1-9.3-5.6-11.6c-5.7-2.8-8.4-7.3-8.6-13.4c-0.6-14.1-1.2-28.1-1.8-42.2c-0.2-6.6-1.9-13.7-0.1-19.8
	c4.1-14,3.8-28,4-42.2c0.2-11.9,2.8-23.2,8.9-33.6c2.6-4.4,4.2-9.4,6.2-14.2c5.3-13,4.7-26.4,3.2-40c-1.7-15.9-4.4-31.8-3.4-47.8
	c0.4-6.8,1.7-13.6,2.6-20.4c0.3-2.3,1.6-2.8,3.6-2c1.4,0.5,2.8,1,4,1.7c6.1,3.4,12.3,4.5,19.1,1.8c2.4-0.9,5.3-0.6,7.9-0.6
	c1.1,0,2.2,0.4,3.3,0.7c8.4,1.9,12.5-1,13.1-9.7C379.1,113.9,378.8,111.3,378.7,108.7z M312.6,190.7c-1.4,3.8-3.7,7-6.5,9.8
	c-3.9,4.1-8.5,7.4-13.4,10.3c-0.2,0.1-0.5,0.1-0.7,0c-3-1.8-5.8-3.7-8.5-5.9c-3.3-2.7-6.3-5.6-8.7-9.1c-2.1-3.1-3.5-6.3-3.7-10.1
	c-0.1-2.8,0.5-5.3,2.2-7.6c2.9-3.8,6.7-5.3,11.4-4.7c2.9,0.4,5.3,1.8,6.9,4.3c0.2,0.4,0.4,0.8,0.7,1.3c0.2-0.3,0.3-0.4,0.4-0.6
	c0.6-0.8,1-1.6,1.7-2.3c1.9-1.9,4.3-2.7,6.9-2.8c4.7-0.3,9.5,2.6,11.3,7C314.1,183.8,313.8,187.3,312.6,190.7z"/>
</svg>
