<?xml version="1.0" encoding="utf-8"?>
<!-- Generator: Adobe Illustrator 21.1.0, SVG Export Plug-In . SVG Version: 6.00 Build 0)  -->
<svg version="1.1" id="Layer_1" xmlns="http://www.w3.org/2000/svg" xmlns:xlink="http://www.w3.org/1999/xlink" x="0px" y="0px"
	 viewBox="0 0 1000 1000" style="enable-background:new 0 0 1000 1000;" xml:space="preserve">
<path d="M948.3,253.7c-0.7-7.1-3.5-13.4-7-19.5c-2.9-5-4.5-10.6-11-10.6c-7.7,0.1-15.2,3.1-22.8,4.2c-9.5,1.4-19,2.6-28.5,4.2
	c-57.1,9.5-108.5,33.1-156,65.4C645.7,350,582.4,416.7,528.7,492.9c-4.4,6.3-7.9,13.2-12.1,19.6c-2.4,3.6-5.6,6.7-8.5,10
	c-0.8-0.6-1.7-1.2-2.5-1.8c2-2.9,3.8-5.9,6-8.6c6.4-7.9,5.9-11.9-1.6-18.9c-1.9-1.8-3.3-5.7-2.9-8.3c0.8-5.4,2.8-10.7,4.7-15.8
	c14.9-38.4,34-74.6,57.7-108.3c5.9-8.4,12.3-16.7,19.9-23.7c8.1-7.4,13.3-10.2,23.9-12.8c4.9-1.2,10-3.6,11.8-8.3
	c1.3-3.3,0.7-7.3-1.6-9.9c-11.4,0.4-24.3,13.1-32.4,20.4c-9.5,8.6-17.9,18.4-25.5,28.7c-28.1,38-47,80.7-64.6,124.1
	c-1,2.6-2.2,5.6-4.3,7c-4.8,3.2-9.1,1.1-11.5-4.8c-16.6-40.3-36.1-79.2-64.2-112.8c-12.7-15.2-27.5-28.7-42.4-41.8
	c-4.5-4-21.1-15.8-27.4-11.5c-1.5,1-2.2,3-2.1,4.9c0.2,1.8,1.1,3.6,2.2,5c3.2,4.1,8,6.4,12.8,8.4c3.6,1.5,7.3,2.9,11.2,3.5
	c12.2,1.7,19.4,9.4,27.6,18.4c34.6,38.2,59.4,82.3,76.9,130.6c1.5,4.1,0.5,6.5-2.6,9.3c-7.1,6.4-6.9,9.9-0.5,16.9
	c2.8,3,5.2,6.4,7.7,9.7c-0.7,0.6-1.5,1.2-2.2,1.8c-1.6-2-3.2-3.9-4.7-5.9C412.9,433.3,336,362.3,243.9,308.2
	c-62.1-36.5-129.3-54-201.3-53.4c-6.3,0.1-9,4.2-11.4,8.4c-2.4,4.3-3.6,9.3-5.4,14c0,6.2,0,12.5,0,18.7c1.8,7.4,3.2,14.9,5.3,22.3
	c9.9,34.5,26.9,65,50.6,91.9c2.9,3.2,5.7,6.5,8.6,9.7c5.8,6.2,8.3,13.4,8.8,22.1c0.4,7.4,2.3,15.3,5.7,21.8c9,17,15,34.6,17.6,53.7
	c1.3,9.7,3.1,19.6,12.7,25.5c1,0.6,1.6,2.9,1.5,4.4c-0.6,27,10.2,48.3,32.6,64.4c-10.6,10.2-10.5,23.5-11.3,36.7
	c-0.8,13.3,0.2,27-6,39.6c-0.3,0.6-0.7,1.4-0.5,2c3.4,11.6,6.8,23.1,10.2,34.7c0.5,1.7,0.6,3.6,0.2,5.3c-4.4,17.6,0.7,31.9,15.2,43
	c1.5,1.1,2.5,3.3,3,5.2c4.2,16.8,13.4,29.2,29.7,36.4c5.5,2.4,9.7,7.6,14.9,10.9c4.9,3.1,10.3,5.4,15.5,8c5.1,2.5,10.5,4.5,15.1,7.7
	c4.7,3.3,9.2,5.5,15.2,4.8c3.4-0.4,7.3,0.3,10.5,1.7c8.7,3.9,17,8.5,25.5,12.8c3.8,0,7.7,0,11.5,0c5.7-1,11.4-2.7,17.1-2.7
	c5.3,0,10.7,1.7,16,2.7c2.9,0,5.8,0,8.6,0c12-5,22.4-13.1,35.5-16.6c6.6-1.8,13-9.3,16.6-15.9c15.3-27.9,30.8-55.9,43.9-84.9
	c10.4-23.1,17.6-47.6,26.2-71.5c0.8-2.2,1.5-4.4,2.9-6.7c4.3,30.8-1.2,63.4,16.8,93.1c8.8-11.5,11.2-23.3,11.7-35.6
	c0.6-16.3,0.6-32.6,0.9-48.9c0.1-3,0.4-6,1.9-9c3.1,8.5,6,17.1,9.4,25.5c14.9,37,32.2,72.8,52.8,107c5.4,9,11.8,17.5,18.5,25.6
	c7.4,9.1,16.6,15.6,29.1,16.7c4.7,0.4,9.3,3.5,13.6,6.1c6,3.6,12.1,4.8,19.2,4c14-1.6,28.2-1.9,42.2-3.6c5.5-0.7,11-2.9,16-5.6
	c9.5-5.1,18.6-11.1,29.9-11.4c2-0.1,4.4-1,5.9-2.3c7.1-5.9,15.1-9.6,24.1-12.2c4.3-1.2,7.7-6.1,10.9-9.9c4-4.6,8.4-7.5,14.2-10.1
	c12.5-5.6,20.8-16.1,22.6-30.3c0.8-6.5,2.8-11,7.8-15.8c11.5-11.1,13.1-25.4,9.5-40.7c-0.6-2.5,0.7-5.4,1.1-8.1
	c0-0.2,0.4-0.4,0.4-0.6c1.2-13.8,6-28.7,2.5-41.2c-4.2-15.1-8.1-29.8-9.1-45.4c-0.6-9-2.3-17.6-10.9-23.8
	c23.8-15.4,28.5-38.5,28.4-63.7c0-2.6,0.7-6.2,2.5-7.7c6.7-5.5,9.5-12.8,9.8-20.9c0.8-22.9,6-44.4,16.1-65.1
	c3.1-6.5,2.3-14.9,3.5-22.3c0.5-3.2,1.2-6.5,2.8-9.2c10.9-18.1,22.5-35.7,33-54c8.4-14.5,15.3-29.9,19.8-46.1
	C946.1,284.2,949.8,269.6,948.3,253.7z M301.5,360.3c-23.2-1.1-41-12.7-56.7-28.8C267.6,333.3,286.5,343,301.5,360.3z M322.4,383.1
	c11.9,7.1,23.2,15.5,33.4,24.8c29.7,27.3,58.8,55.1,87.7,83.1c8.7,8.5,16.4,18.1,23.9,27.7c5.8,7.5,8.9,16.3,9.2,26.6
	c-13.1,1.4-24.2-2.4-34.7-7.8c-12.2-6.2-23.6-13.8-35.9-19.7c-21.2-10-42.7-19.4-64.3-28.6c-7.5-3.2-14.5-6.7-17.6-14.8
	c-6.2-16.3-18.1-27.7-33-35.7c-15.1-8.1-27.4-17.2-32.1-35.4c-2.4-9.3-10.2-17.1-15.7-25.6c-1.2-1.9-2.8-3.7-4.9-6.5
	C268.5,367.1,296.7,367.8,322.4,383.1z M216.2,440.2c-9.8,2-19.6-0.8-28.1-6.6c-11.1-7.6-15.8-18.3-14-31.7
	c1.8-13.3,9.5-21.6,22.2-25.4c11.8-3.5,23.7-3.4,35.4,0.5c10.9,3.6,18.8,10.5,22.3,21.6c2.9,9.1,5.6,18.2,9,29
	C247,432.1,231.8,437,216.2,440.2z M313.2,463.9c8,9.1,6.4,16.6-4.4,21.8c-6.6,3.2-13.8,5.6-21,7.3c-19.9,4.5-39.9,8.4-59.8,12.5
	c-1.9,0.4-3.8,0.7-5.7,0.8c-26.2,2.4-40.8-13.3-36.6-39.6c1.9-12.1,10.7-17.7,21.3-20.9c6.4-1.9,13.1-3.2,19.7-4.2
	c10.9-1.6,21.9-2.7,32.8-4C282.5,436.1,299,447.8,313.2,463.9z M186.7,502.2c0.5,5.1,3.8,10.3-1.6,14.5c-5.1,4-12.9,3.2-19.8-1.9
	C169.4,505.3,176.8,502.3,186.7,502.2z M183.9,623.8c3.4-1.6,8-0.5,12.1-0.7c-0.2,3.5,0.7,7.5-0.7,10.5
	c-3.9,8.6-12.5,10.9-20.4,14.5C173,637.7,176.6,627.1,183.9,623.8z M184.2,666.3c0.4-3.5,4-6.7,6.2-10c2.1,3.4,4.3,6.9,7.1,11.3
	c-3.1,2.8-5.3,4.8-7.5,6.8C187.9,671.7,183.9,668.7,184.2,666.3z M203,708.7c0.5,0.9-0.9,2.7-1.4,4.1c-3.2-1.6-6.3-3.1-9.5-4.7
	c0.4-0.9,0.9-1.9,1.3-2.8C197.6,703,200.8,704.6,203,708.7z M202.3,526.3c4.9-11.9,15.4-16.6,27.3-18.5c7.1-1.2,14.3-1.8,21.5-2.1
	c1.1,0,2.1-0.1,3.2-0.1c14.1,10.6,32.1,18.5,47.1,27.3c19.1,11.3,38.8,22.7,60.1,28.1c-7.3-0.9-14.5-1.9-21.8-2.7
	c-25.6-2.9-50.2,1.2-74,10.5c-7.1,2.8-14.4,5.4-21.8,7.3c-13.9,3.5-25.8-0.4-34.8-11.5C199.9,553.3,196.6,540.3,202.3,526.3z
	 M444.9,579.1c0.4,0.7,0.8,1.5,1.2,2.2c-2.4,1.8-4.5,4.4-7.1,5.2c-10.8,3.2-21.5,6.9-32.6,8.4c-23.9,3.4-47.8,2.3-71.4-3.8
	c-0.9-0.2-1.7-0.7-2.6-1.1C370,585.8,408,589,444.9,579.1z M219.1,625.3c2.1-9.2,8.1-15.5,15.9-20.3c11.7-7.2,24.7-10.2,38.1-11.6
	c21.8-2.3,43.4-1,64.7,3.2c-4.1,7.8-8,14.7-11.4,21.7c-3.8,7.6-8.8,13.7-17.4,16c-26.2,6.9-52.8,9.4-79.7,6.2
	C218.8,639.3,216.8,635.7,219.1,625.3z M327.1,621.3c9.9-19.2,21.7-27,42.6-22.2c25.8,6,48.8,1.1,71.5-10.4c5.4-2.7,11.5-4.1,17.2-6
	c1,0.9,2,1.7,3,2.6c-3.5,8.2-5.9,17.1-10.9,24.4c-5.7,8.4-12.9,16.2-20.8,22.6c-25.7,20.7-53.9,37.6-84,51
	c-16.1,7.1-32.9,11.5-51.9,10.7c13.8-16.5,18.1-36.4,25.6-54.9C321.8,633,324.2,627,327.1,621.3z M443.5,565.5
	c-21.6,3.2-43.1,0.5-64.5-2.2c-3.4-0.4-6.8-0.9-10.2-1.3c-20-8.9-40-18-58.7-29.5c-13.9-8.6-30.5-22.4-47.5-27.6
	c15.3-1.5,30.2-5,44.9-9.5c17-5.2,33.6-3.9,50,2.5c21.5,8.4,42.2,18.2,61.2,31.6c16.1,11.4,32.9,21.5,55.4,23.4
	C464,561.5,453.9,563.9,443.5,565.5z M241.3,319.7c-11.3,2.1-21.8-3.9-26.3-15C225.6,303,238.4,310.3,241.3,319.7z M230.7,354.8
	c2.4,3.6,2.2,6.2-2.6,7.2c-13.8,3-26.2-0.4-38.2-7.4C198.8,343.1,223.2,343.5,230.7,354.8z M204.5,300.8c-8.1-0.9-14.4-2-17.7-11
	C194.5,291.3,200.8,292.2,204.5,300.8z M178.9,302.5c2.2-2.2,9-1.6,12.8,0.1c10,4.5,14.9,15,12.3,26.1c-7-2.1-14-3.8-20.7-6.5
	c-2.5-1-5.4-4.2-5.8-6.7C176.8,311.2,176.4,304.9,178.9,302.5z M201.2,337.3c-10.9,7.5-25.9,6.6-32.8-1.6c-1.5-1.8-1.9-4.6-2.7-7
	c2.1-0.8,4.3-2.2,6.4-2.2C182.7,326.9,193.7,326.6,201.2,337.3z M160.2,290.9c2.7-0.2,5.6,2.8,8.4,4.4c-2.6,2.4-5.1,4.9-8.7,8.3
	c-3.2-3.1-5.3-5.2-7.4-7.4C155,294.3,157.5,291.1,160.2,290.9z M117.9,369.7c-6.3-7.6-4.2-16.3,5-19.1c5.7-1.7,14.8-4.5,23.2-4.8
	c8.2-0.3,15.7,1.8,18.6,9.6c2.1,5.9-0.1,10.9-3.9,15.2C150.9,381.7,127.3,381.1,117.9,369.7z M121.6,379.7c-3.9,2.8-5.7,5.1-7.7,5.3
	c-6.7,0.8-6.5-5.2-7.1-9.2c-0.2-1.2,4.4-4.7,5.4-4.2C115.1,373,117.4,375.9,121.6,379.7z M141.1,288.3c6.3,1.9,7.2,5.8,3.3,10.8
	c-9.4,11.9-37.5,15.9-49.6,6.6c-2.6-2-5.3-5.9-5-8.7c0.3-2.6,4.1-6,7-6.8c8.4-2.4,17-4.1,25.6-4.3
	C128.7,285.8,135,286.5,141.1,288.3z M85.4,265.1c2.4-4.1,6.6-4.6,11-4.8c8.2-0.3,13.3,3.4,16.8,13.1c-3.4-0.5-7.1,0.4-10.6,0.3
	c-1.6-0.1-3.2-0.1-4.8-0.3C92.7,273,81,272.5,85.4,265.1z M74.6,274.3c5.9,0,10.5,3.7,10.5,8.5c0,5.3-5.2,9.4-13.1,9.4
	c-4.3-0.1-8.9-1.4-9.7-7.4C61.6,279.6,68.1,274.4,74.6,274.3z M72.4,307.5c7.5,0.1,17.8,6.5,15.8,9.3c-2.9,4-8.8,5.9-13.5,8.6
	c-0.4,0.2-0.9,0.2-1.4,0.3c-7.8,1-13.9-2.7-14.2-8.5C58.7,311.6,64.4,307.4,72.4,307.5z M51,302.3c-4.6-0.7-9.2-1.4-13.8-2.2
	c-0.2-0.9-0.5-1.9-0.7-2.8c3.3-1.5,6.7-4.4,9.9-4.2c2.2,0.1,4.1,4.5,6.1,6.9C52,300.9,51.5,301.6,51,302.3z M71.8,340.3
	c-0.9,2.6-4.4,4.4-5.7,5.5c-7.4-0.6-12.3-2.4-12.2-8.2c0-2.3,3.8-5.9,6.5-6.5C65.6,330,73.1,336.3,71.8,340.3z M91.3,399.2
	c-2.6-2.7-5.8-5-7.6-8.1c-0.7-1.3,1.7-4.3,2.7-6.5c1-0.1,2-0.3,3-0.4c2.1,3,4.9,5.8,6,9.1C95.9,394.6,92.8,397.2,91.3,399.2z
	 M84.6,368.3c-7.2,0-12.5-3.8-12.6-9c-0.1-5.5,5.7-10.3,12.5-10.3c6.7,0,12.7,4.9,12.7,10.2C97.1,364.4,91.7,368.3,84.6,368.3z
	 M97.9,334.6c-1.1-0.2-2.8-3.7-2.4-5.3c1.5-6.8,6.6-11.2,12.9-12c11.8-1.5,23.7-1.8,35.6-2.1c4.4-0.1,8.9,0.9,13.3,1.5
	c0.5,0.9,0.9,1.9,1.4,2.8c-3,3.1-5.6,6.9-9.2,9.1C133.3,338.4,115.6,337.4,97.9,334.6z M105.9,408.3c2.5-2.4,4.8-5.5,7.8-6.9
	c1.4-0.7,4.3,1.9,6.5,3c0.1,1,0.1,2,0.2,3c-3,1.7-5.9,4-9.1,4.8C109.8,412.5,107.7,409.7,105.9,408.3z M119.1,453.4
	c-2.3-3.6-4.3-5.5-4-6.6c0.7-2.4,2.7-4.3,4.2-6.5c1.5,1.2,4.3,2.6,4.1,3.4C123,446.3,121.3,448.8,119.1,453.4z M141.9,392.2
	c9-0.2,16.2,7.2,16.2,16.5c0.1,8.9-6.8,15.5-16.2,15.6c-9.4,0.1-16.3-6.4-16.3-15.3C125.6,400,133,392.4,141.9,392.2z M128.2,475.3
	c6.7,3,11.6,6.6,11.7,14.5C131.7,490.2,128,485.7,128.2,475.3z M142.6,440.4c2.5-0.6,5.3-1.1,7.8-0.5c3,0.7,5.8,2.7,8.7,4.1
	c-2.4,2.7-4.7,5.5-7.2,8c-0.7,0.7-2.2,0.6-4.5,1.2c-2-1-5.1-2-7.2-3.9C136.2,445.7,137.5,441.7,142.6,440.4z M151,520.6
	c-0.8,0.6-1.5,1.2-2.3,1.8c-2.5-3.1-5.1-6.3-7.6-9.4c0.8-0.6,1.5-1.3,2.3-1.9C149.2,511.8,152,514.7,151,520.6z M148,479.3
	c0.2-5.6,5.1-9.5,12.2-9.5c8.2-0.1,15.4,5.4,15.6,11.8c0.1,5.4-4.8,9.2-12.2,9.2C154.8,490.9,147.8,485.7,148,479.3z M168.7,565.2
	c-6-0.1-11.1-5.1-11.3-10.9c-0.1-5.3,4-9.1,9.8-9.1c6.3,0,12.9,5.2,12.8,10.2C180.1,560.5,174.5,565.3,168.7,565.2z M166.4,665.4
	c-0.2-1,0.6-2.2,1.2-4.3c1.6,1.1,2.9,1.5,3,2.1c0.7,3.8,1.1,7.6,1.3,11.4c0,0.4-2.2,0.9-3.4,1.4C167.8,672.5,167,669,166.4,665.4z
	 M169.7,714.5c2.6-2.7,3.9-4.2,5.3-5.7c2.3,2.8,4.8,5.4,6.7,8.4c0.2,0.3-3.8,4.2-4.4,3.9C174.8,719.7,172.8,717.3,169.7,714.5z
	 M174.2,745.1c2.3-3.9,4.3-7.4,6.3-10.9c1.5,1.8,4.1,3.6,4.1,5.5C184.8,744.5,183.1,748.4,174.2,745.1z M184.9,690.4
	c0.4-3.3,3.1-6.2,4.9-9.3c0.9,0.1,1.8,0.3,2.7,0.4c0.4,4.4,0.8,8.9,1.2,13.3c-1,0.4-1.9,0.9-2.9,1.3
	C188.8,694.2,184.7,692,184.9,690.4z M195.2,786.6c-6.2-4.7-7.4-13.5-3-21.2C199.2,769.6,200.5,779.3,195.2,786.6z M201.1,740.1
	c-3-3.1-3.1-6.3,2.9-9.3c0.7,3.4,1.4,6.9,2.1,10.3C204.3,740.8,202,741.1,201.1,740.1z M209.6,769.6c-1.4-2.9-1.9-6.3-2.8-9.4
	c0.8-0.4,1.6-0.8,2.4-1.3c2.1,2.5,4.4,4.9,6,7.6c0.6,1.1-0.5,3.2-0.9,4.8C212.8,770.8,210.2,770.7,209.6,769.6z M225,807.6
	c-4.8-1.7-8.3-2.4-10.9-4.2c-1.8-1.2-3.8-5.2-3.1-6.1c1.6-2.1,5.5-5,6.9-4.3c4.1,1.9,7.5,5.2,10.7,8.5
	C229.1,801.9,226.4,805.3,225,807.6z M231.1,754.8c-7.8-7.5-9.8-19.9-3-28.1c4.6-5.6,11.2-9.5,17-14c1.6-1.3,3.6-2.2,5.4-3.2
	c-7.6,1.1-15.1,3-22.7,3.1c-22.4,0.1-32.3-17.3-21-36.8c8.2-14.1,20-23.9,36.5-26.8c15.3-2.7,30.8-4.8,46.1-7.4
	c6.9-1.2,13.8-2.9,21.1-4.4c1.5,10.9-1.2,19.8-5.7,28.1c-9,16.6-22.7,28.3-39.1,37.1c-2.7,1.5-5.4,3-8.1,4.5
	c21.3-3.2,42.6-6.4,63.9-9.5c1.6-0.2,3.3,0,5.6,1.1c-2,1.3-3.9,2.7-6,3.8c-20.3,10.9-38.5,24.2-53.2,42.3c-3.1,3.9-7,7.3-10.9,10.4
	C247.6,762.1,238.6,762,231.1,754.8z M252,826.9c-4.4-3.6-8-6.5-11.6-9.5c2.5-1.6,4.9-4.3,7.6-4.6c5.7-0.5,8.6,3.6,9.2,8.8
	C257.4,822.9,254.6,824.4,252,826.9z M253.1,798.4c9.5-2.3,13.9-0.5,16.2,7C260,808.7,254.4,806.2,253.1,798.4z M290.2,837
	c-0.4,0.9-3.1,1.6-4.2,1.1c-4.2-2.1-8.1-4.8-12.1-7.2c0.5-0.9,1-1.8,1.5-2.7c5.4-1.3,10.2,0,13.9,4.4
	C290.2,833.6,290.7,835.9,290.2,837z M293,821.2c-3.7-0.7-6.8-4-10.2-6.1c3-2.8,6.1-5.6,10.4-9.6c3.8,3.8,7.9,6,8.3,8.7
	C302.2,819.4,297.5,822.1,293,821.2z M277.6,788.8c-11.7-6.2-16.4-16.1-11.1-28.1c3.7-8.4,9-16.6,15.3-23.1
	c23.9-24.7,53.9-40.3,84.7-54.3c1-0.5,2.2-0.5,6-1.4c-2.5,10.5-3.5,19.7-7,27.8c-9.1,21.1-18.6,42-29.4,62.3
	C324.5,793.9,299.6,800.4,277.6,788.8z M321.7,844.6c-3.8-1.6-7.1-4.2-10.6-6.5c2-1.3,4-2.5,7.4-4.7c2.9,2.6,5.5,4.8,8,7.1
	C324.8,842,322.5,845,321.7,844.6z M312,819.3c5.3-5.9,10.8-5.4,16.4-3.3c4.8,1.9,8.6,4.9,9,11.1C327.3,829.2,319.5,825.9,312,819.3
	z M336,787.4c1.8-8.3,4.3-16.8,8.1-24.4c13-25.7,25.2-51.7,31.7-80c0.6-2.8,3.5-5.6,6-7.5c16.5-12.4,33.9-23.7,49.5-37
	c12.9-10.9,23.8-24.2,35.4-36.5c1.1-1.2,1.7-2.9,2.5-4.3c0.9,0.4,1.8,0.8,2.7,1.3c0,3.8,0.4,7.7-0.1,11.5
	c-2.4,20-8.8,38.9-19.1,56.1c-24,40.4-48.4,80.5-73.1,120.5c-4.1,6.6-9.9,12.4-15.8,17.4c-6.4,5.4-15.1,7.4-22.2,3.2
	C334.7,803.6,334.4,794.7,336,787.4z M347.5,850.5c-2,0.1-4.2-2.9-6.3-4.6c3.3-2,6.5-3.9,11-6.6C353.5,846.6,352,850.2,347.5,850.5z
	 M358.8,834.2c-4.2-0.5-10.9-0.1-10.1-5.8c0.5-3.1,7-6.1,11.3-7.4c1.6-0.5,4.7,4,7.1,6.2C366.1,833.7,362.5,834.6,358.8,834.2z
	 M366,845.8c-1.5-7.1,3.9-9.4,16.6-7.8c0.3,0.9,0.6,1.8,0.8,2.7C377.6,842.4,371.8,844.1,366,845.8z M442.1,718.6
	c-2.9,27.6-9,54.5-21.9,79.3c-3.9,7.6-9.6,14.3-14.9,21c-1.8,2.3-4.8,4.1-7.6,5.3c-11.9,5.5-20,0.4-17.3-12.3
	c2.6-12.5,6.5-25.3,12.5-36.4c14.6-27,30.7-53.2,46.2-79.7c0.7-1.1,1.7-2,2.6-2.9c0.6,0.1,1.2,0.3,1.8,0.4
	C443.2,701.7,443,710.2,442.1,718.6z M474.6,681c-8.9,20.1-18.3,39.9-28.1,61.2c-0.7-2.5-1.3-3.8-1.5-5.2
	c-2.6-19.7-0.3-38.8,7.1-57.1c9.5-23.5,19.8-46.6,29.8-69.8c0.6,0,1.2,0,1.8,0c0.6,2.9,1.4,5.8,1.8,8.7
	C487.9,640.5,483.4,661.2,474.6,681z M899.8,247.1c6.2,0.2,12.4,5.3,12,10.1c-0.6,6.6-5.8,7.3-10.4,7.8c-8.1,0-13.5-3.7-13.3-8.7
	C888.3,251.3,893.8,246.9,899.8,247.1z M893.7,283.2c4.7-1.8,10.2-2.8,15.2-2.2c3,0.3,7.5,4,7.8,6.6c0.3,2.8-3.1,6.5-5.8,8.9
	c-1.9,1.7-5.3,1.7-7.5,2.3c-3.3-0.6-6.1-0.6-8.4-1.7c-2.8-1.5-7.1-4-7-5.9C888.1,288.3,891,284.3,893.7,283.2z M868.6,236.5
	c7.1-3.3,13-2.5,18.7,2.7c-5.3,6.9-13.4,9.2-25.8,7.4C860.6,240.9,864.4,238.5,868.6,236.5z M813.8,269.7c3.1,0.5,5.8,3.4,8.7,5.3
	c-2.6,2.1-5.3,4.2-9.4,7.6c-2.9-3.9-4.8-6.3-6.7-8.8C809,272.3,811.7,269.3,813.8,269.7z M811.7,307.9c-3.2,13.8-22,19.7-35.7,10.8
	C782.6,308.1,799.5,303.2,811.7,307.9z M807.7,675.1c0-4.6,0-9.1,0-13.7c0.7-0.3,1.5-0.7,2.2-1c1.7,2.7,4.8,5.3,4.9,8
	c0.1,2.7-2.8,5.4-4.4,8.1C809.5,676.1,808.6,675.6,807.7,675.1z M808.2,687c-1.6,2.3-3.8,4.3-5.7,6.3c-1-1.4-3.3-3.4-2.9-4
	c1.2-2.3,3.2-4.1,5.8-7.2C806.9,684.7,808.5,686.5,808.2,687z M808.9,653.6c-2.7-1-4.3-4.6-7-7.8c2.8-4.1,4.8-6.9,6.8-9.8
	c2.1,4,5,7.8,6.2,12C815.8,651.8,812.8,655.1,808.9,653.6z M801.9,613.9c-2-2.4-5.8-5.4-1.8-8.4c2.8-2.1,7.4-3.9,10.6-3.1
	c8.9,2.2,14.3,13.1,12.6,24.3C814.2,625.1,807.4,620.5,801.9,613.9z M724.8,422.4c17.6,1.6,35.4,2.3,52.8,4.9
	c13.9,2,20.3,9.2,21.9,21.2c1.9,14.3-0.2,28-13.3,36.2c-5.6,3.5-13.6,3.4-20.2,4.8c-25.6-4-50.5-7.9-75.3-11.9c-3-0.5-6-1.6-8.9-2.7
	c-14.6-5.5-17.3-13.3-7.9-25.6C686.7,432.6,702,420.3,724.8,422.4z M720.7,411.9c2.8-11.4,4.8-21.5,7.8-31.3c2.7-9,9-15.2,17.7-18.7
	c11.5-4.7,23.3-7.3,35.8-5.7c13.4,1.7,22.1,10,24.6,23.5c5.3,28.1-12.1,46.7-41.4,42.9C750.5,420.5,736.3,415.7,720.7,411.9z
	 M661.7,578.5c0.1,0.8,0.1,1.6,0.2,2.4c-38.1,8.6-76.2,14.7-114.1-2.4C585.8,578.5,623.8,578.5,661.7,578.5z M741.6,581.4
	c9.5,2.1,18.3,7.7,27.3,11.8c0.8,0.4,1.5,1.2,2.1,1.9c5.6,6.3,10.8,13.5,7.8,21.9c-2.7,7.7-11.6,8.4-18.5,8.5
	c-17,0.1-33.9-1-50.9-1.7c-0.2,0-0.5-0.1-0.7-0.1c-22,1-37.9-7.7-46.2-28.8c-0.7-1.7-2.1-3.2-3.2-4.7c-0.9-1.2-1.8-2.4-3.1-4.1
	C685,579.7,713.1,575.2,741.6,581.4z M746,558.4c-16.3-3.9-32.5-8.3-48.9-11.5c-9.8-1.9-19.5-1.9-29.1-0.9
	c6.8-4.5,13.2-9.7,19.7-14.7c19.1-14.9,39.4-28.4,60.5-40.4c6.5,0.5,13,1,19.2,2.5c20.5,4.9,29.4,23.4,21.6,42.9
	C781.1,556.3,767.2,563.4,746,558.4z M683.3,483.7c18.5,3.5,37.5,4.4,56.3,6.4c2.8,0.3,5.6,0.5,8.4,0.7
	c-17.7,9.7-35.2,18.8-52.2,30.2c-9.2,6.2-18.4,12.4-27.8,18.2c-4.9,3-9.8,5.9-14.8,8.6c-0.3,0.2-0.6,0.3-0.9,0.5
	c-8.1,1.5-16.1,3.2-24.2,4.7c-17.9,3.3-35.8,6.6-53.9,8.7c-18.5,2.2-36.8,0.2-54.6-9.7c5.2-2.3,10.2-5,15.6-6.7
	c17.7-5.4,33.3-14.5,48-25.5c11.4-8.4,23.2-16.2,34.9-24.1C638.1,482.1,659.6,479.1,683.3,483.7z M534.8,581.6
	c3.4,0.2,7-0.1,10.3,0.8c6.7,1.9,13.3,4.1,19.7,6.7c16.9,7.2,34.2,8.6,52,4.1c4.6-1.2,9.5-1.5,14.2-2.2c16.5-2.7,28.6,4.2,37.1,17.8
	c5.1,8.1,8.8,17,13.4,25.4c7.1,13,14.4,25.9,21.6,38.8c1.1,2,2.4,4,4.1,7.1c-17.1,2.1-32.4-0.7-47.2-5.6
	c-36.4-12.1-69.8-30.4-100.7-53.1c-6.5-4.8-12-11-17.4-17c-2.8-3.1-5.2-7.1-6.5-11.1C534.4,589.7,535,585.6,534.8,581.6z
	 M687.5,638.7c-1-2.4-1.7-5-2.2-7.6c-0.7-4,1.1-5.7,5.3-5.3c20,1.9,39.9,3.9,59.9,5.4c18.1,1.4,31.7,10.1,41.9,24.5
	c5.8,8.3,9.7,17.5,4.6,27.6c-5,10-14.3,11.9-23.3,11.6C738,695.7,700.3,670.8,687.5,638.7z M799.8,487.6c0.4-2.2,4.1-5.1,6.6-5.5
	c6.8-1,16.9,5.5,15.6,9.6c-1.1,3.3-5.2,5.6-6.5,6.9C806.5,498.8,798.9,492.9,799.8,487.6z M798.2,281.6c2.2,2.5,0.9,9.7-0.8,14
	c-3.8,9.6-13.9,13.6-26.7,11.6c0.9-9.9,4.7-17.9,12.5-23.7C787.9,280,794.2,277.2,798.2,281.6z M786.5,268.4
	c-0.6,9.2-6.5,13.1-16.9,11.5C774.8,276.4,780,272.9,786.5,268.4z M788.2,333.6c-10.1,9.8-21.6,13.2-34.7,11.2
	c-2.1-0.3-5.5-1.9-5.7-3.3c-0.3-2.1,1.1-5.1,2.7-6.8C758.8,325.8,777.1,325.2,788.2,333.6z M760.2,286.2
	c-1.5,10.2-11,17.2-24.3,17.6C738.6,293.3,747.5,287,760.2,286.2z M732.6,315.2c-14.4,17.7-32.6,29.2-55,33.9
	C690.2,328.4,710.3,320.1,732.6,315.2z M517.9,530.3c4-14.2,12.2-26.1,21.8-36.9c26.5-29.8,53.1-59.3,79.9-88.8
	c5-5.5,10.5-10.5,15.9-15.7c27.6-26.9,61.2-36.5,98.9-34.1c1.8,0.1,3.6,0.7,5.8,1.2c-5.3,9.2-10.8,17-14.7,25.6
	c-4.3,9.3-5.2,20.7-11.1,28.5c-5.7,7.6-16.3,11.5-24.1,17.8c-13,10.5-23.7,23-29.8,39c-1.1,3-4.3,5.8-7.3,7.4
	c-11.4,6.2-23.2,11.4-34.5,17.8c-18.5,10.5-36.9,21.3-54.9,32.7c-13.6,8.6-26.7,18-43.5,19.4c-1.2,0.1-2.3,0-4.8,0
	C516.2,539.4,516.6,534.8,517.9,530.3z M560.6,738c-19.7-32.5-42.3-63.3-48.4-101.7c-1.4-8.5-0.2-17.4-0.2-26.2
	c0.8,0.1,1.5,0,1.6,0.2c11.6,21.7,23.6,43.3,34.4,65.4c8.5,17.4,12.1,36.2,12.6,55.6C560.6,733.5,560.6,735.8,560.6,738z
	 M623.2,819.1c-6.1,3.4-12,1.2-16.5-3.1c-5-4.8-9.9-9.9-13.4-15.8c-19.4-32.5-31.3-67.7-35.5-105.4c-0.2-1.4-0.1-2.9,0-4.3
	c0.1-0.6,0.5-1.3,1.4-3.3c19.9,29.5,39.7,57.8,58.2,86.8c5.5,8.6,8.2,19.3,11.2,29.3C630.3,809.2,629.5,815.6,623.2,819.1z
	 M628.5,832.7c0.2-0.7,0.3-1.4,0.5-2.1c8.2-3.2,14.5-1.6,19,6.3C640.5,835.3,634.5,834,628.5,832.7z M650.3,826.9
	c-2.8-3.5-6.1-5.7-6.5-8.3c-0.7-5.6,4-7.8,8.4-6.8c3.8,0.9,7,4.3,10.5,6.6C659.1,821,655.4,823.5,650.3,826.9z M661.1,839.8
	c-1.8-0.8-2-5.2-2.9-8c4,0.1,8,0.2,12.8,0.3C668.9,838.8,665.9,841.9,661.1,839.8z M671.5,786.1c-1.2,12.1-6.6,16.6-18.4,12.8
	c-5.7-1.8-11.6-5.1-15.8-9.4c-7.6-7.6-14.6-15.9-20.8-24.7c-22.2-31.9-44.1-64-65.9-96.2c-12.5-18.4-22.1-38.2-27.2-59.9
	c-0.8-3.2-0.6-6.6-0.9-10c0.8-0.2,1.7-0.4,2.5-0.5c22.3,24.3,49,43.2,77.5,59.1c14.8,8.2,23,18.9,28.9,34.7
	c7.7,20.2,19,39.1,29.4,58.3C667,761.6,672.8,772.6,671.5,786.1z M672,816.2c0.5-10.9,13.7-14.3,20.4-12.9c1.4,0.3,3.3,1.7,3.5,2.9
	c0.2,1.2-0.9,3.2-2,4.2C687.7,815.5,680.3,816.9,672,816.2z M690.7,834.1c-3.1-2.4-5.1-3.8-7-5.3c3.2-2,6.1-4.7,9.6-5.7
	c1.7-0.5,4.3,2.1,6.5,3.2C697,828.7,694.2,831.1,690.7,834.1z M673.7,764.9c-18.5-24.7-32.2-52.1-42.8-81.1c-1-2.9-1-6.1-1.5-9.6
	c2.1,0,2.9-0.2,3.4,0c30.4,11.3,60.3,23.8,85.3,45.1c7.3,6.2,13.9,14.1,18.6,22.5c8.2,14.4,2.8,28-12.2,35
	C706,785.5,686,781.3,673.7,764.9z M715.3,807.9c-4.3,0.1-7.9-1.7-7.8-6.4c0.2-5.9,5.1-6.6,11.8-7.8c1.8,2.1,6,4.8,6,7.6
	C725.4,807,720,807.8,715.3,807.9z M720.1,823c1.6-8.4,5.3-10.7,14.2-9.3C733.9,820.8,729.7,823.6,720.1,823z M738.2,790
	c2.6-6.7,8.2-10.3,13.1-8.4c1.3,0.5,2.9,2.7,2.8,3.9C753.5,789.7,745.6,791.9,738.2,790z M765.9,804.7c-3.8,2.3-8.4,3.1-14,5
	c0.2-8.4,3.8-12,9-13.7c2-0.6,4.6,0.8,6.9,1.3C767.3,799.8,767.5,803.8,765.9,804.7z M765.1,771.6c-0.3-0.6-0.6-1.2-0.9-1.9
	c2.4-2.2,4.8-4.4,8.6-7.8c0.3,4.3,0.4,6.3,0.6,9.1C770.3,771.2,767.7,771.4,765.1,771.6z M770.8,740.3c-5.2,4-10.8,4.3-16.2,1.2
	c-7-4.1-13.6-8.9-20.2-13.6c-18.3-13-36.6-26.1-54.9-39.1c-0.9-0.6-1.7-1.4-3.1-2.6c1.5-0.6,2.3-1.1,3.1-1.2
	c27.2-1.8,53.6,1.2,78.6,12.5c4.7,2.2,9.4,5,13.4,8.2C783.1,715.1,782.6,731.2,770.8,740.3z M784.1,788c-1.8-0.3-4.4-2.3-4.6-3.9
	c-0.8-4.8,5.5-10.2,12.9-10.1c1,1.1,4.3,2.9,4.9,5.4C798.3,782.9,789.3,788.7,784.1,788z M793.3,752.5c-0.8,0.4-2.4-0.6-3.6-1
	c1.6-3.8,3.2-7.5,4.8-11.3c0.9,0.4,1.9,0.8,2.8,1.2C799.5,746.3,797.8,750,793.3,752.5z M799.7,722.1c-1-0.5-1.9-1-2.9-1.5
	c1.4-3.4,2.8-6.7,4.2-10.1c0.8,0.3,1.5,0.6,2.3,0.9C803.7,715.7,805.8,720.4,799.7,722.1z M812,766.1c-5.4-5.3-5.4-12.8-0.4-21.5
	C818.7,749.5,819,758.7,812,766.1z M823.7,725.1c-2.1-0.9-3.6-3.4-6.1-5.9c2.4-2.4,3.8-3.9,5.3-5.4c1.9,2.5,4,4.9,5.3,7.7
	C828.5,721.9,824.6,725.5,823.7,725.1z M827.4,640.2c0.7-0.2,1.3-0.4,2-0.7c1.3,1.8,3.5,3.4,3.7,5.3c0.3,2.8-0.6,5.8-1.5,8.5
	c-0.2,0.5-3.5,0.8-3.5,0.6c-0.9-2.5-1.7-5.1-1.9-7.8C826.1,644.2,827,642.2,827.4,640.2z M828.1,687.1c3.6,4.7,3.4,10.3-1,12.4
	c-1.5,0.8-4.9,0.3-6-0.9C818.4,695.5,821.5,690.6,828.1,687.1z M822.9,543.5c-6,0-10.8-4.1-10.9-9.3c-0.1-5.5,5.8-10.6,12.4-10.7
	c5.5-0.1,9.6,3.8,9.7,9.3C834.3,538.7,829.2,543.5,822.9,543.5z M821.3,469.4c-4.3-0.7-10.5-0.1-10.6-7.8
	c-0.1-7.4,7.6-14.1,16.1-14.2c6.9-0.1,12.3,3.9,12.4,9.3C839.5,463.5,831.5,469.4,821.3,469.4z M838.6,400.8
	c-8.6,0.1-14.8-5.7-14.8-14c-0.1-9.6,7.1-17.6,16-17.6c9.2-0.1,16.2,6.5,16.3,15.4C856,393.6,848.5,400.6,838.6,400.8z M846,422
	c-2.3,3.1-4.6,6.3-8.2,11.1c-5-4.2-10.9-6.8-11.2-9.7c-0.4-5.9,5.9-7.1,10.6-6.6C840.3,417.2,843.1,420.2,846,422z M841.2,498.2
	c-1,0.3-2.6-1.3-3.9-2c2-3,4.1-6,6.1-9c0.9,0.6,1.8,1.1,2.6,1.7C846.8,493.1,846.2,496.9,841.2,498.2z M845.4,467.2
	c3.9-6.2,6.9-11,10.8-17.1C859.8,460.6,856.3,466.1,845.4,467.2z M840.5,355.9c-10.7,0.9-21.7-4.6-25.5-12.7
	c-2.8-6.1-1.5-12.2,4.7-15.4c5.4-2.8,11.5-4,17.3-5.8c7.6,2,14.5,3.5,21.3,5.7c5.4,1.7,7.1,5.7,5.5,11.3
	C861.1,348.8,852.9,354.9,840.5,355.9z M868.5,346.3c1.4,2.1,3.9,4,4,6.2c0.2,3.5,0.4,8.3-8.1,7.4c-0.7-1.2-3.6-4.3-3-5.9
	C862.7,350.9,866,348.8,868.5,346.3z M861.3,419c0.1-1.2,2.6-2.1,4-3.1c1.6,2.8,3.2,5.7,5.4,9.7C862.9,426.3,860.9,423.4,861.3,419z
	 M875.8,385.6c-5.7,3.9-9.9-0.1-14.9-3.6c3.2-6.1,7.5-7.3,12-3.8C874.8,379.6,876.3,385.2,875.8,385.6z M818.1,297.4
	c17.1-12.1,57.1-8.2,64,6.3C868.6,318.3,826.9,314.2,818.1,297.4z M879,282.3c-10.5,6.6-40.3,4.1-49.6-4.1c-3.1-2.7-3.1-5.9-0.3-7.9
	c4.4-3.1,9.2-5.9,14.3-7.6c4.9-1.6,10.3-1.7,17.1-2.7c5.2,1.3,12,2.1,17.9,4.8C886.8,268.6,886.8,277.4,879,282.3z M889.1,372.8
	c-1.7,0.1-3.5-2.5-4.4-3.3c0.4-6.9,2.9-10.5,8.4-10.2c1.5,0.1,4,3,4.1,4.8C897.5,369.3,894.2,372.5,889.1,372.8z M893.7,342.1
	c-5.8,0.2-9.7-3.8-9.6-10c0.1-6,4-9.9,10-9.8c7.4,0.1,11.6,3.5,11.7,9.4C905.8,337.5,900.8,341.8,893.7,342.1z M913.8,317.6
	c-4,0.1-7.8-1.2-7.8-6.2c0-4.2,6.4-8.6,14-8.5c0.9,1.2,3.9,3.6,3.9,5.8C923.7,314.6,919.4,317.4,913.8,317.6z M936.3,269.3
	c-3.8,4.5-8.7,4.5-14.6,2.2c2.1-6.5,6.2-8.6,11.7-6.8C934.8,265.3,936.7,268.9,936.3,269.3z M924.3,244.2c-0.1-0.7-0.2-1.5-0.3-2.2
	c3.7-3.5,8-3.7,12.6-1.5c0.1,0.9,0.2,1.7,0.3,2.6C932.8,243.4,928.6,243.8,924.3,244.2z"/>
</svg>
