<?xml version="1.0" encoding="utf-8"?>
<!-- Generator: Adobe Illustrator 21.1.0, SVG Export Plug-In . SVG Version: 6.00 Build 0)  -->
<svg version="1.1" id="Layer_1" xmlns="http://www.w3.org/2000/svg" xmlns:xlink="http://www.w3.org/1999/xlink" x="0px" y="0px"
	 viewBox="0 0 1000 1000" style="enable-background:new 0 0 1000 1000;" xml:space="preserve">
<style type="text/css">
	.st0{fill:#FEFEFE;}
	.st1{fill:#FDFDFD;}
	.st2{fill:#FCFCFC;}
	.st3{fill:#FAFAFA;}
	.st4{fill:#0F0F0F;}
	.st5{fill:#FBFBFB;}
	.st6{fill:#F3F3F3;}
	.st7{fill:#F2F2F2;}
	.st8{fill:#F0F0F0;}
	.st9{fill:#F4F4F4;}
	.st10{fill:#EFEFEF;}
	.st11{fill:#010101;}
	.st12{fill:#020202;}
	.st13{fill:#171717;}
</style>
<g>
	<path d="M973.3,594.2c-73-5-139-29-198-72.2c-6.9-5.1-10.5-12.5-14.8-19.4c-12.2-19.7-28.1-36.6-43.2-54.4c6.3-3.9,9.9-0.3,14,0.8
		c20.2,5.5,30.1,1,36.4-19.2c9.7-31.4,28.1-57.7,46.2-84.2c7.1-10.4,14.5-20.6,17.4-33.3c6.6-29-7.7-50.8-37.7-56.3
		c-38.6-7.1-77.9-8.7-116.9-11.9c-18.4-1.5-24.5-12.8-16.8-30.5c5-11.7,21.2-16.2,22.6-26c1.2-8.3-15.1-14.3-18.9-26
		c-6-19,5.9-33.9,9-50.7c-9.2-1.7-12.9,6.8-18.9,10.7c-24.8,16.5-50,30-83.3,19.2c6.4,15.1,22.1,27.4,12.1,43.1
		c-9.1,14.4-26.6,11.2-42.8,12.7c4.8,10.1,18.8,10.8,19.1,24.3c-17.2-7-33.8-14.1-52.6-11.5c-9,1.3-12.6-7.6-17.7-12.7
		c-34.1-34.7-72.2-63.1-120-76.2c-14.7-4-29.7-5.7-45-4.7c-29.1,2-42.9,14.3-47,43.6c-3.3,24-10.2,46.5-21,68.2
		c-13.4,26.9-14.4,54.3,2.3,81c2.2,3.6,14.5,11-1.9,12.8c-0.5,0.1-0.8,3.5-0.8,5.4c-1.6,38.2-25.4,60.2-56.3,76.9
		c-2.2,1.2-4.6,2-4.6,7c23.9,0,47.9,0,74.2,0c-9,20.4-24.9,29.6-40.7,38c-60.6,32.2-125.4,48.8-194,50.5C31.6,510.3,40.3,515,47,520
		c19.4,14.5,39.7,27.7,63.4,33.8c14.8,3.8,14.7,11,7.6,21.9c-4.9,7.5-10.4,14.4-16.4,20.9c-6.3,6.9-4.1,11.1,4.5,13
		c7,1.5,13.9,0.1,20.7-1.1c63.2-11.2,117.7-42.3,173.7-76.7c-32,46.9-71.7,78.7-125.1,92.1c-25.1,6.3-26.9,9.9-19.9,34.2
		c8.6,29.9,27.6,52.4,51.8,71c8.2,6.3,14.8,12.3,15.6,24.3c3,41.6,42.2,64.7,79.3,45.8c14.3-7.3,25.2-6.2,39.1-0.7
		c30,12,60.6,22.7,93.9,21.6c26.5-0.9,30.4-4.7,30.1-31.5c-0.5-34,3.6-67.1,20.2-97.5c2.9-5.4,5.2-11.4,13-16.3
		c1.9,38.4,13.9,74.2,13.1,111.7c-0.2,10.9-2.1,21.4-5.2,31.8c-7.1,24.1-0.6,36.7,23.4,44.8c24.1,8.2,49,5.6,73.6,4.2
		c14.5-0.8,29.1-1.9,43.3-5.7c5.4-1.4,9.8-1,14.6,1.3c31,14.9,84.8,17.9,97-22.5c3-10.1,9-15.7,18.6-19.5
		c29.4-11.8,58-25.2,83.7-44.2c6.6-4.9,13.3-9.6,19.1-15.5c25-25.8,23.8-35.8-2.3-59.8c-26.9-24.6-48.2-53.6-58.8-93.1
		c25,16.8,48.2,32.1,71.7,46.8c16.7,10.4,34.3,19.1,52,27.4c5.8,2.7,12.9,5.2,17.8,0c6-6.3-0.9-11.7-4.2-16.4
		c-12.2-16.8-28.4-30.7-37.7-50.7c18.5-5.5,40.6,0,55.2-17.5C973.3,596.7,973.3,595.4,973.3,594.2z"/>
	<path class="st0" d="M862.9,712.5c-37.7-34.9-54.1-76.3-69.4-118.6c-23.4-64.5-59.8-119.7-118-158.4c-20.4-13.6-43.2-21-67.5-23.2
		c-40-3.6-72.3,19.1-87.5,61.3c-17.1,47.2-14.8,96.1-9.5,144.6c4.8,43.9,13.5,87.4,19.6,131.2c2.4,16.8,3.6,34-3,50.5
		c-1.4,3.5-3.1,7.4,0.9,10.2c3.7,2.6,5.7-1.4,7.9-3.1C631.3,734.1,739,704.4,862.9,712.5z"/>
	<path class="st0" d="M196.1,637.9c93.6,30.3,182.1,68.2,247.6,148.9c-1.8-2.3,1.9-17,2.3-20.2c0.9-7.1,1.8-14.1,3-21.2
		c2.3-14.2,5.3-28.4,9.6-42.2c3.8-12.4,8.7-23.1,15.5-33.9c9.2-14.8,15.9-28,19.3-45c3.7-18.1,3.7-36.6,3.4-54.9
		c-0.4-29.1,2.1-58.1,6.6-86.8c1-6.7-0.4-12.6-3.2-18.3c-24.1-50.9-88.4-60-125.9-17.6c-18.2,20.6-29.6,45.5-42.2,69.5
		c-29.4,55.7-68.9,99.5-131.4,118.1C199,634.9,197.8,636.6,196.1,637.9z"/>
	<path class="st0" d="M57.9,506.7c24.5,20.3,47.4,34.4,75,37.7c12.3,1.5,13.4,5.5,9.1,15.3c-5,11.5-10.2,22.8-19.5,34
		c15.8,2.2,27.8-3.8,39.6-8.2c56-20.6,107.1-50.7,156.3-84.2c5.6-3.8,8.3-9,11.4-14.4c8.8-15.3,18.4-30.1,30.4-43.3
		c18.6-20.6,39.6-35.3,70.9-32.5c-10.3-13.4-13.1-26.1,0.2-40.6c-15.5,0.4-29.5-5.9-33.9,13.7c-1.3,5.6-5.8,2.3-9.1,0.9
		c-18.6-7.6-35.7-8.6-47.6,11.6c-2.8,4.7-8.2,4.9-11.9,3.4c-21.1-8.4-37.1,3.4-48.2,16.8c-29.7,35.8-69.8,53.2-111.3,68.7
		C134.9,498.6,99.6,508.3,57.9,506.7z"/>
	<path class="st0" d="M805.5,274.7c-12.3-15.1-30.9-11.9-46.8-14.2c-30.6-4.5-61.6-6-92.4-8.3c-26.2-2-33.3,4.5-35.3,31.2
		c-0.3,4.4,0,8.8,0,14.1c-14.5-4-27.3-18.6-42.3-6.4c-4.2,3.4-8.5,10.3-4.8,18.2c4.9,10.2,10.7,18,23.7,14.8
		c28.7,0.4,54,13.2,80.6,21.7c2.9,1.2,6,1.9,8.9,3.1c17,6.9,35.6,21.2,44-9.9c22-12.1,32.5-34.3,46.9-53.1c4.2-5.5,9.4-8,15.5-9.5
		C804.1,275.8,804.8,275.3,805.5,274.7z"/>
	<path class="st0" d="M429,285.8c4.3,2.8,8.6,5.7,12.9,8.4c7,4.4,11.4,2.2,17.9-2.1c28.6-18.5,18.1-51.6,32.7-74.5
		c2.4-3.8-1.4-6.9-4-9.7c-24.3-24.9-49.5-48.7-81.9-63.1c-3.7-1.7-7.6,0.2-11.4-0.6c-16.9,0.7-23.5,12.3-27.3,26.5
		c-1.3,4.8-1.6,10.1-0.8,14.9c4.4,24.7-0.6,45.6-23.3,59.8c-2.5,10.3,8.1,8.4,14.1,9.6c8.8,1.7,17.4,5.5,25.6,8.4
		c12.2,4.5,24,9.9,35.3,16.2C422.4,281.5,425.7,283.6,429,285.8z"/>
	<path class="st1" d="M651.6,136.8c-3.4,1.7-8.5,3.7-9.3,4.1c-5.7,2.3-11.5,4.4-17.3,6.3c-11.4,3.6-23.3,6-35.3,5.6
		c1.5,10.3,7.5,19.3,3.4,29.4c-4.2,10.4-12.7,15.6-22.1,19.4c-5.5,2.2-6.7,5.1-3.9,10c2.7,4.7,4.2,11.4,1,14.4
		c-23.6,22.1-0.1,40.2,4.5,60.8c13.8-6.5,27.6-12.4,43.1-5.7c4.8,2.1,6.7-0.7,7.3-5.1c0.7-5.4-0.4-8.5,2.8-13.3
		c5.8-8.7,15.2-16.2,24.8-20.4c0.9-0.4,2-0.9,2.3-1.9c0.3-0.8-0.1-1.7-0.4-2.5c-2.1-4.8-3.6-7.3-2.6-12.6c0.9-4.6,2.5-9.1,4.5-13.4
		c4-8.5,9.6-16.2,15.9-23.1c0.7-0.8,1.5-1.7,1.7-2.8c0.2-1.4-0.7-2.7-1.6-3.8c-5.1-6.5-11.4-13.1-13.8-21.3
		c-2.5-8.3-2-17.9-1.7-26.4C654.8,135.1,653.4,135.9,651.6,136.8z"/>
	<path class="st1" d="M818.4,726.7c-27.7-0.2-55.6,0.4-82.7,7.5c-6.9,1.8-19.3-0.3-18.8,8.1c0.6,10.2,0.1,23.3,10.5,30.7
		c10.8,7.7,22.2,14.9,27.6,27.7c2.6,6.2,6.7,4.4,10.7,2.7c34.3-14.3,68.7-28.6,98-52.2c3.4-2.7,6.4-6.1,9.2-9.5
		c8.2-10,6.8-15.3-7.2-15.1C850,726.9,834.2,726.7,818.4,726.7z"/>
	<path class="st1" d="M254.7,264.9c-0.7,20,20.8,53.9,35.8,58.5c12.4,3.9,17.4-7.5,20.5-15c6.3-15,11.2-18.1,25-6.5
		c10.8,9.1,25.1,9.5,34.2-5c6.5-10.5,11.5-9.8,17.7-0.1c10.7,16.4,28.1,20,45.7,23.3c7.3,1.4,13-1.6,15.5-7.7
		c3.4-8.1-5.5-8.2-9.4-10.5c-49.7-29.9-103.2-47-161.6-44.6C270,257.6,257.2,253.7,254.7,264.9z"/>
	<path class="st1" d="M584.8,850.2c19.1,0,37.8-3.4,56.4-6.9c7.6-1.4,13.5-2.7,9.3-14.4c-4-11.2-3-24.6,4.7-34.7
		c8-10.6,3.3-20.2-2-27.6c-5.9-8.1-14.1-0.1-21.1,2.3c-35.1,11.9-66.5,30-93.7,55.6c-11.4,10.7-9.4,16.9,5.1,21.6
		C557.2,850.5,571.1,849.4,584.8,850.2z"/>
	<path class="st1" d="M583.3,340.7c15.4,5.4,30.5,8.8,29.3,28.2c-0.1,1.8,2.2,4.3,4.1,5.6c35.5,25.8,68.1,56.8,114.2,62.9
		c5.6,0.7,12.6,8,16.9,1.2c3.8-6-0.2-12.9-4.9-18.8c-17.3-21.9-36.6-41.5-60.3-56.5c-22.1-14-45.9-23.4-71.8-26.9
		C602.3,335.3,593.3,332.5,583.3,340.7z"/>
	<path class="st1" d="M706.1,857.3c19.4,0.4,30.2-11.1,36.7-27.4c6.4-16.3,1.4-31.5-12.7-39.9c-13.9-8.3-18.3-19.5-19.4-33.6
		c-1-12.4-6.9-14.2-17.1-9.6c-3.4,1.5-7.2,2.7-10.9,3.2c-18.2,2.2-23.2,10.8-13.8,27c4.7,8.2,0.4,15.1-2.6,22.8
		C655.2,828.6,675,856.8,706.1,857.3z"/>
	<path class="st1" d="M442.1,801.5c-30.1-35.3-60.8-66-100.9-86.2c-6.6-3.3-9.6-2.2-13,4.3c-4,7.4-4.2,14.8-5.6,22.7
		c-5.7,32.4,14.8,39.6,38.9,46c18.8,5.1,36.9,12.5,56.3,15.2C425.2,804.6,432.3,804.8,442.1,801.5z"/>
	<path class="st1" d="M537.3,323.4c3.3-5.5,5.9-9.8,8.4-14.1c3.9-6.7,18.1-3.2,16.2-15.3c-2.3-14.5-6.4-28.4-18.5-38.3
		c-2.4-2-5-3.7-7.6-5.6c0.7-1,1.2-2,2-2.7c5.9-5.1,18.4-6.6,16.7-15.3c-1.4-7.2-13.4-7.8-20.8-10.1c-26.5-8.2-29.3-6.5-38.3,19
		c-7.6,21.6-13.5,42.9,5.9,62.2c2.1,2.1,2,4.7,6.2,4C521.1,304.7,529.7,312.7,537.3,323.4z"/>
	<path class="st1" d="M277.3,785c26.8-0.1,41.5-17.9,33.4-43.4c-2.9-9.1,0.5-14.1,4.4-19.8c7.1-10.3,10-18.6-5.5-23.7
		c-10.4-3.4-22.5-16.3-27.1,5.5c-2,9.6-8.3,12.8-16.4,15.5c-19.8,6.6-26.9,19.4-23.5,41C245.1,776.3,257.4,785.1,277.3,785z"/>
	<path class="st2" d="M926.7,657.8c-12.8-20.8-22.9-37.2-34.3-55.7c11.6-0.5,21.3-1,31-1.4c-47.7-13.3-93.7-30.3-136.6-56.1
		c7,19.3,13.3,37.3,32.3,48.7C853.4,614.1,885.5,638.6,926.7,657.8z"/>
	<path class="st1" d="M289.6,336.4c-3.6,1-7.2,1.7-10.7,2.4c-7.5,1.5-13.9,6.2-17.7,12.8c-2,3.5-3.2,7.3-3.7,11.2
		c-0.4,2.9-1.6,10.7,1,12.6c0.7,0.5,1.6,0.9,1.7,1.7c0.1,0.6-0.2,1.5,0.3,1.7c0.2,0.1,0.4,0,0.6,0c5.5-1.6,11.2-3.8,16.9-4.2
		c43-4.5,80.7-24.2,118.9-42.2c5.1-2.4,10.8-4.6,8.9-12.3c-2.9-1-6.3-1.3-8.6-3c-10.3-8.1-18.7-17.8-31.9-1.6
		c-6.7,8.2-19.4,3.4-28.2-1.8c-9.5-5.6-15.8-5.4-21.5,4.8c-9.5,17.3-30.2,18.8-47.5,20.5c-1,0.1-2,0.2-2.9,0.7
		c-1.1,0.6-1.8,1.7-2.5,2.8c-5.8,9.8-9.2,21.1-16.4,30c-1.4,1.8-3.6,3.8-3.6,6.2c2.9-0.5,6.1-2.3,9.1-3c4.7-1.2,9.3-2.4,14-3.5"/>
	<path class="st1" d="M272.8,240.9c-5-10.2,5.6-9.3,9.2-10.9c15.1-6.6,29.2-14.5,41.7-25.2c11.4-9.7,15.5-21.1,4.6-34
		c-7.3-8.6-8.8-14.8,3.1-22.1c7.7-4.8,5.7-21.8,21.4-18.9c-31.6-11.9-64.7,3.3-67.3,33.6c-2.5,29.2-13.6,54.6-25.2,80.3
		C265,245.5,270.3,249.5,272.8,240.9z"/>
	<path class="st1" d="M233.3,725.2c13.7-9.5,28.3-18.4,41-29.3c6.2-5.3,3.6-12-5.1-15.8c-25.5-10.9-50.3-23.2-77.3-30.2
		c-5.3-1.4-10.9-4.8-15.7,1.1c-4.2,5.2-0.5,10.2,1.7,14.1c11.9,21.1,26.7,39.8,46.2,54.6C226.5,721.6,229.5,722.9,233.3,725.2z"/>
	<path class="st2" d="M733.7,392c8.1,11.9,16.2,23.9,24.9,36.8c9-35.7,31.7-62.9,51.1-91.8c9.3-14,13.5-28.6,10.4-44.8
		c-1.5-7.7-4.2-16.3-14.6-17.5l0.6-0.5c-7.9,21.6-24.5,37.8-36,57.1c-6.1,10.3-12.7,20.3-19.2,30.3c-6.9,10.6-10.1,21.1-3,33.2
		c-3.1-3.4-6.1-5.6-9.7-7.1C735.2,387.7,732.6,388,733.7,392z"/>
	<path class="st2" d="M257.5,380.4c-7.4,2.7-14.8,3.9-21.7,7.8c-8.3,4.7-16.1,10.2-24,15.5c-0.5,0.4-1.1,1-0.7,1.5
		c2,2.5,17.4-2.8,20.3-3.2c12.4-1.9,27,1.3,39.5,2.2c1,0.1,2,0.1,2.9-0.1c1.2-0.2,2.2-0.9,3.3-1.5c17-9.9,33-11.6,52.1-9.7
		c1.2,0.1,2.5,0.2,3.6-0.1c1.2-0.3,2.4-1,3.4-1.8c4.2-3.2,7.2-7.6,11.2-11.1c5-4.3,11.2-7.1,17.8-7.6c7.5-0.5,13.3,3,20.4,4.4
		c1.9,0.4,4,0.6,5.5-0.6c1.1-0.8,1.6-2.1,2.1-3.4c8.3-19.6,22.6-36.7,43-43.8c-1.4-1.4-3.6-1.5-5.5-1.5c-5.4,0-11.1,0.7-16.5,0.5
		c-25.2,3.9-46.3,18-69.1,27.9c-17.4,7.5-35.1,12.5-53.7,14.9C280.6,375.6,267.3,371.8,257.5,380.4z"/>
	<path class="st3" d="M509.2,458.9c8.3-20.3,23.9-31.6,40.6-42.2c-4.9-4.5-8.9-9.7-14.2-12.5c-9.5-5.1-19.9-6.9-24.2,6.4
		c-3.7,11.4-11.2,17.7-22.7,20.9C495,441.2,504.6,447.8,509.2,458.9z"/>
	<path class="st3" d="M450.6,331.1c0.1,9.4,2.3,17,11.5,18.2c8.5,1,13.1-5.6,13.4-12.9c0.4-8.4,3.1-11.9,11.4-14.6
		c6.9-2.2,8.2-10.6,6.5-18.1c-1.8-7.8-7.5-12.5-14.7-12.3c-7.1,0.2-14.9,5-14.4,12.6C465.2,316.9,446.5,318.9,450.6,331.1z"/>
	<path class="st4" d="M292.7,373.3c14-0.4,27.3-2.8,41.2-8.2c17.7-6.9,34.3-16.3,52.1-23c9.8-3.7,18.9-9.3,28.3-14.1
		c-2.8-2.6-5.7-5.1-8.5-7.7c0.4,2.8-0.6,5.1-3.2,6c-20.7,7.5-40.5,17.4-60.9,25.9c-10.2,4.3-20.6,8.3-31.3,11.5
		c-10.4,3.1-20.9,4.8-31.3,8.1c-1.1,0.4-2.3,0.7-3.4,1.1C281.5,373.3,287.2,373.5,292.7,373.3z"/>
	<path class="st5" d="M492.8,335.2c1.3,9.9,4.5,19.5,17.4,19.6c12.2,0.1,17.6-7.5,18.1-19.3c0.4-11.9-5-20-16.8-20.4
		C499.7,314.9,493.7,322.8,492.8,335.2z"/>
	<path class="st6" d="M637.6,404c-16-13.5-27-28.8-49.2-17.1c-7,3.7-6.9,8.2-7.2,13c-0.4,7.8,5.8,4,9.5,4
		C605.1,404,619.5,404,637.6,404z"/>
	<path class="st6" d="M569.9,365.5c1.6,10.1,8.4,14.1,17.3,13.7c8.5-0.4,16.8-3.7,16.3-14.3c-0.5-9.9-8.5-14-17-13.7
		C578.1,351.5,570.7,355.4,569.9,365.5z"/>
	<path class="st7" d="M564.7,310.1c-7.9,1.3-14.4,4.9-14.6,13.9c-0.2,9.5,4.7,15.3,14.9,15.2c8.8-0.1,14.8-4.8,15.3-13.3
		C580.9,316.2,573.7,311.9,564.7,310.1z"/>
	<path class="st8" d="M451.2,354.4c-6.9-5.8-6.1-19.5-14.2-18c-14.3,2.6-24.3,13.8-32.1,28.8C421.2,362.3,435.9,360.8,451.2,354.4z"
		/>
	<path class="st7" d="M547.1,377c-0.4,1.7-0.6,3.5-1.4,5.1c-4.7,9.9-4,18.5,7.2,23.1c7.9,3.3,14-0.9,16.5-7.9
		c3.7-10.3,1-18.5-11.2-21.1c-1.6-0.3-3-1.8-4.5-2.8C549.8,371.3,546.9,371.3,547.1,377z"/>
	<path class="st9" d="M532,369.6c-6.6-0.7-12.4-6.6-19.6-2.7c-6.5,3.5-8.5,9-7.4,15.9c1.2,8.2,6.8,12.5,14.3,12.3
		c6.5-0.2,12.3-4,13.1-11.3c0.5-4.9-0.6-9.9-0.9-14.9L532,369.6z"/>
	<path class="st7" d="M459.5,366c1,9.4,5,15.7,14,16c9.1,0.3,13.6-5.5,13.9-14.4c0.4-9.7-4.3-16.6-14-16.2
		C465.1,351.8,460.5,358.5,459.5,366z"/>
	<path class="st6" d="M487.9,421.8c8.2-2.3,13.6-7,13.5-15.9c-0.1-8.6-4.4-15.7-13.1-15.4c-8,0.3-13.5,6.3-13.5,15.4
		C474.7,414.8,480.2,419.4,487.9,421.8z"/>
	<path class="st7" d="M547.1,377c2.2-1.2,4.4-2.4,6.6-3.6c6.3-6.1,6.8-13,1.8-20c-3-4.1-7.2-7.5-12.7-5.3
		c-9.8,3.8-11.1,12.4-10.9,21.5c0,0-0.6-0.7-0.6-0.7C537.2,370.6,539.3,379.5,547.1,377z"/>
	<path class="st10" d="M444,376.2c-10,0.2-13.1,6.5-13.2,13.9c-0.1,7.4,3.6,14.1,11.9,14.5c9.5,0.4,12.8-6.3,12.9-15
		C455.7,381,451.1,377,444,376.2z"/>
	<path class="st11" d="M828.6,691.8c-32.1-39-52.6-83-69.4-129.5c-15-41.6-44.3-73.2-78.9-100.3c20.1,31.2,39.6,62.5,46.9,99.5
		c1.4,7.1,6.3,6.4,11.7,5.4c5.4-1,13.2-3.5,14,4.4c0.8,9.4-8.2,6.7-13.9,7.5c-2.4,0.4-5,0.3-9.8,0.5c14.1,38.3,31.3,72.9,68.8,100.2
		c-45.5,2.9-84.1,10.4-122.2,21.2c-41.6,11.8-80.3,29.8-116,54.2c-7.2,4.9-14.2,10.1-14.8,22.2C630.4,717.3,727.5,699.9,828.6,691.8
		z"/>
	<path class="st12" d="M688,343.4c17.9,13.2,36.1,26.1,48.4,45.4c5.8,6.5,11.6,12.9,17.9,19.9c0.9-2.2,1.6-3.1,1.4-3.4
		c-15.6-26.4,0.8-45.7,14.4-65.7c11-16.2,21.5-32.8,33.2-48.4c4.4-5.8,5.5-10.7,2.7-17c-11.4-3.7-17.5,0.5-23.7,11.1
		c-10.7,18.3-22.3,36.5-41.5,48.1c-5,3-12.1,5.4-8.8,15.7c1.7,5.3-4.5,10.5-12.9,5.4C709.7,348.8,700.4,341.3,688,343.4z"/>
	<path d="M621.1,210.2c-12.3,7.8-13.6,22.7-21.8,33.2c0.9,0.2,1.7,0.4,2.6,0.6c10.3-9.3,19-19.4,19.4-34.2L621.1,210.2z"/>
	<path d="M601.8,244c-0.9,0.1-1.8-0.1-2.6-0.6c-8.8,5.1-14,12.4-15.2,26.8C592.6,260,600.5,254.4,601.8,244z"/>
	<path d="M621.1,210.2c0,0,0.1-0.4,0.1-0.4c10.4-6.2,11.3-16.3,13-31.4C625.1,190.6,619.6,199,621.1,210.2z"/>
	<path class="st13" d="M706.3,840.1c12.8,6.2,16.4-2.1,20.2-10.4c5.8-12.9,2.3-22.7-11.2-32.8C717.6,813.9,715.6,827.9,706.3,840.1z
		"/>
	<path class="st11" d="M345.8,248.7c31-13.4,29.2-39.3,26-66.4c-2.5-20.7,6.8-31.9,26.1-33.8c-4.2-13.4-18.1-9.4-26.8-14.9
		c-6.1-1.3-12.3-2.6-18.4-3.9c-19.5-1.1-37.3,21.6-30.7,39.2c8.5,22.7,7.3,26.5-12.1,40.5c-10.3,7.4-22.5,11.3-32.8,18.5
		c-5.4,3.7-15.8,8.7-2,15.7c13.2,1.8,26.4,2.6,39.6,2.6C324.9,250,335.2,251.5,345.8,248.7z"/>
</g>
</svg>
