<svg id="Layer_1" data-name="Layer 1" xmlns="http://www.w3.org/2000/svg" viewBox="0 0 1000 1000"><title></title><path d="M728.51,923.94a6.76,6.76,0,0,0-.91-2.32c-13.48-24.78-29.82-48-45.08-71.73q-31.61-49.25-63.22-98.51c-5.84-9.08-6-10.95,1.08-19.64,2.28-2.82,4.16-6.44-.26-8.1-8-3-7.64-7.49-4.13-13.68,2.54-4.49,1.1-7.21-4.34-7.19-4,0-8.13.63-12-.15-2.45-.49-5.81-2.61-6.5-4.74q-19.88-60.68-39-121.59c-2.36-7.53-1.86-15.09,3-22.29,4.24-6.3,2.21-9.66-5.5-9.7-5.87,0-7.61-2.6-8.21-8-7.11-63.66-15.63-127.19-21.23-191-2.33-26.44-3.79-53-5-79.47-.9-19.51-1.67-39-2.55-58.53-.2-4.37-.18-8.76-.31-13.09a13.32,13.32,0,0,0-.17-1.68,23.44,23.44,0,0,0-10-39.22q-.39-1.85-.77-3.7c8-1.22,13.75-4.39,13.75-8.12,0-4.23-7.33-7.74-17-8.5-1.05-5.21-2.23-10.7-2.18-15.85.1-12.27.57-24.72.55-37.07a36.73,36.73,0,0,0-.21-5.36c-.13-.89-.43-2-1.3-2.15s-1.63.72-2,1.55c-1.38,3.06-.85,6.39-.9,9.63-.05,3.7-.07,7.41-.09,11.11,0,7.41,0,14.81,0,22.22,0,5.29-1.46,10.74-2.54,16-9.29.89-16.21,4.32-16.21,8.43,0,3.64,5.44,6.75,13.13,8l-.9,4.85c0,.14,0,.29,0,.43a23.4,23.4,0,0,0-6.68,37.2c-1,8.67-1.07,17.49-1.56,26.22-1.9,33.39-3.3,66.83-5.93,100.17-2.77,35-6.39,69.9-10.3,104.78-4.27,38.14-9.34,76.19-14,114.29-.58,4.76-2.38,6.92-7.64,6.73-8.11-.3-10.72,3.9-6,10.35,5.25,7.18,5.12,14.14,2.71,22-11.14,36.19-22,72.48-33.25,108.62-1.55,5-2.88,12.47-7.75,15.41-5.91,3.58-13.77.82-20,3.24a5.26,5.26,0,0,0-2.14,1.31c-1.35,1.55.44,4.5,1.35,6,3.9,6.21,3.22,8.14-3.76,11.41-1.62.76-3.71,3-3.61,4.35.13,1.79,1.93,4.5,3.56,5,7,2.07,7,7,5.52,12.35a36.71,36.71,0,0,1-4.26,9.65q-31.14,49.56-62.33,99.09L288.7,888.78l-11.27,17.93c-3.44,5.48-7.62,10.57-10.28,16.48a2.73,2.73,0,0,0-.34,1.81c.85,3,11.37,1.65,13.6,1.66l18.2.08c11.93,0,23.87,0,35.8-.1,1.87,0,4.65-2.48,5.4-4.43,2.08-5.4,5.68-6.62,11-6.48,12.14.32,24.3.1,36.3.1,4.37-67.44,56.11-108,108-109.84,24-.86,46.29,5.18,66.18,18.72,31.94,21.74,47.88,52.71,50.28,91.16,11.72,0,22.55-.27,33.36.19,2.81.12,6.69,1.81,8.06,4,3.63,5.88,8.61,7.46,14.91,7.35,19.25,0,38.62-.27,57.85-.88a3.42,3.42,0,0,0,1.82-.4,2,2,0,0,0,.8-1.23A2.81,2.81,0,0,0,728.51,923.94ZM487.58,501.86c.94-8.3,1.84-16.63,3.17-24.88.75-4.66,2.27-24,3.29-29,.32-1.59,1.07-3.5,2.68-3.67s2.71,1.44,3.31,2.9c1.88,4.55,1.89,9.76,2.38,14.6.55,5.52,1.11,11,1.56,16.58.31,3.9,2,21.08,2.1,22.68.73,12.09,1.33,24.18,2,37.63,0,.51-20.66-.18-22.76-.44a2.36,2.36,0,0,1-1.59-.62,2.29,2.29,0,0,1-.37-1.48C483.29,524.8,486.3,513.14,487.58,501.86Zm45.78,199.19c-.47,1.29-1.71,2.06-4.44,1.93-6.69-.31-13.35-.43-20.08-.4-15.63.07-31.26.1-46.89-.1-8.41-.11-8.48-.88-6.66-9.38,6.26-29.18,12.56-58.34,18.48-87.59,1.15-5.69,3.56-8.06,9.28-7.89,8.94.27,17.89,0,26.83.28,4.37.12,6.76,2,7.6,7.1q4.16,25.39,8.63,50.72,2.24,12.83,4.5,25.67l2.32,13.26C533.35,697.1,533.94,699.47,533.36,701.05Z"/></svg>
