<svg id="Layer_1" data-name="Layer 1" xmlns="http://www.w3.org/2000/svg" viewBox="0 0 1000 1000"><title>falling leaves</title><path d="M464.54,381.22l-56,9.34,17,36.15-2.34,6.19L319.32,408.28l18.77,82.18L334,493.55c-20.52-23.34-50.37-32-73.21-55-16.4-16.48-25.49-33.81-34.91-57.77-33.91,46.33-36.89,107.07-85.37,141.85l74.16-143.15-3.29-5.11C154,395.8,109.56,362.86,60.87,339L141,310.86,59,234.33,105,226l-18-45c11.85-39.39,6.78-73,9.13-109.56,15.77,12.64,29,25.66,44.42,35,17.61,10.62,33.57,21.24,38.27,42.76,34.35,7.4,26.92,42.28,41.35,62.78.76,1.08,2.22,1.66,7.54,5.49L233.83,80c14.66,13.84,23.74,22.25,32.64,30.85,12.4,12,20.46,8.15,27.27-6.24,6.3-13.31,14-26,19.5-36.13C352.49,74,376.6,45.71,408.11,35.31c1.41,23.9,1.92,49.35,5.08,74.47.81,6.45,10,11.85,17.13,19.75-5.83,11-12.07,24.25-19.7,36.68-9.51,15.48-7.42,25,11.59,28.44,10.21,1.86,20.31,4.28,31.29,6.62-22,41.88-68.42,53.57-102.39,82.52,33.86-3.63,65-4.58,97.73.41,33.51,5.12,58.85,30.65,94.57,25.23l-.3,6.72c-20.28,13.77-40.73,27.3-60.74,41.44-6.83,4.83-12.58,11.19-18.82,16.86Z"/><path d="M812.44,98.07l3,56.72L853.23,142l5.88,3L822.94,245.41,906.72,236l2.6,4.45c-25.5,17.76-37.51,46.43-62.9,66.54-18.22,14.43-36.47,21.51-61.34,28.17C827.28,374.12,887.3,383.93,916.39,436L782.52,346.19l-5.45,2.7c14.81,59.36-22.94,99.82-52.14,145.5L706,411.59l-85.29,72.84-3.1-46.68-46.77,12.79c-37.8-16.22-71.76-15-107.83-21.43,14.34-14.24,28.77-25.89,39.76-40.19,12.54-16.3,24.9-31,46.81-33.2,11.23-33.3,45-22,67-34,1.16-.63,1.9-2,6.3-6.87L487.12,293.31c15.41-13,24.79-21.08,34.33-28.95,13.3-11,10.41-19.41-3.12-27.8-12.52-7.76-24.24-16.81-33.7-23.45,9.95-38.38-15.49-65.53-22.26-98,23.9,1.29,49.25,3.66,74.57,3.36,6.5-.08,12.9-8.58,21.56-14.8,10.23,7,22.73,14.73,34.22,23.72,14.31,11.2,24,10.2,29.57-8.3,3-9.93,6.54-19.7,10.11-30.34,39.13,26.6,45.5,74,70.44,111.05.22-34,2.79-65.15,11.44-97.06C723.15,70,751.38,47.7,750,11.59l6.64,1.06c11.39,21.7,22.53,43.55,34.32,65,4,7.33,9.7,13.76,14.62,20.6Z"/><path d="M516.69,614.29l56-9.34-17-36.15,2.34-6.19,103.82,24.61-18.77-82.18,4.13-3.09c20.52,23.34,50.37,32,73.21,55,16.4,16.48,25.49,33.81,34.91,57.77,33.91-46.33,36.89-107.07,85.37-141.85L766.6,616l3.29,5.11c57.3-21.41,101.77,11.52,150.46,35.39l-80.13,28.14,82,76.53-46,8.35,18,45c-11.85,39.39-6.78,73-9.13,109.56-15.77-12.64-29-25.66-44.42-35-17.61-10.62-33.57-21.24-38.27-42.76C768,839,775.44,804.1,761,783.6c-.76-1.08-2.22-1.66-7.54-5.49L747.4,915.51c-14.66-13.84-23.74-22.25-32.64-30.85-12.4-12-20.46-8.15-27.27,6.24-6.3,13.31-14,26-19.5,36.13-39.26-5.55-63.36,22.78-94.87,33.18-1.41-23.9-1.92-49.35-5.08-74.47-.81-6.45-10-11.85-17.13-19.75,5.83-11,12.07-24.25,19.7-36.68,9.51-15.48,7.42-25-11.59-28.44-10.21-1.86-20.31-4.28-31.29-6.62,22-41.88,68.42-53.57,102.39-82.52-33.86,3.63-65,4.58-97.73-.41-33.51-5.12-58.85-30.65-94.57-25.23l.3-6.72c20.28-13.77,40.73-27.3,60.74-41.44,6.83-4.83,12.58-11.19,18.82-16.86Z"/><path d="M168.79,897.45l-3-56.72L128,853.5l-5.88-3L158.29,750.1l-83.77,9.37L71.91,755c25.5-17.76,37.51-46.43,62.9-66.54C153,674.05,171.28,667,196.15,660.32,153.95,621.4,93.93,611.58,64.84,559.48l133.87,89.85,5.45-2.7c-14.81-59.36,22.94-99.82,52.14-145.5l18.91,82.79,85.29-72.84,3.1,46.68L410.37,545c37.8,16.22,71.76,15,107.83,21.43-14.34,14.24-28.77,25.89-39.76,40.19-12.54,16.3-24.9,31-46.81,33.2-11.23,33.3-45,22-67,34-1.16.63-1.9,2-6.3,6.87l135.83,21.54c-15.41,13-24.79,21.08-34.33,28.95-13.3,11-10.41,19.41,3.12,27.8,12.52,7.76,24.24,16.81,33.7,23.45-9.95,38.38,15.49,65.53,22.26,98-23.9-1.29-49.25-3.66-74.57-3.36-6.5.08-12.9,8.58-21.56,14.8-10.23-7-22.73-14.73-34.22-23.72-14.31-11.2-24-10.2-29.57,8.3-3,9.93-6.54,19.7-10.11,30.34-39.13-26.6-45.5-74-70.44-111.05-.22,34-2.79,65.15-11.44,97.06-8.87,32.71-37.09,55-35.75,91.12l-6.64-1.06c-11.39-21.7-22.53-43.55-34.32-65-4-7.33-9.7-13.76-14.62-20.6Z"/></svg>