<svg id="Layer_1" data-name="Layer 1" xmlns="http://www.w3.org/2000/svg" viewBox="0 0 1000 1000"><defs><style>.cls-1{font-size:134px;font-family:LindysDiner, LindysDiner;}</style></defs><title>Farm fresh eggs</title><text class="cls-1" transform="translate(101.59 272.85) rotate(-36.2)">F</text><text class="cls-1" transform="matrix(0.89, -0.47, 0.47, 0.89, 166.87, 224.21)">A</text><text class="cls-1" transform="translate(254.59 177.97) rotate(-19.15)">R</text><text class="cls-1" transform="matrix(0.99, -0.17, 0.17, 0.99, 343.39, 146.03)">M</text><text class="cls-1" transform="translate(454.07 129.27) rotate(-2.75)"> </text><text class="cls-1" transform="translate(492.34 126.47) rotate(2.01)">F</text><text class="cls-1" transform="translate(573.87 128.48) rotate(10.09)">R</text><text class="cls-1" transform="matrix(0.95, 0.32, -0.32, 0.95, 667.04, 145.15)">E</text><text class="cls-1" transform="translate(749.87 172.93) rotate(25.81)">S</text><text class="cls-1" transform="matrix(0.83, 0.56, -0.56, 0.83, 820.46, 205.48)">H</text><path d="M116.5,855.35q3-.28,5.68-.28a7.57,7.57,0,0,1,3.12.28q.55.35.76,1.94.21,1.32.35,6.38t-.21,5.2a.92.92,0,0,1-.66.17.73.73,0,0,1-.59-.38,15.28,15.28,0,0,0-1.52-2.6,31,31,0,0,0-2.56-2.81,22.08,22.08,0,0,0-10-5.54,31.11,31.11,0,0,0-5.75-.62l-3.67-.14v1.25q0,1.25.21,4.64.21,3.67.21,10v6.65l3.19.07a11.06,11.06,0,0,0,4.09-.28,6.49,6.49,0,0,0,2.53-2.56,19,19,0,0,0,2.11-4.78q.76-2.35,1.11-2.49.62-.21.76.55.21,1,.21,10.53.07,10.81-.21,11.09-.9.76-1.39-1.25A8.54,8.54,0,0,1,114,889q-.49-4.37-2.15-5.89a7.45,7.45,0,0,0-2.56-1.49,19.74,19.74,0,0,0-4.3-.52l-3.12-.14-.14,1.59q-.14,1.32-.28,11.22l-.14,9.7,2.42.07q2.77,0,4,.14a5.4,5.4,0,0,1,1.28.17.57.57,0,0,1,.31.45c0,.32,0,.53-.28.62s-3,0-8.31-.14-9.05-.14-11.23,0a.41.41,0,0,1-.28.07q-3.33.28-3.92.24c-.39,0-.57-.17-.52-.45v-.07a.59.59,0,0,1,.17-.49,3.45,3.45,0,0,1,1-.35,39.06,39.06,0,0,1,4.09-.42l2.84-.14L93,901.7q.07-1.59.21-5.4t.35-8.25a79.13,79.13,0,0,0-.42-12.89,4.77,4.77,0,0,1-.07-1.8q.21-.14,0-2.77-.14-2.22-.07-7.28t.21-5.68l.21-.49-4,.07-3.95.07-.07-.55a.67.67,0,0,1,.35-.76q.35-.14,14.13-.21Q113.38,855.7,116.5,855.35ZM95.92,903a.32.32,0,0,0-.24-.35.44.44,0,0,0-.45.14c-.14.14-.17.25-.1.35a.45.45,0,0,0,.38.14C95.78,903.3,95.92,903.21,95.92,903Zm0-45.59c0-.32,0-.48-.28-.48s-.32.16-.28.48.14.55.28.55S95.87,857.8,95.92,857.43Z"/><path d="M143.52,856.18a.64.64,0,0,1,.76-.07,10.59,10.59,0,0,0,3.53.14q6.65-.28,9.56.76a14.47,14.47,0,0,1,5.58,3.57,11.64,11.64,0,0,1,3.22,5.16,9,9,0,0,1-2.49,9.22,14.44,14.44,0,0,1-2.11,1.7,9.34,9.34,0,0,1-2.11,1.14q-.62.21-.69.42c0,.09,0,.14.07.14a.6.6,0,0,0,.28.07,6,6,0,0,1,1.84.69,11.32,11.32,0,0,1,2.25,1.39,11.16,11.16,0,0,1,1.87,1.73,12.46,12.46,0,0,1,2.36,4.23,38.64,38.64,0,0,1,1.18,6.93q.48,5.61,1.59,7.76a8,8,0,0,0,1.39,2c.55.58,1,.87,1.32.87a5.73,5.73,0,0,0,1.8-.69q2.08-.9,2.36-.28.28.83-2.77,1.94a9.41,9.41,0,0,1-1.8.52,18.16,18.16,0,0,1-2.7,0,21.28,21.28,0,0,1-2.7-.1,7,7,0,0,1-1.66-.59,7.22,7.22,0,0,1-3.85-3.67q-1.08-2.42-1.35-8.11-.21-4.78-.52-6.76a13.27,13.27,0,0,0-.94-3.36,6.48,6.48,0,0,0-1.49-1.66,6.71,6.71,0,0,0-2-1.18,7.37,7.37,0,0,0-2-.42q-1-.07-4.82,0l-3.6.07v6.1q0,6.38.14,12l.14,6h3.33l3.4.07V905l-11,.07q-11,0-11.23-.17c-.14-.12-.16-.33-.07-.66a.68.68,0,0,1,.66-.38q.52,0,3.15,0h3.67v-7.69q0-6.17.21-22,.28-14.41.07-15.17l-.07-.83H134q-3.33-.14-3.53-.49a.56.56,0,0,1,.07-.69q.35-.35,6.51-.35T143.52,856.18Zm9.42,2.29a12.7,12.7,0,0,0-3.95-.55h-2.11a8.71,8.71,0,0,0-1.25.07,1.49,1.49,0,0,0-.59.17.25.25,0,0,0-.07.31q.21.69,0,11.64,0,8.11.21,8.18t4-.28a17.53,17.53,0,0,0,3.81-.52,7.1,7.1,0,0,0,2.22-1.77,10.81,10.81,0,0,0,2.63-5.06,11.48,11.48,0,0,0-.42-7.48A8,8,0,0,0,152.94,858.47ZM165,896.85c-.14-.32-.25-.48-.35-.48a.47.47,0,0,0-.07.31,2.2,2.2,0,0,0,.14.66c.09.28.18.53.28.76l.48.76-.21-.76A6.62,6.62,0,0,0,165,896.85Zm1.52-8.38a3.16,3.16,0,0,0-.35-1.18l-.28-.76.07.76a6.36,6.36,0,0,0,.35,1.18c.09.23.15.35.17.35S166.52,888.7,166.52,888.47Zm2.63,15.66c.14,0,.11-.16-.07-.35a.52.52,0,0,0-.62,0c-.19.09-.16.18.07.28A1,1,0,0,0,169.16,904.13Z"/><path d="M181.56,854.93a150.18,150.18,0,0,1,15.52.35l8.31.35q3,.07,3.88,0a1.71,1.71,0,0,0,1.11-.31.94.94,0,0,1,.9-.21q.48.07,4.16.21a21.93,21.93,0,0,1,4.09.35q.48.28.66,1.66t.17,5.54q0,3.81-.07,4.57c0,.51-.16.81-.35.9a.72.72,0,0,1-.8-.21,7.11,7.11,0,0,1-.87-1.59A19,19,0,0,0,217,864a15.88,15.88,0,0,0-3.43-3.5,16.4,16.4,0,0,0-4.33-2.67q-2.91-1-9.49-.76l-3.53.14L196,861q-.14,3.81-.35,6.17t-.35,6.44l-.21,3.95,3.88.07q3.6,0,4.23-.07a3.81,3.81,0,0,0,1.46-.55,7.61,7.61,0,0,0,2.67-3,13.14,13.14,0,0,0,1.63-4.54,3.53,3.53,0,0,1,.38-1.28.61.61,0,0,1,.66-.31q.42.07.62.69t.17,11.4q0,10.78-.1,11.05a.59.59,0,0,1-.62.21.74.74,0,0,1-.59-.48,29.27,29.27,0,0,1-.66-3.53,37.09,37.09,0,0,0-.76-4.16,4.74,4.74,0,0,0-2.29-2.94,5.71,5.71,0,0,0-3.95-.73,18.28,18.28,0,0,1-3.95,0l-2.7-.14v.9q.28,4.71.28,4.92.21,4.23.28,11t.28,7.1q.28.24,6.17.1a56.52,56.52,0,0,0,6.37-.31,13.08,13.08,0,0,0,3.53-1.21,13.22,13.22,0,0,0,4.12-3.4,23.57,23.57,0,0,0,3.57-5.4q.55-1.11,1.25-2.56t1.59-.83q.35.28.21,1.66a5.36,5.36,0,0,0,0,1.28.61.61,0,0,0,.35.38.63.63,0,0,1,.45.66q0,.45-.45,3.43a35,35,0,0,0-.62,5.34,9.22,9.22,0,0,1-.35,2.56q-.21.28-8.94.07-14.62-.28-24.53-.07-6.17.14-7.27,0a4.09,4.09,0,0,1-1.11-.17.45.45,0,0,1-.21-.45v-.55l3.74-.14q3.74-.07,3.88-.28a21.62,21.62,0,0,0,.24-4.61q0-4.4-.17-8.77-.21-5.89-.14-13.09.14-17.25-.28-18.64a.53.53,0,0,0-.45-.49,22.11,22.11,0,0,0-2.39-.07,18.13,18.13,0,0,1-3.6-.24q-1-.24-1.18-.87c-.14-.6-.12-1,.07-1.18A3.11,3.11,0,0,1,181.56,854.93Zm9.49,9.15a4.52,4.52,0,0,0,0-1.11,4.15,4.15,0,0,0-.07.62Zm3.46,39c-.09-.32-.23-.44-.42-.35a.22.22,0,0,0-.14.21q0,.35.31.35C194.48,903.3,194.56,903.23,194.51,903.09Zm.28-45.59c0-.18-.1-.28-.31-.28s-.31,0-.31.14.09.25.28.35S194.79,857.73,194.79,857.5ZM219,900.8q.42-.48.07-.49a1,1,0,0,0-.55.28c-.28.37-.35.55-.21.55A.85.85,0,0,0,219,900.8Z"/><path d="M228.19,854.93a150.18,150.18,0,0,1,15.52.35l8.31.35q3,.07,3.88,0a1.71,1.71,0,0,0,1.11-.31.94.94,0,0,1,.9-.21q.48.07,4.16.21a21.93,21.93,0,0,1,4.09.35q.48.28.66,1.66t.17,5.54q0,3.81-.07,4.57c0,.51-.16.81-.35.9a.72.72,0,0,1-.8-.21,7.11,7.11,0,0,1-.87-1.59,19,19,0,0,0-1.32-2.56,15.88,15.88,0,0,0-3.43-3.5,16.4,16.4,0,0,0-4.33-2.67q-2.91-1-9.49-.76l-3.53.14-.14,3.74q-.14,3.81-.35,6.17t-.35,6.44l-.21,3.95,3.88.07q3.6,0,4.23-.07a3.81,3.81,0,0,0,1.46-.55,7.61,7.61,0,0,0,2.67-3,13.14,13.14,0,0,0,1.63-4.54,3.53,3.53,0,0,1,.38-1.28.61.61,0,0,1,.66-.31q.42.07.62.69t.17,11.4q0,10.78-.1,11.05a.59.59,0,0,1-.62.21.74.74,0,0,1-.59-.48,29.27,29.27,0,0,1-.66-3.53,37.09,37.09,0,0,0-.76-4.16,4.74,4.74,0,0,0-2.29-2.94,5.71,5.71,0,0,0-3.95-.73,18.28,18.28,0,0,1-3.95,0l-2.7-.14v.9q.28,4.71.28,4.92.21,4.23.28,11t.28,7.1q.28.24,6.17.1a56.52,56.52,0,0,0,6.37-.31,13.08,13.08,0,0,0,3.53-1.21,13.22,13.22,0,0,0,4.12-3.4,23.57,23.57,0,0,0,3.57-5.4q.55-1.11,1.25-2.56t1.59-.83q.35.28.21,1.66a5.36,5.36,0,0,0,0,1.28.61.61,0,0,0,.35.38.63.63,0,0,1,.45.66q0,.45-.45,3.43a35,35,0,0,0-.62,5.34,9.22,9.22,0,0,1-.35,2.56q-.21.28-8.94.07-14.62-.28-24.53-.07-6.17.14-7.27,0a4.09,4.09,0,0,1-1.11-.17.45.45,0,0,1-.21-.45v-.55l3.74-.14q3.74-.07,3.88-.28a21.62,21.62,0,0,0,.24-4.61q0-4.4-.17-8.77-.21-5.89-.14-13.09.14-17.25-.28-18.64a.53.53,0,0,0-.45-.49,22.11,22.11,0,0,0-2.39-.07,18.13,18.13,0,0,1-3.6-.24q-1-.24-1.18-.87c-.14-.6-.12-1,.07-1.18A3.11,3.11,0,0,1,228.19,854.93Zm9.49,9.15a4.52,4.52,0,0,0,0-1.11,4.15,4.15,0,0,0-.07.62Zm3.46,39c-.09-.32-.23-.44-.42-.35a.22.22,0,0,0-.14.21q0,.35.31.35C241.11,903.3,241.19,903.23,241.15,903.09Zm.28-45.59c0-.18-.1-.28-.31-.28s-.31,0-.31.14.09.25.28.35S241.42,857.73,241.42,857.5Zm24.25,43.31q.42-.48.07-.49a1,1,0,0,0-.55.28c-.28.37-.35.55-.21.55A.85.85,0,0,0,265.67,900.8Z"/><path d="M308.15,856.18a.64.64,0,0,1,.76-.07,10.59,10.59,0,0,0,3.53.14q6.65-.28,9.56.76a14.47,14.47,0,0,1,5.58,3.57,11.64,11.64,0,0,1,3.22,5.16,9,9,0,0,1-2.49,9.22,14.44,14.44,0,0,1-2.11,1.7,9.34,9.34,0,0,1-2.11,1.14q-.62.21-.69.42c0,.09,0,.14.07.14a.6.6,0,0,0,.28.07,6,6,0,0,1,1.84.69,11.32,11.32,0,0,1,2.25,1.39,11.16,11.16,0,0,1,1.87,1.73,12.46,12.46,0,0,1,2.36,4.23,38.64,38.64,0,0,1,1.18,6.93q.48,5.61,1.59,7.76a8,8,0,0,0,1.39,2c.55.58,1,.87,1.32.87a5.73,5.73,0,0,0,1.8-.69q2.08-.9,2.36-.28.28.83-2.77,1.94a9.41,9.41,0,0,1-1.8.52,18.16,18.16,0,0,1-2.7,0,21.28,21.28,0,0,1-2.7-.1,7,7,0,0,1-1.66-.59,7.22,7.22,0,0,1-3.85-3.67q-1.08-2.42-1.35-8.11-.21-4.78-.52-6.76a13.27,13.27,0,0,0-.94-3.36,6.48,6.48,0,0,0-1.49-1.66,6.71,6.71,0,0,0-2-1.18,7.37,7.37,0,0,0-2-.42q-1-.07-4.82,0l-3.6.07v6.1q0,6.38.14,12l.14,6h3.33l3.4.07V905l-11,.07q-11,0-11.23-.17c-.14-.12-.16-.33-.07-.66a.68.68,0,0,1,.66-.38q.52,0,3.15,0h3.67v-7.69q0-6.17.21-22,.28-14.41.07-15.17l-.07-.83h-3.26q-3.33-.14-3.53-.49a.56.56,0,0,1,.07-.69q.35-.35,6.51-.35T308.15,856.18Zm9.42,2.29a12.7,12.7,0,0,0-3.95-.55h-2.11a8.71,8.71,0,0,0-1.25.07,1.49,1.49,0,0,0-.59.17.25.25,0,0,0-.07.31q.21.69,0,11.64,0,8.11.21,8.18t4-.28a17.53,17.53,0,0,0,3.81-.52,7.1,7.1,0,0,0,2.22-1.77,10.81,10.81,0,0,0,2.63-5.06,11.48,11.48,0,0,0-.42-7.48A8,8,0,0,0,317.57,858.47Zm12.06,38.39c-.14-.32-.25-.48-.35-.48a.47.47,0,0,0-.07.31,2.2,2.2,0,0,0,.14.66c.09.28.18.53.28.76l.48.76-.21-.76A6.62,6.62,0,0,0,329.63,896.85Zm1.52-8.38a3.16,3.16,0,0,0-.35-1.18l-.28-.76.07.76a6.36,6.36,0,0,0,.35,1.18c.09.23.15.35.17.35S331.15,888.7,331.15,888.47Zm2.63,15.66c.14,0,.11-.16-.07-.35a.52.52,0,0,0-.62,0c-.19.09-.16.18.07.28A1,1,0,0,0,333.78,904.13Z"/><path d="M368,855c.14-.28.32-.39.55-.35s.7.62,1.28,1.73a24.75,24.75,0,0,1,1.56,3.81q.83,2.56,2.29,5.89a91.54,91.54,0,0,1,4.64,12q2.15,7.07,3.88,11.71,1.39,3.6,2.22,6.38a48.7,48.7,0,0,0,2.84,7.21l.28.62h2.7a25.65,25.65,0,0,1,3.53.14,3.25,3.25,0,0,1,.73.24c.11.07.17.22.17.45v.55l-6.93-.07q-6.44-.07-10.25-.21l-3.4-.14v-1.11l2.49-.07,2.56-.07-.42-1q-.35-1-1.52-5.27-1-3.74-1.49-5.3t-1.7-4.26l-1.18-2.77-5.68.14q-5.4.14-7.55.14h-1.94l-1.11,2.56a89.47,89.47,0,0,0-3.46,9A15.86,15.86,0,0,1,351,901.7l-.83,1.39,4,.07q4,.07,4.3.42.35.62-.55.76a61.79,61.79,0,0,1-7.07.21q-7.21.14-7.76,0a.73.73,0,0,1-.52-.49.68.68,0,0,1,.24-.69q.28-.28,2.91-.28h2.56l2-4.16a41.57,41.57,0,0,0,2.15-4.92,35,35,0,0,1,2.42-7.27q1-2.49,3.12-8.52a88.84,88.84,0,0,1,4.71-11.92,7.69,7.69,0,0,0,1.11-2.91q0-.62.42-.69t1.94-3.4a22.3,22.3,0,0,0,1.52-3.53A1.71,1.71,0,0,1,368,855Zm-1.59,14a9.52,9.52,0,0,1-1.11-2l-.35-1-.55,1.25q-.69,1.66-2.84,7.55-2.49,7-2.77,7.83l-.55,1.45,5.54-.07q2.84-.07,4.4-.14t2.46-.14a4.65,4.65,0,0,0,1.14-.17c.16-.07.22-.17.17-.31q-.49-1.59-2.25-6.51t-2.11-5.54A14,14,0,0,0,366.42,869Zm1-2.15a3.35,3.35,0,0,0-.83-1.73q-.21-.28-.21-.14a2.71,2.71,0,0,0,.55,1.18Zm7.27,5.13q-.9-2.22-1-2a1.86,1.86,0,0,0,.14.42q.14.42.48,1.32t.69,1.63q.35.73.42.66A10,10,0,0,0,374.73,872Zm7.48,30.63a.49.49,0,0,0-.35-.48q-.14-.07-.21,0s0,.14,0,.28q.07.48.42.42Q382.21,902.81,382.21,902.6Zm2.56-.35q-.21-.9-.48-.9c-.09,0-.14.12-.14.35a2.63,2.63,0,0,1-.42,1,2.2,2.2,0,0,0-.38.87q0,.14.66,0t.87-.31A1.9,1.9,0,0,0,384.78,902.26Z"/><path d="M404,855.9c.28-.28.67-.25,1.18.07a3.18,3.18,0,0,0,1.66,0,11.51,11.51,0,0,1,3.29-.1,5.16,5.16,0,0,1,2.46.59q1.87,1.6,5.27,8.31a45.39,45.39,0,0,0,3.6,6.24q3.81,4.92,5.58,7.52t4.68,7.59a44.09,44.09,0,0,0,2.36,3.81l.55.69V881.4q0-9.15.28-13,.76-8.66.48-10l-.14-.69-3.26-.14q-3.4-.21-4.23-.35t-.83-.69V856l8.31.07q8.24.07,8.52.49c.09.09.07.25-.07.49s-.34.3-.73.35-1.33.07-2.81.07h-3.4v2.63q0,2.56-.28,6.58-.76,8.31-.42,27.92.21,10.6-.07,11.29-.42,1-1.11.42a35.17,35.17,0,0,1-3.33-4.78q-2.63-4.16-7.34-11.16-7.55-11.15-10.12-15.14t-4.64-7.79q-1.87-3.46-2.77-4.85l-.83-1.32-.14,18.08q-.07,17.88.14,21.13l.21,3,3.95.07q3.88.07,4.09.42.42.62-.48.76-1.11.21-8.52.28-8.66.07-9-.24a.66.66,0,0,1-.17-.73q.14-.28,1.73-.28t4.3-.21c.65,0,1.13,0,1.45,0a5.6,5.6,0,0,0,.8-.1c.21,0,.32-.09.35-.14a.49.49,0,0,0,0-.21q-.21-.35-.21-22,0-15.45-.07-18.64a13,13,0,0,0-.35-3.67,1.07,1.07,0,0,1-.28-1c0-.14,0-.23-.21-.28s-1.22-.07-2.84-.07h-3.19l-.07-.48c0-.37,0-.6.14-.69a18.26,18.26,0,0,1,3.26-.14A17.18,17.18,0,0,0,404,855.9Z"/><path d="M472.7,854.59a.6.6,0,0,1,.62-.07,15.64,15.64,0,0,0,2.29.42,16.17,16.17,0,0,1,8.66,3.81l1.18,1.11,1-.28a3.4,3.4,0,0,0,1.21-.45,1.22,1.22,0,0,0,.38-.87.72.72,0,0,1,.59-.62q.52-.14.73-1.11a2.66,2.66,0,0,1,.35-1,.52.52,0,0,1,.55-.21q.35.07.42,1t.14,5.61q.21,6.72.35,7.34.28,1.32-.9,1.32-.9,0-.9-1.32a7.71,7.71,0,0,0-1-2.56,30.49,30.49,0,0,0-2.18-3.6,16.93,16.93,0,0,0-4.88-4.75,15.34,15.34,0,0,0-6.34-2l-2.08-.28-1.32.83a29.66,29.66,0,0,0-8.38,6.93,23.22,23.22,0,0,0-3.88,9.21,33.75,33.75,0,0,0-.42,6.41,36.17,36.17,0,0,0,.42,6.55q2,10.19,7.9,15.38a11.26,11.26,0,0,0,1.52,1.18,6.88,6.88,0,0,0,1.8.55q9,2.15,13-2.29a8.75,8.75,0,0,0,1.73-3.5,32,32,0,0,0,.76-6.06l.14-3.33h-1.94a26.47,26.47,0,0,0-3.88.28,22.57,22.57,0,0,1-2.88.24q-.59,0-.59-.45t.42-.69q1.8-.69,12-.69,7.76,0,8,.35a.61.61,0,0,1,.14.76q-.21.35-2.08.35h-1.87l.14,2.36q.07,2.36-.07,8-.14,4-.21,4.82t-.35,1q-.69.35-2.22-1.11a2,2,0,0,0-1-.62.54.54,0,0,1-.55-.35q-.28-.69-2.08-.38a12.93,12.93,0,0,0-3.95,1.49,19.36,19.36,0,0,1-3.33,1.42,15.92,15.92,0,0,1-3.19.52q-6,.41-13.17-3.33a27.11,27.11,0,0,1-7.9-6.44,18.09,18.09,0,0,1-1.77-2.29,18.56,18.56,0,0,1-1.07-2.29,25.45,25.45,0,0,1-1.87-8.31,36,36,0,0,1,.48-7.17,31.41,31.41,0,0,1,1.8-6.83,21,21,0,0,1,4.47-6.44,25.41,25.41,0,0,1,6.69-5.06,21,21,0,0,1,6-1.87A22.87,22.87,0,0,0,472.7,854.59Zm-12.82,11.85a2.15,2.15,0,0,0,.21-.38,1.49,1.49,0,0,1,.14-.28c0-.07,0-.1,0-.1a5.53,5.53,0,0,0-.73,1,4.9,4.9,0,0,0-.66,1.21c0,.12.11,0,.35-.38S459.61,866.9,459.89,866.44Zm26.4,33.05c0-.32,0-.49-.07-.49s-.14.23-.28.69-.19.72-.14.76.21,0,.35-.35A1.7,1.7,0,0,0,486.28,899.49Zm1.87-1.18a.93.93,0,0,0,.28-.83c-.09-.46-.23-.35-.42.35a.63.63,0,0,1-.07.28c0,.23-.06.36,0,.38S488,898.45,488.16,898.31Z"/><path d="M502.08,854.93a150.18,150.18,0,0,1,15.52.35l8.31.35q3,.07,3.88,0a1.71,1.71,0,0,0,1.11-.31.94.94,0,0,1,.9-.21q.48.07,4.16.21a21.93,21.93,0,0,1,4.09.35q.48.28.66,1.66t.17,5.54q0,3.81-.07,4.57c0,.51-.16.81-.35.9a.72.72,0,0,1-.8-.21,7.11,7.11,0,0,1-.87-1.59,19,19,0,0,0-1.32-2.56,15.88,15.88,0,0,0-3.43-3.5,16.4,16.4,0,0,0-4.33-2.67q-2.91-1-9.49-.76l-3.53.14-.14,3.74q-.14,3.81-.35,6.17t-.35,6.44l-.21,3.95,3.88.07q3.6,0,4.23-.07a3.81,3.81,0,0,0,1.46-.55,7.61,7.61,0,0,0,2.67-3,13.14,13.14,0,0,0,1.63-4.54,3.53,3.53,0,0,1,.38-1.28.61.61,0,0,1,.66-.31q.42.07.62.69t.17,11.4q0,10.78-.1,11.05a.59.59,0,0,1-.62.21.74.74,0,0,1-.59-.48,29.27,29.27,0,0,1-.66-3.53,37.09,37.09,0,0,0-.76-4.16,4.74,4.74,0,0,0-2.29-2.94,5.71,5.71,0,0,0-3.95-.73,18.28,18.28,0,0,1-3.95,0l-2.7-.14v.9q.28,4.71.28,4.92.21,4.23.28,11t.28,7.1q.28.24,6.17.1a56.52,56.52,0,0,0,6.37-.31,13.08,13.08,0,0,0,3.53-1.21,13.22,13.22,0,0,0,4.12-3.4,23.57,23.57,0,0,0,3.57-5.4q.55-1.11,1.25-2.56t1.59-.83q.35.28.21,1.66a5.36,5.36,0,0,0,0,1.28.61.61,0,0,0,.35.38.63.63,0,0,1,.45.66q0,.45-.45,3.43a35,35,0,0,0-.62,5.34,9.22,9.22,0,0,1-.35,2.56q-.21.28-8.94.07-14.62-.28-24.53-.07-6.17.14-7.27,0a4.09,4.09,0,0,1-1.11-.17.45.45,0,0,1-.21-.45v-.55l3.74-.14q3.74-.07,3.88-.28a21.62,21.62,0,0,0,.24-4.61q0-4.4-.17-8.77-.21-5.89-.14-13.09.14-17.25-.28-18.64a.53.53,0,0,0-.45-.49,22.11,22.11,0,0,0-2.39-.07,18.13,18.13,0,0,1-3.6-.24q-1-.24-1.18-.87c-.14-.6-.12-1,.07-1.18A3.11,3.11,0,0,1,502.08,854.93Zm9.49,9.15a4.52,4.52,0,0,0,0-1.11,4.15,4.15,0,0,0-.07.62Zm3.46,39c-.09-.32-.23-.44-.42-.35a.22.22,0,0,0-.14.21q0,.35.31.35C515,903.3,515.08,903.23,515,903.09Zm.28-45.59c0-.18-.1-.28-.31-.28s-.31,0-.31.14.09.25.28.35S515.32,857.73,515.32,857.5Zm24.25,43.31q.42-.48.07-.49a1,1,0,0,0-.55.28c-.28.37-.35.55-.21.55A.85.85,0,0,0,539.57,900.8Z"/><path d="M620.19,854.79a12.67,12.67,0,0,1,3.74.28,17.77,17.77,0,0,1,7,2.81,30.17,30.17,0,0,1,6.76,5.58q7.21,8.25,6.93,17.67a16.15,16.15,0,0,1-.28,2.77q-.21.9-1.18,3.81a56.91,56.91,0,0,1-2.11,5.33,26.08,26.08,0,0,1-2.18,3.67,29.43,29.43,0,0,1-6.17,5.79,21.82,21.82,0,0,1-6.72,3.57,8.81,8.81,0,0,0-2,.69.84.84,0,0,1-1,.07,6.28,6.28,0,0,0-2.42-.28,22.27,22.27,0,0,1-16.84-7.07A25.27,25.27,0,0,1,597,885.21q-.42-2.22-.48-2.56a15.19,15.19,0,0,1,.24-4.09,45.19,45.19,0,0,1,.87-5.27,25.45,25.45,0,0,1,6.3-11.5,22.61,22.61,0,0,1,13.93-6.58A8.79,8.79,0,0,0,620.19,854.79Zm7.83,3.5a12,12,0,0,0-2.08-1.21,7.69,7.69,0,0,0-2.08-.48,16.46,16.46,0,0,0-3,0,21.47,21.47,0,0,0-3.12.31,14,14,0,0,0-3,1.77,30.62,30.62,0,0,0-3.64,2.81,18.73,18.73,0,0,0-4.92,7.86A26.91,26.91,0,0,0,605,879.88q.21,3,.21,4.37a28.33,28.33,0,0,0,1,6,34.51,34.51,0,0,0,2.15,6.51,22,22,0,0,0,4.57,6,7.39,7.39,0,0,0,2.36,1.66,17.9,17.9,0,0,0,6.79.76A9.77,9.77,0,0,0,624,905a8.35,8.35,0,0,0,1.56-.83,22.84,22.84,0,0,0,2.84-2.29q3.19-3.26,5.3-11.81a49.37,49.37,0,0,0,1.49-16q-.83-9.42-5.33-14.34A10.55,10.55,0,0,0,628,858.29Zm10,29.9c.09-.46.06-.69-.1-.69s-.24.21-.24.62c0,.23,0,.6-.07,1.11l.07.14A8.82,8.82,0,0,0,638.06,888.19Z"/><path d="M661.69,856.18a.64.64,0,0,1,.76-.07,10.6,10.6,0,0,0,3.53.14q6.65-.28,9.56.76a14.47,14.47,0,0,1,5.58,3.57,11.64,11.64,0,0,1,3.22,5.16,9,9,0,0,1-2.49,9.22,14.47,14.47,0,0,1-2.11,1.7,9.35,9.35,0,0,1-2.11,1.14q-.62.21-.69.42c0,.09,0,.14.07.14a.6.6,0,0,0,.28.07,6,6,0,0,1,1.84.69,11.31,11.31,0,0,1,2.25,1.39,11.14,11.14,0,0,1,1.87,1.73,12.46,12.46,0,0,1,2.36,4.23,38.64,38.64,0,0,1,1.18,6.93q.48,5.61,1.59,7.76a8,8,0,0,0,1.39,2c.55.58,1,.87,1.32.87a5.73,5.73,0,0,0,1.8-.69q2.08-.9,2.36-.28.28.83-2.77,1.94a9.4,9.4,0,0,1-1.8.52,18.17,18.17,0,0,1-2.7,0,21.28,21.28,0,0,1-2.7-.1,7,7,0,0,1-1.66-.59,7.22,7.22,0,0,1-3.85-3.67q-1.08-2.42-1.35-8.11-.21-4.78-.52-6.76a13.27,13.27,0,0,0-.94-3.36,6.48,6.48,0,0,0-1.49-1.66,6.7,6.7,0,0,0-2-1.18,7.37,7.37,0,0,0-2-.42q-1-.07-4.82,0l-3.6.07v6.1q0,6.38.14,12l.14,6h3.33l3.4.07V905l-11,.07q-11,0-11.22-.17c-.14-.12-.16-.33-.07-.66a.68.68,0,0,1,.66-.38q.52,0,3.15,0h3.67v-7.69q0-6.17.21-22,.28-14.41.07-15.17l-.07-.83H652.2q-3.33-.14-3.53-.49a.56.56,0,0,1,.07-.69q.35-.35,6.51-.35T661.69,856.18Zm9.42,2.29a12.7,12.7,0,0,0-3.95-.55h-2.11a8.71,8.71,0,0,0-1.25.07,1.49,1.49,0,0,0-.59.17.25.25,0,0,0-.07.31q.21.69,0,11.64,0,8.11.21,8.18t4-.28a17.51,17.51,0,0,0,3.81-.52,7.1,7.1,0,0,0,2.22-1.77,10.82,10.82,0,0,0,2.63-5.06,11.49,11.49,0,0,0-.42-7.48A8,8,0,0,0,671.11,858.47Zm12.06,38.39c-.14-.32-.25-.48-.35-.48a.47.47,0,0,0-.07.31,2.21,2.21,0,0,0,.14.66q.14.42.28.76l.49.76-.21-.76A6.69,6.69,0,0,0,683.17,896.85Zm1.52-8.38a3.16,3.16,0,0,0-.35-1.18l-.28-.76.07.76a6.4,6.4,0,0,0,.35,1.18c.09.23.15.35.17.35S684.7,888.7,684.7,888.47Zm2.63,15.66c.14,0,.11-.16-.07-.35a.52.52,0,0,0-.62,0c-.18.09-.16.18.07.28A1,1,0,0,0,687.33,904.13Z"/><path d="M724.05,854.59a.6.6,0,0,1,.62-.07,15.62,15.62,0,0,0,2.29.42,16.18,16.18,0,0,1,8.66,3.81l1.18,1.11,1-.28a3.41,3.41,0,0,0,1.21-.45,1.23,1.23,0,0,0,.38-.87.72.72,0,0,1,.59-.62q.52-.14.73-1.11a2.65,2.65,0,0,1,.35-1,.52.52,0,0,1,.55-.21q.35.07.42,1t.14,5.61q.21,6.72.35,7.34.28,1.32-.9,1.32-.9,0-.9-1.32a7.72,7.72,0,0,0-1-2.56,30.49,30.49,0,0,0-2.18-3.6,16.94,16.94,0,0,0-4.88-4.75,15.34,15.34,0,0,0-6.34-2l-2.08-.28-1.32.83a29.66,29.66,0,0,0-8.38,6.93,23.24,23.24,0,0,0-3.88,9.21,33.69,33.69,0,0,0-.42,6.41,36.11,36.11,0,0,0,.42,6.55q2,10.19,7.9,15.38a11.27,11.27,0,0,0,1.52,1.18,6.89,6.89,0,0,0,1.8.55q9,2.15,13-2.29a8.74,8.74,0,0,0,1.73-3.5,32,32,0,0,0,.76-6.06l.14-3.33h-1.94a26.48,26.48,0,0,0-3.88.28,22.56,22.56,0,0,1-2.87.24c-.39,0-.59-.17-.59-.45s0-.55.42-.69q1.8-.69,12-.69,7.76,0,8,.35a.61.61,0,0,1,.14.76q-.21.35-2.08.35h-1.87l.14,2.36q.07,2.36-.07,8-.14,4-.21,4.82t-.35,1q-.69.35-2.22-1.11a2,2,0,0,0-1-.62.54.54,0,0,1-.55-.35q-.28-.69-2.08-.38a12.93,12.93,0,0,0-4,1.49,19.34,19.34,0,0,1-3.33,1.42,15.92,15.92,0,0,1-3.19.52q-6,.41-13.17-3.33a27.11,27.11,0,0,1-7.9-6.44,18.22,18.22,0,0,1-1.77-2.29,18.44,18.44,0,0,1-1.07-2.29,25.42,25.42,0,0,1-1.87-8.31,36,36,0,0,1,.49-7.17,31.42,31.42,0,0,1,1.8-6.83,21,21,0,0,1,4.47-6.44,25.42,25.42,0,0,1,6.69-5.06,21,21,0,0,1,6-1.87A22.92,22.92,0,0,0,724.05,854.59Zm-12.82,11.85a2.22,2.22,0,0,0,.21-.38,1.49,1.49,0,0,1,.14-.28c0-.07,0-.1,0-.1a5.55,5.55,0,0,0-.73,1,4.9,4.9,0,0,0-.66,1.21q0,.17.35-.38T711.23,866.44Zm26.4,33.05c0-.32,0-.49-.07-.49s-.14.23-.28.69-.18.72-.14.76.21,0,.35-.35A1.71,1.71,0,0,0,737.63,899.49Zm1.87-1.18a.93.93,0,0,0,.28-.83c-.09-.46-.23-.35-.42.35a.62.62,0,0,1-.07.28q-.07.35,0,.38S739.36,898.45,739.5,898.31Z"/><path d="M775.25,855c.14-.28.32-.39.55-.35s.7.62,1.28,1.73a24.7,24.7,0,0,1,1.56,3.81q.83,2.56,2.29,5.89a91.41,91.41,0,0,1,4.64,12q2.15,7.07,3.88,11.71,1.39,3.6,2.22,6.38a48.7,48.7,0,0,0,2.84,7.21l.28.62h2.7a25.64,25.64,0,0,1,3.53.14,3.23,3.23,0,0,1,.73.24c.12.07.17.22.17.45v.55l-6.93-.07q-6.44-.07-10.25-.21l-3.4-.14v-1.11l2.49-.07,2.56-.07-.42-1q-.35-1-1.52-5.27-1-3.74-1.49-5.3t-1.7-4.26l-1.18-2.77-5.68.14q-5.4.14-7.55.14h-1.94l-1.11,2.56a89.8,89.8,0,0,0-3.46,9,15.86,15.86,0,0,1-2.08,4.78l-.83,1.39,4,.07q4,.07,4.3.42.35.62-.55.76a61.81,61.81,0,0,1-7.07.21q-7.21.14-7.76,0a.73.73,0,0,1-.52-.49.68.68,0,0,1,.24-.69q.28-.28,2.91-.28h2.56l2-4.16a41.43,41.43,0,0,0,2.15-4.92,35,35,0,0,1,2.43-7.27q1-2.49,3.12-8.52A89,89,0,0,1,770,866.3a7.68,7.68,0,0,0,1.11-2.91q0-.62.42-.69t1.94-3.4a22.3,22.3,0,0,0,1.52-3.53A1.71,1.71,0,0,1,775.25,855Zm-1.59,14a9.52,9.52,0,0,1-1.11-2l-.35-1-.55,1.25q-.69,1.66-2.84,7.55-2.49,7-2.77,7.83l-.55,1.45L771,884q2.84-.07,4.4-.14t2.46-.14a4.64,4.64,0,0,0,1.14-.17q.24-.1.17-.31-.49-1.59-2.25-6.51t-2.11-5.54A14.12,14.12,0,0,0,773.66,869Zm1-2.15a3.35,3.35,0,0,0-.83-1.73q-.21-.28-.21-.14a2.71,2.71,0,0,0,.55,1.18ZM782,872q-.9-2.22-1-2a1.89,1.89,0,0,0,.14.42q.14.42.49,1.32t.69,1.63q.35.73.42.66A10,10,0,0,0,782,872Zm7.48,30.63a.49.49,0,0,0-.35-.48q-.14-.07-.21,0s0,.14,0,.28q.07.48.42.42Q789.46,902.81,789.46,902.6Zm2.56-.35c-.14-.6-.3-.9-.49-.9s-.14.12-.14.35a2.62,2.62,0,0,1-.42,1,2.22,2.22,0,0,0-.38.87q0,.14.66,0t.87-.31A1.89,1.89,0,0,0,792,902.26Z"/><path d="M811.28,855.9c.28-.28.67-.25,1.18.07a3.17,3.17,0,0,0,1.66,0,11.52,11.52,0,0,1,3.29-.1,5.15,5.15,0,0,1,2.46.59q1.87,1.6,5.27,8.31a45.4,45.4,0,0,0,3.6,6.24q3.81,4.92,5.58,7.52t4.68,7.59a44.09,44.09,0,0,0,2.36,3.81l.55.69V881.4q0-9.15.28-13,.76-8.66.48-10l-.14-.69-3.26-.14q-3.4-.21-4.23-.35t-.83-.69V856l8.31.07q8.25.07,8.52.49c.09.09.07.25-.07.49s-.33.3-.73.35-1.33.07-2.81.07h-3.4v2.63q0,2.56-.28,6.58-.76,8.31-.42,27.92.21,10.6-.07,11.29-.42,1-1.11.42a35.1,35.1,0,0,1-3.33-4.78q-2.63-4.16-7.34-11.16Q824,879.19,821.4,875.2t-4.64-7.79q-1.87-3.46-2.77-4.85l-.83-1.32L813,879.32q-.07,17.88.14,21.13l.21,3,3.95.07q3.88.07,4.09.42.42.62-.48.76-1.11.21-8.52.28-8.66.07-9-.24a.66.66,0,0,1-.17-.73q.14-.28,1.73-.28t4.3-.21c.65,0,1.13,0,1.46,0a5.62,5.62,0,0,0,.8-.1c.21,0,.32-.09.35-.14a.47.47,0,0,0,0-.21q-.21-.35-.21-22,0-15.45-.07-18.64a13,13,0,0,0-.35-3.67,1.07,1.07,0,0,1-.28-1c0-.14,0-.23-.21-.28s-1.22-.07-2.84-.07h-3.19l-.07-.48c0-.37,0-.6.14-.69a18.27,18.27,0,0,1,3.26-.14A17.17,17.17,0,0,0,811.28,855.9Z"/><path d="M868.24,856a.68.68,0,0,1,.62-.35.73.73,0,0,1,.62.28q.14.28,2.63.07,2.22-.14,4-.07a4.45,4.45,0,0,1,1.32.1.45.45,0,0,1,.21.45.48.48,0,0,1-.31.52,15.27,15.27,0,0,1-2.18.24q-2.29.14-3.88.28l-1.32.07.14,17.25q.07,19,.07,21.2-.07,3.95.07,5.54l.21,1.66h3.4q3.39,0,3.67.35a.56.56,0,0,1,.14.62q-.14.35-5.27.35t-5.47.31a.89.89,0,0,1-.69.31.54.54,0,0,1-.55-.35c-.09-.14-.43-.21-1-.21s-2,0-4.26.14q-6.51.28-6.65.07s0-.19,0-.42A.66.66,0,0,1,854,904a5.17,5.17,0,0,1,1.11-.24q1.11-.14,4.16-.28l2.84-.14v-5.13q0-4,.14-16.08.21-19.19-.49-23.14l-.14-.76-2.7-.07q-2.56-.07-3.81-.21a3.7,3.7,0,0,1-.94-.24.73.73,0,0,1-.24-.52q-.07-.48.24-.62a3.37,3.37,0,0,1,1.49.07q1.18.14,4.5.14t5.47-.14Q868,856.39,868.24,856Zm-4,20.79c.09-.09.11-.37.07-.83l-.07-.69-.14.76Q864,876.9,864.22,876.83Zm3.12-18.43c0-.37-.09-.55-.28-.55s-.32.16-.14.49S867.34,858.67,867.34,858.4Z"/><path d="M906.76,855.21a21.78,21.78,0,0,1,8.18.62q4.29,1.11,5.68,2.91.69.83.83.83t.76-.59a2.13,2.13,0,0,0,.62-1.63,2.72,2.72,0,0,1,.1-1,.39.39,0,0,1,.38-.21,1.08,1.08,0,0,1,.9.42l.55.42-.21,6.65q-.07,4.92-.21,5.92t-.62,1q-.42,0-.66-.62a16.75,16.75,0,0,1-.59-2.63,17.5,17.5,0,0,0-2.15-6.69,8.05,8.05,0,0,0-4.3-3,23.43,23.43,0,0,0-7.69-1,21.22,21.22,0,0,0-2.32.17,6.87,6.87,0,0,0-1.77.73,23.63,23.63,0,0,0-5.54,4,19.75,19.75,0,0,0-3.95,5.34q-2.08,4.09-1.8,13.09.21,9.29,3,15.31a15.77,15.77,0,0,0,1.63,2.6q.94,1.21,3,3.43a15.48,15.48,0,0,0,5.06,2.77,6.93,6.93,0,0,0,1.63.49,14.2,14.2,0,0,0,2,0,13.79,13.79,0,0,0,5.37-1.25,16.7,16.7,0,0,0,4.68-3.53,18.23,18.23,0,0,0,3.12-3.91,9.89,9.89,0,0,0,1.18-3.78q.28-2.15,1-2.15a.64.64,0,0,1,.69.45,4,4,0,0,1-.14,1.7,35.85,35.85,0,0,0-.35,5,12.79,12.79,0,0,0,.21,3.85,2.55,2.55,0,0,1,.24,1.35q0,.87-.31,1.07a1.22,1.22,0,0,0-.35,1,1.47,1.47,0,0,1-.35,1.07.62.62,0,0,1-.8.1q-.45-.24-.31-1.28a2,2,0,0,0-.35-1.59c-.18-.32-.36-.51-.52-.55a2.79,2.79,0,0,0-1,.07,21.24,21.24,0,0,0-5.4,2.22,15.73,15.73,0,0,1-8.31,1.59,24.15,24.15,0,0,1-9.42-2.63,29,29,0,0,1-8.8-6.69,21.65,21.65,0,0,1-4.92-8.7,22.86,22.86,0,0,1-.42-5.37,33.82,33.82,0,0,1,.42-6.06q2.36-12.75,12.47-18.22A26,26,0,0,1,906.76,855.21ZM885.7,885.7a3.93,3.93,0,0,0,0-1q-.07-.28-.07,0a1.45,1.45,0,0,0-.07.55l.07.62Zm1.11-12.06a2.72,2.72,0,0,0,.42-1.39q-.07-.28-.21.14a2.67,2.67,0,0,0-.28.62,4.77,4.77,0,0,0-.35,1.39S886.57,874.2,886.81,873.64Z"/><circle cx="570.59" cy="881.07" r="8.5"/><path d="M499,488.29c.41-1.16.75-2.11,1-2.86s.54-1.53.82-2.35a23.37,23.37,0,0,0-6-1.12,28.73,28.73,0,0,0-5.41.31,26,26,0,0,0-11.44,5A58.7,58.7,0,0,0,460.39,507a85.31,85.31,0,0,0-6.13,12.87A95.05,95.05,0,0,0,450.78,531a28,28,0,0,0-.41,12.56,15.49,15.49,0,0,0,6.23-3.58l5.41-5q6.13-5.52,11-10.52t9-9.7q2.86-2.86,5.41-5.72t5-5.72h-.2l1.53-1.94c.48-.61,1-1.26,1.53-1.94q1.23-4.08,2.15-6.74T499,488.29Z"/><path d="M537,596.06q-1.23,2-2.86,4.9a64.54,64.54,0,0,0-3.06,6.13,48.21,48.21,0,0,0-2.35,6.64,20.33,20.33,0,0,0-.71,6.64,14.58,14.58,0,0,0,.82,4.9c.14.27.44.13.92-.41s1.09-1.23,1.84-2a22.49,22.49,0,0,0,2.15-2.76l1.84-2.76a129.74,129.74,0,0,0,11.54-19.2q5-10.22,9.7-21.66-5.72,4.49-10.73,9.3A81.09,81.09,0,0,0,537,596.06Z"/><path d="M447.72,596.06q-1.23,2-2.86,4.9a64.54,64.54,0,0,0-3.06,6.13,48.21,48.21,0,0,0-2.35,6.64,20.33,20.33,0,0,0-.71,6.64,14.58,14.58,0,0,0,.82,4.9c.14.27.44.13.92-.41s1.09-1.23,1.84-2a22.49,22.49,0,0,0,2.15-2.76l1.84-2.76a129.74,129.74,0,0,0,11.54-19.2q5-10.22,9.7-21.66-5.72,4.49-10.73,9.3A81.09,81.09,0,0,0,447.72,596.06Z"/><path d="M645.28,545.4l-.2.2a6.23,6.23,0,0,1-.1-1.94,16.12,16.12,0,0,0,.1-1.61q-.2-5.48-.61-11.05t-.82-11.34q-.41-5.31-.92-10.62t-.92-10.62L640,501.68h.2q-.41.82-1.23,2.55T637,508q-1.12,2-2.15,3.78a29.63,29.63,0,0,1-1.63,2.55,7.81,7.81,0,0,1-1.84,1.84h0a99.43,99.43,0,0,1-15.61,17.34l3.76,3.91q2.25,2.25,4.49,4.8a27.81,27.81,0,0,0,4.49,4.19v-.2q1.43,1,3.68,2.76a57.13,57.13,0,0,0,4.7,3.27,46.11,46.11,0,0,0,4.6,2.55,4.73,4.73,0,0,0,3.37.61q1-.81.92-4A56.13,56.13,0,0,0,645.28,545.4Z"/><path d="M926,493c-4.79-40.43-25.11-72.63-53-100.81-5.93-6-12.59-11.25-18.51-17.25-53.59-54.29-120-59.15-188.14-42.81-38,9.12-70,33.09-88.67,71.15-25.14,51.36-88.1,56.13-120.55,9.47-14.87-21.37-28.18-43.84-42-66-16.71-26.82-39.2-48.16-64.55-66.34-8.64-6.19-19.81-8.86-31.56-13.88,5.6-3.63,11.19-6.15,15.3-10.19,5.21-5.1,10.36-10.94,13.17-17.48,1.14-2.65-3.57-8.27-6.34-12-2.63-3.55-6.19-6.4-9.35-9.56h-2.3l-8.68,11.62L313,220.15,306.53,232l-3.62-2,1.28-12.66h-4.6c-3.45,5-7,9.91-10.32,15-3.65,5.6-7.31,8.79-11.83,0l-7.06,12.93c-1.54-2.77-2.24-4.29-3.17-5.66-2.09-3.1-4.29-6.13-6.45-9.19-2.81,3.55-8,7.15-8,10.65.23,12.16-4.89,21.17-13,29.19v13.81l12.84,16.41L243.28,319l2,1.19,12.82-7.38c-.74,3.36-.89,5.21-1.55,6.86-5.09,12.69-3.25,23.86,6.51,33.81,6.56,6.68,8.52,14,2.68,22.7-15,22.33-19.16,47.46-16.69,73.64,3,31.83,13.09,61.85,31.1,88,9.8,14.25,25,24.66,36.78,37.69,34.64,38.3,76.49,67,120.72,92.78,10.22,6,19.7,13.25,29.21,20.34,8.77,6.54,12.95,15.88,10,26.35-3.73,13.16-7.76,26.7-14.64,38.3-3.21,5.41-13.18,7.83-20.56,9.51-9.35,2.12-19.18,2.11-28.8,3l.12,3.45,28.26,2.53.1,2.1-47,4.78.23,5h68.32l.77,5.12c-4.88,1.38-9.69,3.62-14.64,4-14.89,1.09-29.86,1-44.74,2.28-7.06.59-14,3.08-20.93,4.71l.22,2.88h61.34l1,2.66L417,832h6.91c13.68-5.76,27.66-10.9,40.91-17.52,7.46-3.72,13.7-9.86,22.7-16.56L502,803.78l1.84-1.62-18.88-25.52,2.44-2.49,19.39,3.74,1.29-2c-3-3.24-5.46-7.15-9-9.57-8.19-5.63-8.26-11.17-4.55-20.39,8.9-22.14,19.63-44.53,10.36-67,8.24-4.75,15-9.31,22.26-12.56a23.86,23.86,0,0,1,13.1-1.45c7.06,1.23,11.22-1.49,15.24-6.81,3.29-4.36,5.25-12.66,14.42-6.45,1.39.94,7.5-5.08,12.07-8.33l10,21.42,6.22-12.17,18.6,32.6c15.56-20.1,4.58-41.29,11.2-60.08l1.48,21.23,2.6.38,4.58-33.74,2.42-.45,3.28,16.06c18-9.94,9.78-28.53,16.31-42.9L668.09,633c22.51-23.85,10.52-50.87,9.75-76.48l2.78-.62,10.23,40.52,4.56,0,6.12-51.75,15.33,28.1,2.66-36.66c14.08,10.61,13.12,27.12,17.38,41.26l3.58-.4V516.59l4.08-.75,6.91,17,2.22-.14V485.82c10.56,11.12,18.93,21.49,19.93,36.14.93,13.65,2,27.29,3.07,41.09,14.26-14.35,14.38-46.52.53-93.71,32.43,24.76,44.78,59,43.59,121.8,9.68-4.82,12.65-13.56,13.28-22.44,2.85-40,.19-79.07-22.49-114-10.62-16.37-21.71-32.42-31.73-49.47,32.33,13.76,55.87,37.25,73.25,67.26,18.13,31.3,19,64.74,10.43,99.35,35.48-20.17,44.84-90.66-3.67-158.11,26.69,12.45,52.88,98.19,49.54,163.41,14.7-10.84,16.25-27.29,21-42.12V516.6C928.91,508.72,927,500.9,926,493Zm-264.7-25.3q-.31-.1-.31.31a3.12,3.12,0,0,0-.41,1.23,50,50,0,0,0-1.84,6.44q-.61,3-1.23,6.44-1,11.44-1,22.78t.2,21.76l.2,6.13.2,4.09q.41,8.38,0,16.34v1.23q0,2-.2,4.19a13.53,13.53,0,0,1-.92,3.88,6.4,6.4,0,0,1-2.35,2.86,7.86,7.86,0,0,1-4.49,1.12q-4.7,0-11.54-2.86a98.48,98.48,0,0,1-13.79-7.15,95.46,95.46,0,0,1-12.87-9.5,52.75,52.75,0,0,1-5.26-5.26q-9.65,7.39-20.69,15-2,1.43-3.88,2.76a7.82,7.82,0,0,0-2.66,3.17q-1.64,4.08-3.17,8.58t-3,9.19q-2.66,8-4.8,14t-4.09,10.73q-1.94,4.7-3.78,8.48a77,77,0,0,1-3.88,7q-1.64,2.86-3.68,6a44,44,0,0,1-4.7,6,22.48,22.48,0,0,1-6.23,4.7,17.39,17.39,0,0,1-8.07,1.84q-6.33,0-10-2.86a19,19,0,0,1-7-12.87,44,44,0,0,1-.2-5.92,39,39,0,0,1,.51-5.21q.41-2.35.82-4a63.79,63.79,0,0,1,7.66-17,86.29,86.29,0,0,1,11.54-14.3,133.55,133.55,0,0,1,20.84-17.16l6.54-4.9a14.65,14.65,0,0,0,4.9-7.15q1.62-4.67,3-9.54a156.93,156.93,0,0,1-10.6,11.78,83.83,83.83,0,0,1-7.56,6.23,15.75,15.75,0,0,1-10.22,3q-6.54-.2-10.32-3a16.52,16.52,0,0,1-5.62-7.25,24.59,24.59,0,0,1-1.84-10.73c0-1.43.15-2.84.28-4.24-1.25,1.09-2.53,2.17-3.85,3.22q-12,9.5-26.25,19.31-2,1.43-3.88,2.76a7.82,7.82,0,0,0-2.66,3.17q-1.64,4.08-3.17,8.58t-3,9.19q-2.66,8-4.8,14t-4.09,10.73q-1.94,4.7-3.78,8.48a77,77,0,0,1-3.88,7q-1.64,2.86-3.68,6a44,44,0,0,1-4.7,6,22.48,22.48,0,0,1-6.23,4.7,17.39,17.39,0,0,1-8.07,1.84q-6.33,0-10-2.86a19,19,0,0,1-7-12.87,44,44,0,0,1-.2-5.92,39,39,0,0,1,.51-5.21q.41-2.35.82-4a63.79,63.79,0,0,1,7.66-17,86.29,86.29,0,0,1,11.54-14.3,133.55,133.55,0,0,1,20.84-17.16l6.54-4.9a14.65,14.65,0,0,0,4.9-7.15q1.62-4.67,3-9.54a156.93,156.93,0,0,1-10.6,11.78,83.83,83.83,0,0,1-7.56,6.23,15.75,15.75,0,0,1-10.22,3q-6.54-.2-10.32-3a16.52,16.52,0,0,1-5.62-7.25,23.39,23.39,0,0,1-1.82-8.43q-3.16,4.06-5.94,7.2-3.06,3.27-6.74,6.74a62.89,62.89,0,0,1-8.07,6.44,46.76,46.76,0,0,1-9.5,4.9,30.26,30.26,0,0,1-10.83,1.94,36.37,36.37,0,0,1-15.32-3.37,53.2,53.2,0,0,1-13.48-8.89,72.68,72.68,0,0,1-10.93-12.36,77.45,77.45,0,0,1-7.87-14,51.74,51.74,0,0,1-2.55-7.56,56.63,56.63,0,0,1-1.33-7.15,38.62,38.62,0,0,1,1.74-15.32,33.31,33.31,0,0,1,7-12.05A36.38,36.38,0,0,1,364,478.9a45.5,45.5,0,0,1,14.91-4,14.2,14.2,0,0,1-2.25-4.29,25.07,25.07,0,0,1-1.94-7.87,30.68,30.68,0,0,1,.31-7.56,38.94,38.94,0,0,1,4.49-12.56h-.2a44.07,44.07,0,0,1,10.21-12.56,33.34,33.34,0,0,1,15.12-7.25,26.69,26.69,0,0,1,3.47-.61,37.73,37.73,0,0,1,4.09-.2,33.29,33.29,0,0,1,10.11,1.74,32.76,32.76,0,0,1,10.32,5.62A29.08,29.08,0,0,1,441.39,441a27.3,27.3,0,0,1,2.25,12.46,18.56,18.56,0,0,1-6.84,14.71,10.3,10.3,0,0,1-5.62,2.45,12.43,12.43,0,0,1-4.39-.41,16.63,16.63,0,0,1-4.39-1.84,11.8,11.8,0,0,1-3.47-3.17,7.52,7.52,0,0,1-1.43-4.6v.2a3.27,3.27,0,0,1,1.74-3.37q1.94-1.12,4.19-2.15v-.41a11.68,11.68,0,0,0,4.49-4.6,13.11,13.11,0,0,0,1.63-6.44,10.12,10.12,0,0,0-5-8.48,14.94,14.94,0,0,0-9.7-2.15,19.76,19.76,0,0,0-7.66,2.25,23,23,0,0,0-5.92,4.6,33.68,33.68,0,0,0-4.49,6.13,45,45,0,0,0-3.17,6.64,24.53,24.53,0,0,0-1.12,3.06,31.49,31.49,0,0,0-1.12,5.11,40.93,40.93,0,0,0-.41,5.82,13.9,13.9,0,0,0,1,5.41,5,5,0,0,0,1.12,1.74,3.43,3.43,0,0,0,1.94.92l3.47.61q2.45.41,5.41.82a29.37,29.37,0,0,1,5.82,1.43,22,22,0,0,1,5.31,2.76,12.23,12.23,0,0,1,3.88,4.6q1.84,4.09.31,5.72t-5,1.63a21.85,21.85,0,0,1-5.31-.61q-2.45-.61-4.49-1l-3.68-.82a62.1,62.1,0,0,0-8.79-.61,54.09,54.09,0,0,0-19,3.27,26.32,26.32,0,0,0-8.79,6,26,26,0,0,0-5.82,9.19,32.67,32.67,0,0,0,.72,24,43.81,43.81,0,0,0,4.39,7.56,40.37,40.37,0,0,0,6.23,6.95,32.28,32.28,0,0,0,7.56,5,19.29,19.29,0,0,0,8.38,1.94A29.16,29.16,0,0,0,397,551a65.68,65.68,0,0,0,10.62-5.62,81.1,81.1,0,0,0,9.19-6.95q4.19-3.68,7-6.13a155.74,155.74,0,0,0,12.05-13.18q3.27-4,6.11-7.56c.23-.61.45-1.12.63-1.53q2.45-6.13,5.41-12.16A71.24,71.24,0,0,1,455,486.56a61.3,61.3,0,0,1,9.09-9.7,41.88,41.88,0,0,1,11.65-7,40.3,40.3,0,0,1,6.33-1.94,32.48,32.48,0,0,1,6.95-.72A39.31,39.31,0,0,1,503.7,470a26.5,26.5,0,0,0,2.86,1.43,8.12,8.12,0,0,1,1.84,1,7.16,7.16,0,0,1,4.6.31,16.29,16.29,0,0,1,5.21,3.78,9.59,9.59,0,0,1,2.35,4.8,10,10,0,0,1-.41,4.49,18.38,18.38,0,0,1-2,4.19,32.86,32.86,0,0,1-2.55,3.47l-1.43,1.84A157.1,157.1,0,0,0,503.9,517q-4.29,11.24-8.17,23.9,6.33-4.08,12.36-8.38t11.75-9.19q2.65-2.25,5.31-4.7a45.53,45.53,0,0,0,4.9-5.31c.36-.41.69-.82,1-1.23.32-.84.59-1.52.82-2q2.45-6.13,5.41-12.16a71.24,71.24,0,0,1,6.95-11.34,61.3,61.3,0,0,1,9.09-9.7,41.88,41.88,0,0,1,11.65-7,40.3,40.3,0,0,1,6.33-1.94,32.48,32.48,0,0,1,6.95-.72A39.31,39.31,0,0,1,593,470a26.5,26.5,0,0,0,2.86,1.43,8.12,8.12,0,0,1,1.84,1,7.16,7.16,0,0,1,4.6.31,16.29,16.29,0,0,1,5.21,3.78,9.59,9.59,0,0,1,2.35,4.8,10,10,0,0,1-.41,4.49,18.38,18.38,0,0,1-2,4.19,32.86,32.86,0,0,1-2.55,3.47l-1.43,1.84A157.1,157.1,0,0,0,593.18,517q-4.29,11.24-8.17,23.9,6.33-4.08,12.36-8.38,1.63-1.16,3.24-2.37l0-.08a4,4,0,0,1,3.08-2.31q2.73-2.15,5.4-4.43t5.31-4.7a45.53,45.53,0,0,0,4.9-5.31,35.73,35.73,0,0,0,2.55-3.27q1.12-1.63,2.55-3.47l.05.05a29.23,29.23,0,0,1,1.58-3.32l2.86-5.31a14.18,14.18,0,0,1,1.33-2.76q.92-1.53,1.53-2.76,2.25-5.1,3.88-10.11t3.47-10.32l1.43-4.7.82-2.66q1-2.25,2-4.8a6.29,6.29,0,0,1,3.27-3.58,7.7,7.7,0,0,1,4.49-.31,12.1,12.1,0,0,1,4.6,2,15.71,15.71,0,0,1,3.68,3.68,9.12,9.12,0,0,1,1.74,4.6Q661.62,467.76,661.31,467.66Z"/><path d="M588.28,488.29c.41-1.16.75-2.11,1-2.86s.54-1.53.82-2.35a23.37,23.37,0,0,0-6-1.12,28.73,28.73,0,0,0-5.41.31,26,26,0,0,0-11.44,5A58.7,58.7,0,0,0,549.66,507a85.31,85.31,0,0,0-6.13,12.87A95.05,95.05,0,0,0,540.06,531a28,28,0,0,0-.41,12.56,15.49,15.49,0,0,0,6.23-3.58l5.41-5q6.13-5.52,11-10.52t9-9.7q2.86-2.86,5.41-5.72t5-5.72h-.2l1.53-1.94c.48-.61,1-1.26,1.53-1.94q1.23-4.08,2.15-6.74T588.28,488.29Z"/></svg>