<svg id="Layer_1" data-name="Layer 1" xmlns="http://www.w3.org/2000/svg" viewBox="0 0 1000 1000"><defs><style>.cls-1{font-size:134px;}.cls-1,.cls-2{font-family:LindysDiner, LindysDiner;}.cls-2{font-size:69.29px;}</style></defs><title>farm fresh creamery</title><text class="cls-1" transform="translate(101.59 272.85) rotate(-36.2)">F</text><text class="cls-1" transform="matrix(0.89, -0.47, 0.47, 0.89, 166.87, 224.21)">A</text><text class="cls-1" transform="translate(254.59 177.97) rotate(-19.15)">R</text><text class="cls-1" transform="matrix(0.99, -0.17, 0.17, 0.99, 343.39, 146.03)">M</text><text class="cls-1" transform="translate(454.07 129.27) rotate(-2.75)"> </text><text class="cls-1" transform="translate(492.34 126.47) rotate(2.01)">F</text><text class="cls-1" transform="translate(573.87 128.48) rotate(10.09)">R</text><text class="cls-1" transform="matrix(0.95, 0.32, -0.32, 0.95, 667.04, 145.15)">E</text><text class="cls-1" transform="translate(749.87 172.93) rotate(25.81)">S</text><text class="cls-1" transform="matrix(0.83, 0.56, -0.56, 0.83, 820.46, 205.48)">H</text><path d="M342.8,376.66a10.5,10.5,0,0,0,5.53-2.62q2.6-2.24,3.77-3.39,1.29-1.49,3.07-3.71a25.1,25.1,0,0,0,3-4.78,16.11,16.11,0,0,0,1.53-5.41,8.32,8.32,0,0,0-1.37-5.44,2,2,0,0,0-2.21-1.12,7.41,7.41,0,0,0-2.74,1.18,22,22,0,0,0-2.62,2.08,16.36,16.36,0,0,0-1.82,1.89q-1.27,1.66-2.93,4.19t-3.12,5.2a35,35,0,0,0-2.43,5.44,16.38,16.38,0,0,0-1,4.93A3.74,3.74,0,0,0,342.8,376.66Z"/><path d="M425.07,346.27l-1.56.05a21.7,21.7,0,0,0-9.76,2.55,32.57,32.57,0,0,0-7.76,5.84,46.06,46.06,0,0,0-6.06,7.67q-2.65,4.19-4.66,7.87l-.17-.16q-1.68,3.67-3.49,8.24a72.75,72.75,0,0,0-3,9.21,60.8,60.8,0,0,0-1.22,7.59,34.3,34.3,0,0,0-.05,8,24.19,24.19,0,0,0,6.75-6.47q2.9-4,5.38-8.22l6.09-9.07q.94-1.34,2-2.86t2.51-3.53q1.41-2,3.2-4.79t4.28-6.79l9.17-14.92A5.59,5.59,0,0,0,425.07,346.27Z"/><path d="M570.95,380.52a10.5,10.5,0,0,0,6.08-.68q3.19-1.27,4.67-2,1.71-1,4.11-2.5a25.06,25.06,0,0,0,4.41-3.53,16.08,16.08,0,0,0,3.21-4.61,8.32,8.32,0,0,0,.48-5.59,2,2,0,0,0-1.73-1.78,7.41,7.41,0,0,0-3,.23,22,22,0,0,0-3.16,1.11,16.41,16.41,0,0,0-2.34,1.19q-1.74,1.15-4.13,3t-4.65,3.9a35.15,35.15,0,0,0-4.08,4.35,16.38,16.38,0,0,0-2.56,4.33A3.74,3.74,0,0,0,570.95,380.52Z"/><path d="M945.49,424.81c-6.92-7.77-13.91-15.47-20.66-23.38-4.12-4.83-7.39-10.46-11.91-14.84a21.8,21.8,0,0,1-7-13.36c-.64-4.87-1-9.78-1.85-14.6a16.68,16.68,0,0,0-2.64-7.1c-2.8-3.66-5.77-7.48-9.48-10.09-9-6.35-13-16-17.65-25.21-1.2-2.37-.53-3.7,1.08-5.62,3.87-4.61,7.93-9.25,10.72-14.51a16.94,16.94,0,0,0-3.23-19.72c-.83,2.76-1.58,5.34-2.39,7.9-2,6.46-5.13,12.31-10.58,16.51a5.48,5.48,0,0,1-4.4.43c-5.84-2-11.54-4.34-17.38-6.33-2.1-.72-4.42-.77-7-1.18,3.25-9.9,1.17-18.23-5.15-25.65-.32.17-.51.22-.52.29a24.76,24.76,0,0,0-.29,2.57c-.36,12.49-5.27,22.19-16.62,28.36-4.48,2.44-7,6.8-8.21,11.77-1.51,6-5.32,9.23-11.55,9.54-6.76.34-13-.78-18.76-5-6.77-5-14.64-7.24-22.17-2.09-4.41,3-8.27,3.11-12.81,1.66-.82-.26-1.67-.43-2.51-.62-16.45-3.61-33.07-6.6-48.48-13.89a64,64,0,0,0-7.72-2.62c-6.25-2-13.16-2.94-18.66-6.23-23.09-13.83-46.6-25.82-74.3-27.21-21.34-1.08-42.6-3.92-63.95-4.56-26.46-.78-53-.16-79.44,0-41.39.23-82.74-.82-124-3.79-15.84-1.14-31.63-3-47.46-4.36-15-1.25-29.92-2.6-44.92-3.15-10-.37-19.51,2-27.06,9.43a8.32,8.32,0,0,1-4.21,1.71c-17.56,3.23-35.25,5.86-52.68,9.71-16.53,3.65-29.35,13.17-37.67,28.17-3.07,5.54-6.53,11-8.48,17-5.07,15.43-10.23,30.92-13.74,46.75a158.14,158.14,0,0,0-3.23,34.8c.07,13.26,1.79,26.51,3,39.75,1,10.49,2.3,20.95,3.58,31.4.08.64,1.17,1.16,1.79,1.74,1.67,1.68-1.51,5.7,3.34,6.31v4.3c3.54-1.31,3.29,1.08,3.33,3.21.06,3,0,6.08.22,9.11a12,12,0,0,0,1,3c.36,1,1.21,2.11,1,3-2.58,13.43-5.43,26.82-7.93,40.26-1.78,9.59-3.16,19.27-4.69,28.91-.85,5.36,2.79,8.3,6.73,9.88,2.08.83,5.25-1.06,8.06-1.75a9.24,9.24,0,0,0,.88,2.56,28.11,28.11,0,0,0,2.78,3.5,19.32,19.32,0,0,0,3.44-3,46.56,46.56,0,0,0,3.06-5.62c4.6,2,6.44-1.15,6.84-4.62,1.43-12.6,3.67-25.29,3.3-37.87-.64-21.49-3-42.93-4.68-64.38-.81-10.18-3.27-20.1-8.49-28.81-6.46-10.77-9.69-22-9-34.51.38-7.36.53-14.74,1.18-22.08.44-4.93,1.57-9.81,2.39-14.7l2.11-.26C117.47,386.46,125.67,407,132.7,428c7.77,23.16,11.68,47.21,14.16,71.52,1.48,14.45,2.5,28.75-1.81,42.89-3.2,10.5-4.62,21.67-13.44,29.88-2.14,2-2.58,6.64-2.47,10,.13,4.09,1.55,8.17,2.62,12.2,2.62,9.86,6.17,19.55,7.9,29.56,4.93,28.51,3.7,57.36,3.6,86.12a3.83,3.83,0,0,1-1.14,2.86c-2.44,1.53-5.09,2.7-8.17,4.28l7.29,1.76.29,1.1-6.16,3.33c2.87,1,5.27,1.86,7.72,2.55,3.64,1,3.56,3.29,1.92,5.87a59.79,59.79,0,0,1-4.17,5.18l5.68.6-3.67,4c6.54,1.35,6.85,1.79,6.27,8.36l3.94,1.28c-4.2,6.53-3.14,15.62,2.12,20.77a3.12,3.12,0,0,0,1.83.9c11.06.53,22,4,33.18,1.7,5.08-1,10.2-1.93,15.31-2.79,2.9-.49,6.4-.75,6.7-4.21.16-1.87-1.76-4.18-3.22-5.88-3.38-3.94-9.21-6.19-8.15-13,.18-1.17-1-2.69-1.78-3.84-2.11-2.92-4.57-5.61-6.57-8.6-2.36-3.53-5.18-7-6.42-11-9.14-29.34-12.22-59.33-7.81-89.83,2.46-17,6.42-33.68,16.14-48.39,12.27-18.55,24.35-37.22,36.54-55.82,1.08-1.65,2.38-3.16,3.41-4.53,3.69.94,5.37,2.67,5.81,6.3a77,77,0,0,0,3.36,13.8c.32,1,2.33,2.15,3.47,2.06a4.82,4.82,0,0,0,3.15-2.58,15.47,15.47,0,0,0,.93-5.05c.44-4.37.79-8.75,1.18-13.12l1.26-.38a22.09,22.09,0,0,1,1.76,4.06c1,4.64,1.71,9.35,2.75,14,.56,2.49,1.13,5,4.85,4.91s4.48-3,4.46-5.28c-.09-7.46,2.66-12.32,9.06-16.85a52.85,52.85,0,0,1,13.32-7.19c.82-.28,1.67-.46,2.47-.79,7.43-3.12,14.52-2.14,21.61,1.35s14.11,6.58,21.24,9.71c15.15,6.66,31.07,11.77,44.55,21.8a10.44,10.44,0,0,0,9.29,2.06c8-2,16.93-.2,23.87-6.22.46-.4,1.39-.27,2.1-.37,8.71-1.22,17.39-2.68,26.12-3.61,21.22-2.26,42.11-7.19,63.57-7.49,9.77-.14,19.38,0,28.22,4.74a5.52,5.52,0,0,1,2.68,3.62c1.42,18.44,2.57,36.9,4,55.35.31,4.14,2.27,8.32,1.86,12.32-1.25,12,1.8,22.85,6.86,33.44a15.83,15.83,0,0,1,1.73,5.68c.79,14,1.7,28,2,42,.25,12-.3,24-.39,36a4.5,4.5,0,0,0,1.27,3.31c2.51,1.77,5.3,3.15,8.18,4.79-.38.6-.83,1.32-1.28,2-4.14,6.41-.71,15.39,6.2,18.59,4.52,2.09,11.46-.09,13.39,7,0,.14.52.17.8.25,5.24,1.45,10.41,3.26,15.74,4.29,11.18,2.16,22.37,4.65,33.9,2.72,2.81-.47,5.83.6,7.56-3.34,2-4.48-.48-6.5-3.18-9-3.59-3.33-8.16-6.3-10.18-10.47-3-6.2-7.17-11.06-11.88-15.77a7.4,7.4,0,0,1-2.1-4c-1.77-15.31-3.49-30.63-5-46-1.41-14.11-2.23-28.13,4.61-41.45,2-3.87,2.84-8.43,3.67-12.78,3-15.84,5.89-31.71,8.69-47.6.74-4.22,2.87-6.05,7.2-7,13.11-2.71,25.31-7.48,35.82-16.34,5.9-5,12.69-9,19.25-13.1,7.56-4.77,15.47-9,22.95-13.9,11-7.22,19.4-16.62,23.61-29.53a23.08,23.08,0,0,1,6.75-9.69,272.59,272.59,0,0,1,24.8-19.63c14.82-10,30.51-18,49.36-16.81,4.54.29,9.19-.8,13.77-1.4,8-1.06,15.66-1.62,24.06.3C864.65,460,880.47,461,896,463.09c1.17.16,2.7.54,3.31,1.37,4.38,5.89,10.74,6.84,17.09,6,5.09-.7,11.74,0,13.27-7.6.07-.33.93-.59,1.46-.71,4.76-1.12,6.53-5.32,9.58-8.37,6-6,6.83-12.61,7.1-20.29C948,429.95,947.73,427.33,945.49,424.81ZM727.57,404.12a6.18,6.18,0,0,1-1.88,2.52,27.87,27.87,0,0,1-2.49,1.84l-.09-.21-1.09,1,.43-.18a96.48,96.48,0,0,0-10.35,8.78,84.27,84.27,0,0,0-9.1,10.51l-9.27,12.73q-4.52,6.51-9.38,13.22a135.39,135.39,0,0,1-10.11,12.4q3.14,2.3,6.43,4.92a63.9,63.9,0,0,1,6.28,5.75l-.4-.33a2.52,2.52,0,0,0,.79.67q2.41,2.36,5.5,5.7a27.05,27.05,0,0,1,4.72,6.8q2.15,5.26,1.75,6.51t-1.92.39a19.5,19.5,0,0,1-3.56-2.82q-2-2-3.27-3.32a89.61,89.61,0,0,0-6.94-7q-3.51-3.15-7.06-5.79-1.9-1.46-3.85-2.76a23.48,23.48,0,0,0-4.39-2.27q-1.13.61-2.2,1.33T664,476.07q-1.25.92-2.38,1.79a30.23,30.23,0,0,1-2.54,1.73,40,40,0,0,1-14.6,4.81A33.1,33.1,0,0,1,627.8,482a29.89,29.89,0,0,1-5.8-3.18,31.3,31.3,0,0,1-5.62-5,30.86,30.86,0,0,1-4.29-6.1,14.4,14.4,0,0,1-1.73-6.77,10,10,0,0,1,.16-2.85,9.08,9.08,0,0,1,.92-2.55,11.88,11.88,0,0,1,5.67-5.43,21.6,21.6,0,0,1,8.13-1.81,41.09,41.09,0,0,1,9.08.68,77.76,77.76,0,0,1,8.38,2,33.14,33.14,0,0,1,4.19,1.22q2.24.8,4.38,1.64,2.59,1,5.25,2.34t5.13,2.65q.73-.95,1.7-2.06a10.65,10.65,0,0,1,1.94-1.79,42.35,42.35,0,0,1,3.2-3,30.62,30.62,0,0,0,3.32-3.27q3.55-4.06,7.07-8.05t7.07-8.05l-4.74,3.06q-2.37,1.53-4.68,2.91l.06-.15-1.25.92q-1.73,1.26-3.69,2.42a26.77,26.77,0,0,1-4.24,2,15,15,0,0,1-4.7,1,12.2,12.2,0,0,1-5-.92,11.26,11.26,0,0,1-6.25-5.38,18.38,18.38,0,0,1-2-7.74,22.63,22.63,0,0,1,.54-6.12l-4,3.69a81.08,81.08,0,0,1-8.48,6.74,47.48,47.48,0,0,1-7.12,4.15,11.7,11.7,0,0,1-8.64.62,10.65,10.65,0,0,1-6.2-4.21,16.3,16.3,0,0,1-2.46-7,29.21,29.21,0,0,1,.22-6q.43-3.21,1.08-6t1.4-5.06q.75-2.26,1-3.2a116.82,116.82,0,0,1,20.56-35.67l-1.73-.51q-3.53,4.44-4.82,5.93T629,380.47q-2.28,3.09-4.73,6.22a62.94,62.94,0,0,1-5.11,5.76c-.44.41-1,.38-1.73-.05a46.57,46.57,0,0,1-2.86,3.77,86.8,86.8,0,0,1-6.13,6.61q-3.14,3-4.33,4l-1.68,1.66q-3.53,3.29-7.45,6.92a46.38,46.38,0,0,1-8.57,6.28,36.94,36.94,0,0,1-10,3.89,27,27,0,0,1-11.63,0q-7.16-1.81-10.68-6.29a23.83,23.83,0,0,1-4.64-10.41,32.53,32.53,0,0,1-.63-8.33q.11-2.21.38-4.35c-.84,1.19-1.69,2.38-2.53,3.55a65,65,0,0,1-15.15,15q-1.23.89-2.87,1.9a15.08,15.08,0,0,1-3.59,1.59,12.9,12.9,0,0,1-4.32.46,10.39,10.39,0,0,1-4.88-1.64,13,13,0,0,1-4.22-3.72,17.37,17.37,0,0,1-2.34-4.56,21.87,21.87,0,0,1-.82-4q-.18-1.82-.4-3.16a56,56,0,0,1,2.15-18.91,101.29,101.29,0,0,1,6.91-16.87,95.67,95.67,0,0,0-10,10.85,132.47,132.47,0,0,0-8.49,12.13,29.34,29.34,0,0,0-1.76,3.39q-.81,1.83-1.61,3.57-1,2.22-2.19,4.59a27,27,0,0,1-3,4.69,7,7,0,0,1-4.75,1.74q-3,.08-5.93-3.95a7.5,7.5,0,0,1-1.55-4.16,9.52,9.52,0,0,1,1.05-3.78q1.71-4.79,3.18-9.61t3-9.62q.92-3.21,1.49-5.06t1.1-3.36q.53-1.52,1.1-3.36t1.82-5a137.49,137.49,0,0,0-12,12.75Q473.13,378,468.27,385q-2.64,4.06-5.38,8.36a91.18,91.18,0,0,0-5.12,9.2,5.33,5.33,0,0,0-1.4,3,43.85,43.85,0,0,1-2.55,5,4.31,4.31,0,0,1-4.31,2.36,9.34,9.34,0,0,1-5.12-1.74,7.3,7.3,0,0,1-2.51-3.5,6.44,6.44,0,0,1-.16-.68c-1.66,1.86-3.34,3.61-5.05,5.23a10.15,10.15,0,0,1-6.88,2.78,10.26,10.26,0,0,1-6.71-1.82,12.79,12.79,0,0,1-4-5.2,23.18,23.18,0,0,1-1.57-5.12,45.36,45.36,0,0,1-.75-10q.09-2.22.21-3.54l.78-6.1L416,386.95q-2.94,5.35-6.75,11.47a97.32,97.32,0,0,1-7.75,10.85,25.48,25.48,0,0,1-4.44,4.58,10.76,10.76,0,0,1-6.65,2.36,14.3,14.3,0,0,1-8.19-2.1,13.25,13.25,0,0,1-4.71-5.67,17.52,17.52,0,0,1-1.53-5.26,46.39,46.39,0,0,1-5.23,7.29,37,37,0,0,1-8.19,6.94,27,27,0,0,1-11,3.75q-7.36.63-12.15-2.47a23.83,23.83,0,0,1-7.79-8.33,32.49,32.49,0,0,1-3.32-7.67c-.32-1.11-.6-2.21-.85-3.31q-1.44,4.36-2.89,8.61a81.15,81.15,0,0,1-4.21,10,47.42,47.42,0,0,1-4.26,7.05,11.7,11.7,0,0,1-7.29,4.69,10.66,10.66,0,0,1-7.46-.73,16.31,16.31,0,0,1-5.54-5,29.18,29.18,0,0,1-2.68-5.37q-1.16-3-1.93-5.79t-1.2-5.11c-.28-1.56-.5-2.66-.63-3.3a116.82,116.82,0,0,1,.95-41.16l-1.76.38q-1,5.58-1.38,7.52c-.28,1.29-.46,2.28-.53,3q-.52,3.81-1.17,7.72a63.19,63.19,0,0,1-1.72,7.51q-.31.91-1.68.78c-.16,0-.34-.05-.51-.08q-.56,2.5-1.5,6.89-1.91,7.35-4.47,14.57a116.5,116.5,0,0,1-5.92,13.84q-1.47,2.9-3.46,6a49.75,49.75,0,0,1-4.5,6,38,38,0,0,1-5.69,5.31,23.84,23.84,0,0,1-7.08,3.69,21,21,0,0,1-9.7.93,30.8,30.8,0,0,1-9.13-2.87,40.2,40.2,0,0,1-8.36-5.54A78,78,0,0,1,208,423.21a80.75,80.75,0,0,1-4.21-7.33A76.29,76.29,0,0,1,196.27,388a72.31,72.31,0,0,1,2.87-26.09,85.5,85.5,0,0,1,5.76-12.47,53.26,53.26,0,0,1,8.29-11.06,50.11,50.11,0,0,1,6.33-5.43,28.89,28.89,0,0,1,17.53-5.49,29.87,29.87,0,0,1,12,2.79,26.16,26.16,0,0,1,8.76,6.49,17.88,17.88,0,0,1,4.36,8.07,13,13,0,0,1-.15,3.24,19.42,19.42,0,0,1-1.25,4.63,21.11,21.11,0,0,1-2.49,4.52,7.19,7.19,0,0,1-3.57,2.8,8,8,0,0,1-4.25.18,10.6,10.6,0,0,1-4.65-2.62q-3.3-2.71-2.54-4.61a11.14,11.14,0,0,1,2.59-3.69,21.69,21.69,0,0,0,2.33-3.43,6.08,6.08,0,0,0,.57-4.07q-.36-1.09-.71-1.92a6.2,6.2,0,0,0-.92-1.51,9.63,9.63,0,0,0-6-2.94,16.12,16.12,0,0,0-7.32.58,27.76,27.76,0,0,0-11.51,7.55,43.49,43.49,0,0,0-7.59,11.62,60.84,60.84,0,0,0-4.23,13.46A75.67,75.67,0,0,0,209,381.68a86,86,0,0,0,1.78,14.17,91.73,91.73,0,0,0,4.06,14.29,88.94,88.94,0,0,0,4.2,8.63,50.86,50.86,0,0,0,6.17,8.85,47,47,0,0,0,4.2,4.15,34.94,34.94,0,0,0,4.88,3.58,10.19,10.19,0,0,0,4.5,1.64,10.53,10.53,0,0,0,4.15-.49,16.43,16.43,0,0,0,6.12-3.72,49.26,49.26,0,0,0,5.27-5.78,52.8,52.8,0,0,0,4.24-6.3l3-5.3a125.6,125.6,0,0,0,7.22-15.13,119.52,119.52,0,0,0,4.78-14.67,6.62,6.62,0,0,1,2.41-3.72,5.21,5.21,0,0,1,1-.52q.35-1.73.65-3.7.82-5.47,1.39-9.79.25-1.9.31-2.84c0-.62.06-1.38.09-2.29q-1.63-1.32-3.1-2.68a24.79,24.79,0,0,1-2.51-2.64,6.39,6.39,0,0,1-1.33-2.65,4.47,4.47,0,0,1,.39-2.85q1.88-2.93,6.33-2.55a6.4,6.4,0,0,1,2.47.55c.75.34,1.43.67,2.06,1a5,5,0,0,0,2.15.62,3,3,0,0,0,1.39-.55,16.38,16.38,0,0,1,6.24-2.2,14.66,14.66,0,0,1,6.94.67,9.21,9.21,0,0,1,4.12,3.13,8.46,8.46,0,0,1,1.42,4.22,19.33,19.33,0,0,1-.25,5,38.07,38.07,0,0,1-1.2,4.88q-.75,2.35-1.24,4A129.9,129.9,0,0,0,300.66,384a100.46,100.46,0,0,0-1,12.64,65.45,65.45,0,0,0,.87,13.24q.28,1.28.51,2.74c.15,1,.33,1.89.51,2.74a11.09,11.09,0,0,0,.61,2c.22.51.47.63.75.34a11.54,11.54,0,0,0,3.32-3.66l2.5-4.32q4.82-7.93,9.07-16.16a152.58,152.58,0,0,0,7.82-18.07,5.9,5.9,0,0,1,2.12-3.21c.09-.48.18-.95.28-1.44a68.08,68.08,0,0,1,3.06-10.74,58,58,0,0,1,4.76-9.8,26.41,26.41,0,0,1,6.86-7.59,22.67,22.67,0,0,1,3.32-1.84,14.32,14.32,0,0,1,4.07-1.11,15.22,15.22,0,0,1,5,.26,19.16,19.16,0,0,1,5.39,2,18.69,18.69,0,0,1,6.26,6.13,18.45,18.45,0,0,1,2.52,8.52,43,43,0,0,1-.27,7.4,31.55,31.55,0,0,1-3.51,10.46,26.36,26.36,0,0,1-7.08,8.45,18,18,0,0,1-3.55,2,16.64,16.64,0,0,1-4.47,1.25,21.12,21.12,0,0,1-6.47-.15,15.18,15.18,0,0,1-6.53-3.12q-.37,2.2-.64,5.21t-.25,6.32a37.47,37.47,0,0,0,.61,6.54,15.25,15.25,0,0,0,2,5.52,8,8,0,0,0,2.58,2.64,5.89,5.89,0,0,0,4.27.43,26.27,26.27,0,0,0,7.68-2.58,36.16,36.16,0,0,0,6.77-4.52,43.41,43.41,0,0,0,5.62-5.7q2.49-3.05,4.62-5.81,2.66-3.65,5.06-7.44a60.27,60.27,0,0,0,4.19-7.82c.45-.86.81-1.63,1.13-2.36l.22-.72c.4-1,.82-2,1.25-3a38.73,38.73,0,0,1,1.58-3.57c.54-1.18,1.09-2.36,1.67-3.55a74.41,74.41,0,0,1,5.82-9.88,62.45,62.45,0,0,1,7.33-8.7,37,37,0,0,1,9.21-6.63,30.24,30.24,0,0,1,5.11-1.81,26.12,26.12,0,0,1,5.8-.85,29.4,29.4,0,0,1,5.59.38,31,31,0,0,1,6.13,1.68,4.81,4.81,0,0,1,2.91-1.25,9.42,9.42,0,0,1,3.56.95,12.45,12.45,0,0,1,3.11,2.11,10.79,10.79,0,0,1,2.14,2.72,6.54,6.54,0,0,1,.84,2.93,7.68,7.68,0,0,1-.67,2.16q-.54,1.17-1.15,2.34-1.68,3.83-2.8,6.82t-2,5.65q-2.12,5.33-3.9,10.88t-3.67,12.84a76.15,76.15,0,0,0-1.94,8.19,39.91,39.91,0,0,0-.61,8.47,59.31,59.31,0,0,0,8.5-8.08q3.87-4.48,7.17-8.69,3.14-4,6.37-8.09a97.51,97.51,0,0,0,6.18-8.74q.78-1.17,2.34-3.44a15,15,0,0,1,2.36-2.75c1.29-3.51,2.58-7,3.87-10.32a113,113,0,0,1,5.44-12.06,28.55,28.55,0,0,1,1.61-3.57,14.31,14.31,0,0,1,3-4,7.3,7.3,0,0,1,4.19-2q2.41-.29,5.63,2.61a11.19,11.19,0,0,1,2.65,3.76,6.13,6.13,0,0,1,.38,3.32,10.06,10.06,0,0,1-1.07,3q-.78,1.42-1.52,2.51-2.11,3.61-4,6.17a40.53,40.53,0,0,0-3.44,5.72q3.25-3.51,6.72-6.6t7.5-6a35.07,35.07,0,0,0,7.24-6l1.71-1.75a4,4,0,0,1,1.65-1.1,6.48,6.48,0,0,1,6.42,1.93,10.42,10.42,0,0,1,3.09,6.43,11.2,11.2,0,0,1-1.55,5.8q-1.65,3-3.35,5.65-1.5,2.18-2.93,4.61a31.13,31.13,0,0,0-2.51,5.47q3.93-3.79,8-7t8.27-6.47q1.74-1.17,3.39-2.19t3.23-2.2q2.1-1.47,4.19-2.86a43.36,43.36,0,0,0,4-3l2.57-2.17a4.54,4.54,0,0,1,3.45-.95,7.78,7.78,0,0,1,6.12,3.63,9,9,0,0,1,1.79,6.24,7.88,7.88,0,0,1-2,3.37q-1.53,1.6-3.72,4.22-3.13,4-5.94,8.15T528,372.73q-2.1,3.45-4.24,7.46a76.18,76.18,0,0,0-3.82,8.32,41.87,41.87,0,0,0-2.37,8.69,24.58,24.58,0,0,0,.11,8.57,60.74,60.74,0,0,0,13.05-8.54q5.85-5,11.06-10.35,3-2.87,6.12-6.32t6.58-7.93q.75-1.09,1.76-2.32a5,5,0,0,1,2.11-1.63,1.92,1.92,0,0,1,1.35,0,68,68,0,0,1,5.46-7.61,58,58,0,0,1,7.7-7.71,26.4,26.4,0,0,1,9-4.94,22.66,22.66,0,0,1,3.73-.66,14.32,14.32,0,0,1,4.21.28,15.22,15.22,0,0,1,4.64,1.87,19.18,19.18,0,0,1,4.44,3.67,18.69,18.69,0,0,1,3.92,7.84,18.45,18.45,0,0,1-.4,8.88,42.94,42.94,0,0,1-2.67,6.9A31.55,31.55,0,0,1,593,386a26.37,26.37,0,0,1-9.45,5.68,17.92,17.92,0,0,1-4,.69,16.63,16.63,0,0,1-4.63-.28,21.09,21.09,0,0,1-6.07-2.25,15.18,15.18,0,0,1-5.15-5.08q-1.07,2-2.31,4.72t-2.3,5.89a37.5,37.5,0,0,0-1.56,6.38,15.22,15.22,0,0,0,.13,5.89,8,8,0,0,0,1.57,3.34,5.89,5.89,0,0,0,3.9,1.81,26.29,26.29,0,0,0,8.1.07,36.24,36.24,0,0,0,7.88-2.07,43.33,43.33,0,0,0,7.17-3.55q3.35-2.07,6.26-4,3.71-2.58,7.22-5.38a60.18,60.18,0,0,0,6.51-6q1.45-1.37,2.44-2.51t1.89-2.29a25.94,25.94,0,0,1,4.32-4.3,2,2,0,0,1,1.86-.21c.83-1,1.69-2,2.58-3.2q3.34-4.4,5.92-7.92c.76-1,1.3-1.81,1.63-2.34s.72-1.18,1.17-2q-.8-1.94-1.44-3.84a24.75,24.75,0,0,1-.93-3.52,6.39,6.39,0,0,1,.1-3,4.47,4.47,0,0,1,1.71-2.32q3.05-1.67,6.78.79a6.38,6.38,0,0,1,1.9,1.67c.49.66.93,1.27,1.34,1.85a5,5,0,0,0,1.59,1.58,3,3,0,0,0,1.49.18,16.36,16.36,0,0,1,6.53,1.06,14.65,14.65,0,0,1,5.77,3.92,9.2,9.2,0,0,1,2.12,4.72,8.46,8.46,0,0,1-.78,4.39,19.32,19.32,0,0,1-2.62,4.27,38.06,38.06,0,0,1-3.4,3.7q-1.78,1.7-3,2.88a130,130,0,0,0-8.78,10.41,100.6,100.6,0,0,0-7,10.6,65.5,65.5,0,0,0-5.59,12c-.25.84-.54,1.72-.86,2.65s-.62,1.81-.86,2.65a11.13,11.13,0,0,0-.44,2.09c-.05.56.11.78.49.66a11.54,11.54,0,0,0,4.66-1.62l4.27-2.59q8-4.65,15.71-9.83a152.61,152.61,0,0,0,15.52-12.11c1.44-1.28,2.66-1.87,3.65-1.79q4.1-4.49,8.24-8.75l-.06.15,1.88-2.08-.15-.06,1-1.19q1.39-1.74,4-4.51a23.11,23.11,0,0,1,5.33-4.33,7.67,7.67,0,0,1,5.43-1q2.7.54,4.45,5.46a8.06,8.06,0,0,1,.61,3.59,6.45,6.45,0,0,1-.9,2.73,9.24,9.24,0,0,1-1.7,2.06,20.5,20.5,0,0,1-1.93,1.53l-1.12.61-2.4,2,.15.06q-2.95,2.54-5.81,5.11t-5.72,5.32a73.62,73.62,0,0,0-10.1,10.82l-1.37,1.22a39,39,0,0,0-4.52,5.62,15.39,15.39,0,0,0-2.53,7.29q-.09.67.73.38t1.89-.75l.67.09a53.56,53.56,0,0,0,8-3.2q3.74-1.87,7.54-3.9l13-7,13.55-7.51.27-.25c.12-.3.42-.48.91-.52l.67-.79q1.73-2.14,3.15-4a52,52,0,0,1,3.52-4l1.76-1.77q.94-1,2-2.2a6.46,6.46,0,0,1,2.43-1.68,4.16,4.16,0,0,1,2.91,0,9.19,9.19,0,0,1,3.51,2.71,12,12,0,0,1,2.44,4.76A6.27,6.27,0,0,1,727.57,404.12Z"/><path d="M630.24,460.24q-1.4,0-3.47-.14a16.09,16.09,0,0,0-3.88.23,8.31,8.31,0,0,0-3.13,1.23,2.74,2.74,0,0,0-1.16,2.71,5,5,0,0,0,1.58,3.8,12.07,12.07,0,0,0,3.89,2.42,23.46,23.46,0,0,0,7.39,1.6,26.82,26.82,0,0,0,5.41-.07,30.8,30.8,0,0,0,8.59-2.33,52.83,52.83,0,0,0,7.7-4.1q-5.86-2.14-11.62-3.63A55.28,55.28,0,0,0,630.24,460.24Z"/><text class="cls-2" transform="translate(24 876.07)">BUTTER</text><text class="cls-2" transform="translate(355.62 876.07)">MILK</text><text class="cls-2" transform="translate(578.56 876.07)">ICE CREAM</text><circle cx="329" cy="856" r="8.5"/><circle cx="560.5" cy="856" r="8.5"/></svg>