<svg id="Layer_1" data-name="Layer 1" xmlns="http://www.w3.org/2000/svg" viewBox="0 0 802 800"><title>feather</title><path d="M682.24,73.82a53.76,53.76,0,0,1-6.31,8.36c-5.13,5.52-11.55,9.68-18.15,13.32L674.68,93c-6.62,1-11.2,18.59-13.41,23.56-5.13,11.54-8.58,19.3-21.09,24.24a440.57,440.57,0,0,1-47.85,15.81,114,114,0,0,0,48.08-5.39A106.3,106.3,0,0,1,580,188.1a85.75,85.75,0,0,0,26.8-1.89l-27.43,37.13c-7.41,10-15.84,20.75-28,23.52-11.29,2.57-23.25,3.5-34.77,4.45-13.91,1.15-27.82,6-41.36,7.07,23.75-1.84,49.64-.52,72.69,5.49-19.77,27.16-61.38,37.19-90.7,49.94a103.31,103.31,0,0,1,41.61-8.54c-12.48,12.84-23.15,28.9-36.56,40.35s-31.6,19.05-48.12,24.06a77,77,0,0,0,35-9.49L439.44,371a44.57,44.57,0,0,1-6.86,6.6c-3.47,2.49-7.57,3.93-11.61,5.33l-20.08,7a257.55,257.55,0,0,0,27.46-6.61c-22.7,21.71-44.16,49.34-80.12,43l34.06,6c-15.52,15.54-27.82,31.41-43.49,42.55-16,11.34-35.23,18-53.34,26.89l6.25,4.49c-15.23,16.41-33.15,26.38-59.25,28.74,65.21-150.14,159.47-275.12,280.28-381.25-2.85,1.81-6,3.26-8.49,5.47-57.67,51.35-116.41,101.39-162.85,164.19C256.78,437.83,194.81,562.69,161,701.24c-4.88,20-10.62,39.84-16,59.76h-4.88c0-6.48-.92-13.14.21-19.43,11.76-64.94,31.25-127.63,56.46-188.53,5.38-13,6.06-22.63-1-34-7.86-12.65-13.65-25.74-15.62-40.64l7.57,10.31A197.81,197.81,0,0,1,190,418.87a7.82,7.82,0,0,1,4.69,6.83c.42-1,5.66-22.35,6.4-22.05l15.06,6.21c-2.34-22.29,5.9-40.51,19-56.49l14.32,31.2c-16-58.83,20.63-98,48.08-140.32l3.74.1,13.65,55.34c1.06-9.07.15-17.86-.41-26.68-.89-14.07-4.58-28.81-1.74-42.12,4.12-19.29,15.17-35.58,28.55-49.71,6.54-6.91,13.53-13.36,20.47-19.84s13.3-14.21,20.78-20c1,9.44-1.27,19.88-2.11,29.3l-1.39,15.69c-.36,4,.52,12.18-1.39,15.69a101.39,101.39,0,0,0,9.44-24.47c1.84-7.54,4.77-14.51,6.86-22a242.79,242.79,0,0,1,8.74-24.39,12.78,12.78,0,0,1,5.53-7.1q11-8.35,22.13-16.44c1.7-1.24,20.43-13.14,20.29-13.83.58,2.76,1.87,4.72,2.87,7.28,1.31,3.35,1.31,7.07,1.74,10.6a13.52,13.52,0,0,1,6.18-11,47.46,47.46,0,0,1,3.81,14l6.45-30a11.55,11.55,0,0,1,1.3-3.82A11,11,0,0,1,477,77.54a104,104,0,0,1,11-5.59,176.35,176.35,0,0,1,2.2,20.71c8.35-11.26,6.18-26.34,20.69-32.59,13.36-5.76,29.79-9.7,43.86-14.25a81.75,81.75,0,0,1,8.25-1.69L544.6,89.86c11-14.57,17.93-31.52,29.24-44.71C586.46,30.42,606,31.29,627.08,30.88L604,48.92c9.58-2.29,17.67-6.69,26-10.62,23.53-11.15,51.81-9,77.17-13.25C695.15,38.86,691.78,58.44,682.24,73.82Z"/></svg>