<?xml version="1.0" encoding="utf-8"?>
<!-- Generator: Adobe Illustrator 21.1.0, SVG Export Plug-In . SVG Version: 6.00 Build 0)  -->
<svg version="1.1" id="Layer_1" xmlns="http://www.w3.org/2000/svg" xmlns:xlink="http://www.w3.org/1999/xlink" x="0px" y="0px"
	 viewBox="0 0 432 365" style="enable-background:new 0 0 432 365;" xml:space="preserve">
<style type="text/css">
	.st0{fill:#FFFFFF;}
</style>
<g>
	<path d="M176.6,24.3c0.2,0.3,0.4,0.4,0.8,0.5h0.2c0.3,0,0.5-0.1,0.7-0.2c0.2-0.2,0.4-0.4,0.4-0.7c0.1-0.5,0.1-0.9,0.1-1.1
		c0-0.2-0.1-0.6-0.3-1.1c-0.1-0.3-0.3-0.5-0.6-0.7c-0.3-0.1-0.6-0.1-0.9,0c-0.3,0.1-0.5,0.3-0.7,0.6c-0.1,0.3-0.1,0.6,0,0.9
		c0,0.1,0.1,0.2,0.1,0.3c0,0.1,0.1,0.2,0.1,0.2c0,0.1,0,0.2-0.1,0.5C176.3,23.7,176.4,24,176.6,24.3z"/>
	<path d="M196.9,33c-0.3-0.2-0.6-0.2-0.9-0.1c-0.3,0.1-0.5,0.3-0.6,0.6c-1.1,2.6-2.3,4.9-3.5,7.1c-1.2,2.2-2.5,3.9-3.7,5.1
		c-1.7,1.8-3.3,2.7-4.7,2.7c-0.3,0-0.5,0-0.6-0.1c-0.8-0.2-1.4-0.7-1.9-1.4c-0.5-0.8-0.9-1.5-1.1-2.2c-0.4-1.2-0.7-2.8-0.8-4.8
		c-0.1-1.9-0.1-3.9,0-6c0-0.3,0-0.6-0.3-0.8c-0.2-0.2-0.5-0.4-0.8-0.4c-0.3,0-0.6,0.1-0.8,0.3s-0.4,0.5-0.4,0.8
		c-0.1,2.2-0.1,4.4,0,6.4c0.1,2.1,0.4,3.8,0.9,5.2c0.7,1.8,1.4,3.1,2.3,3.8c0.9,0.7,1.7,1.1,2.4,1.3c0.2,0,0.4,0.1,0.6,0.1
		c0.2,0,0.4,0,0.6,0c0.8,0,1.8-0.2,2.8-0.7c1.1-0.5,2.3-1.4,3.6-2.7c1.3-1.4,2.6-3.2,3.9-5.4c1.3-2.3,2.5-4.8,3.7-7.5
		c0.2-0.3,0.2-0.6,0.1-0.9C197.4,33.3,197.2,33.1,196.9,33z"/>
	<path d="M286,32.9c-0.3-0.2-0.6-0.2-0.9-0.1c-0.3,0.1-0.5,0.3-0.7,0.6c-1.1,2.6-2.3,5-3.5,7.2c-1.2,2.2-2.4,3.9-3.6,5.2
		c-2.1,2.1-3.9,3-5.4,2.6c-0.8-0.2-1.4-0.7-1.9-1.4c-0.5-0.7-0.8-1.5-1.1-2.2c0.9-1.9,1.6-3.7,2-5.3c0.4-1.6,0.7-3,0.8-4.2
		c0.1-1.2,0-2.2-0.2-3c-0.2-0.8-0.5-1.5-0.9-1.9c-0.7-0.8-1.6-1.1-2.5-0.8c-1.2,0.4-1.9,1.6-2.2,3.4c-0.1,0-0.1,0.1-0.2,0.1
		c-1,0.9-2.1,1.6-3.4,2.1c-1.3,0.5-2.4,0.7-3.4,0.6c-0.3,0-0.6-0.1-0.9-0.1c-0.3,0-0.6-0.1-0.9-0.1v-0.7c-0.1-1.7-0.4-2.9-1-3.7
		c-0.6-0.8-1.1-1.3-1.6-1.5c-0.8-0.4-1.6-0.4-2.4-0.1c-0.8,0.3-1.3,0.8-1.8,1.7c-0.4,0.9-0.5,1.8-0.2,2.9c0.3,1,1,1.9,2.1,2.5
		c0.5,0.3,1.2,0.6,2.3,0.9c-0.1,0.6-0.2,1.3-0.3,2c-0.1,0.7-0.3,1.4-0.5,2.2c-0.3,1-0.7,2-1,2.9c-0.4,0.9-0.8,1.7-1.2,2.4
		c-0.4,0.7-0.8,1.1-1.1,1.3c-0.3,0.2-0.5,0.3-0.6,0.3c-0.2-0.1-0.3-0.2-0.5-0.4c-0.2-0.2-0.3-0.5-0.5-0.8c-0.2-0.4-0.4-0.9-0.6-1.5
		c-0.3-1.2-0.6-2.9-0.8-5c-0.2-2.1-0.4-4.4-0.5-6.8c0-0.3-0.1-0.6-0.4-0.8s-0.5-0.3-0.8-0.3c0,0,0,0,0,0c-0.1,0-0.1,0-0.2,0
		c-0.3,0-0.6,0.1-0.8,0.3c-1,0.9-2.2,1.6-3.7,2.1c-1.5,0.5-2.8,0.7-4,0.7c0,0-0.1,0-0.1,0c0,0-0.1,0-0.1,0c-0.2-1.3-0.5-2.4-1-3.3
		c-0.5-0.9-1.1-1.6-1.9-2.1c-0.8-0.5-1.6-0.8-2.5-0.8c-0.9,0-1.8,0.3-2.6,0.8c-0.8,0.6-1.2,1.3-1.4,2c-0.2,0.7-0.1,1.4,0.1,2.2
		c0.3,0.8,1,1.5,2.1,2c0.5,0.3,1.2,0.5,2.1,0.8c0.9,0.2,1.9,0.4,3.1,0.6v0.3c0,1.2-0.1,2.5-0.4,3.8c-0.3,1.3-0.6,2.4-1.1,3.4
		c-0.2,0.3-0.3,0.6-0.6,0.9c-0.2,0.3-0.5,0.7-0.8,1c-0.3,0.3-0.7,0.6-1,0.8c-0.4,0.2-0.8,0.3-1.2,0.3c-1.5,0-2.7-0.8-3.6-2.3
		c-0.4-0.7-0.7-1.6-0.9-2.6c-0.2-1-0.3-2-0.3-3.1c0-1.1,0.2-2.1,0.4-3.1c0.1-0.4,0.2-0.8,0.4-1.2c0.3-0.5,0.5-1,0.8-1.6
		c0.2-0.3,0.2-0.6,0.1-0.9c-0.1-0.3-0.3-0.5-0.6-0.7c-0.3-0.2-0.6-0.2-0.9-0.1c0,0,0,0,0,0c0,0,0,0,0,0c-0.3,0.1-0.5,0.3-0.7,0.6
		c-0.3,0.5-0.6,1.1-0.8,1.8c-0.8,1.6-1.6,3.1-2.4,4.6c-1.1,2.1-2.3,3.8-3.3,5c-1.1,1.3-2.2,2.3-3.1,2.9c-0.9,0.6-1.7,0.9-2.4,0.7
		c-0.2,0-0.5-0.2-0.8-0.4c-0.3-0.2-0.6-0.6-0.9-1.2c-0.3-0.5-0.6-1.3-0.9-2.2c-0.3-0.9-0.6-2.1-0.8-3.6c-0.2-1-0.3-2.1-0.4-3.3
		c-0.1-1.2-0.2-2.5-0.2-3.8c0,0,0-0.1,0.1-0.1c1.5-2.9,2.5-5.5,3.1-8c0.5-2.5,0.9-4.6,0.9-6.3c0.1-1.9,0-3.7-0.3-5.2
		c-0.3-1.6-0.7-2.7-1.3-3.4c-0.4-0.5-0.8-0.7-1.2-0.8c-0.4,0-0.6,0-0.8,0.1c-0.2,0.1-0.4,0.2-0.6,0.4s-0.5,0.5-0.7,0.9
		c-0.2,0.4-0.4,1-0.6,1.7c-0.2,0.7-0.3,1.7-0.4,2.8c-0.8,11.1-0.8,19.6,0.1,25.5c0.9,5.5,2.5,8.5,5.1,9.1c0.3,0.1,0.7,0.2,1,0.2
		c2,0,4.3-1.5,6.8-4.5c1-1.2,2-2.6,3-4.4c0.1,0.8,0.2,1.6,0.3,2.4c0.3,1.1,0.7,2.1,1.2,3c1.4,2.3,3.2,3.5,5.6,3.5
		c1.1,0,2.2-0.4,3.1-1.1c1-0.8,1.8-1.8,2.5-3.2c0.5-1.1,1-2.4,1.3-3.8c0.3-1.4,0.5-2.9,0.5-4.3v-0.1c0.7,0,1.5-0.1,2.3-0.2
		c0.8-0.1,1.6-0.3,2.5-0.6c0.8-0.3,1.6-0.6,2.4-1.1c0.2-0.1,0.4-0.3,0.6-0.4c0.1,1.8,0.2,3.6,0.4,5.2c0.2,2.2,0.5,3.9,0.9,5.2
		c0.7,2.8,1.9,4.2,3.4,4.4c0.1,0,0.2,0.1,0.4,0.1c1.2,0,2.4-0.9,3.6-2.7c1-1.6,1.8-3.5,2.4-5.8c0.4-1.4,0.7-2.9,0.9-4.3
		c0.7,0.2,1.6,0.2,2.6,0.2c1.4,0,2.7-0.3,4-0.9c0.7-0.3,1.4-0.7,2.1-1.2c-0.1,3.8,0.2,6.9,1,9.3c0.6,1.9,1.4,3.2,2.2,3.9
		c0.9,0.7,1.7,1.2,2.5,1.4c0.2,0,0.4,0.1,0.6,0.1c0.2,0,0.4,0,0.6,0c0.8,0,1.8-0.2,2.9-0.7c1.1-0.5,2.3-1.4,3.6-2.7
		c1.4-1.4,2.7-3.2,4-5.5c1.3-2.3,2.5-4.8,3.7-7.5c0.1-0.3,0.1-0.6,0-0.9C286.5,33.2,286.3,33,286,32.9z M232,35.1
		c-0.7-0.2-1.1-0.3-1.5-0.5c-0.9-0.5-1.2-1-1.1-1.6c0.1-0.3,0.3-0.5,0.6-0.7c0.3-0.2,0.7-0.3,1.3-0.3c1,0,1.8,0.5,2.4,1.6
		c0.3,0.6,0.5,1.2,0.7,2C233.5,35.4,232.7,35.3,232,35.1z M208.3,22.6c0.1-2,0.2-4.1,0.4-6.3c0.1-0.8,0.2-1.5,0.2-2
		c0.1-0.5,0.2-0.9,0.2-1.1c0.2,0.5,0.4,1.2,0.6,2.2c0.2,1,0.3,2.2,0.2,3.8c-0.1,3.1-0.7,6.2-1.7,9.2
		C208.2,26.5,208.2,24.6,208.3,22.6z M253.9,34.9c-0.2-0.1-0.4-0.2-0.6-0.3c-0.6-0.3-0.9-0.7-1-1.2c-0.1-0.5-0.1-0.9,0.1-1.2
		c0.2-0.3,0.4-0.5,0.7-0.5c0.1,0,0.1,0,0.2,0c0.1,0,0.1,0,0.2,0c0.7,0.3,1.1,1.4,1.2,3.3C254.4,35,254.1,34.9,253.9,34.9z M268,40.8
		c-0.1-1-0.1-2-0.1-3.1c0-1.1,0-2.2,0.1-3.4c0.1-0.8,0.2-1.3,0.4-1.7c0.2-0.4,0.3-0.6,0.4-0.7c0,0,0.1,0.1,0.1,0.2
		c0.1,0.1,0.1,0.2,0.2,0.4c0.3,0.7,0.3,1.8,0.2,3.2S268.8,38.8,268,40.8z"/>
	<path d="M361.6,33.7c-0.1-0.3-0.3-0.5-0.6-0.7c-0.3-0.2-0.6-0.2-0.9-0.1c-0.3,0.1-0.5,0.3-0.7,0.6c-0.7,1.4-1.6,2.7-2.8,4.2
		c-1.2,1.4-2.5,2.8-3.9,4.2c-1.4,1.4-2.9,2.7-4.5,4c-1.6,1.3-3.1,2.5-4.6,3.7c0.1-0.9,0.1-1.9,0.1-2.9c0-1,0-2.1,0.1-3.2
		c0-1.6,0.1-3.2,0.1-4.7c0-1.5,0-2.9,0-4c0-1.2,0-2.5-0.1-3.9c0-0.3-0.2-0.6-0.4-0.8c-0.2-0.2-0.5-0.3-0.8-0.3
		c-0.3,0-0.6,0.1-0.8,0.3c-0.2,0.2-0.3,0.4-0.4,0.8c-0.2,3.1-0.6,5.7-1,7.9c-0.4,2.2-0.9,4-1.4,5.4c-0.5,1.4-1,2.4-1.5,3.1
		c-0.5,0.7-1,1.1-1.3,1.3c-0.3,0.2-0.6,0.1-1-0.1c-0.4-0.3-0.7-0.8-1-1.5c-0.3-0.7-0.6-1.6-0.8-2.6c-0.2-1.2-0.3-2.8-0.3-4.6
		s0.1-3.6,0.3-5.4c0.1-0.3,0-0.6-0.2-0.8c-0.1-0.2-0.3-0.3-0.5-0.3c0,0,0,0,0,0c-0.3-0.2-0.6-0.2-0.9-0.1c-0.3,0.1-0.5,0.3-0.7,0.6
		c-1.5,2.8-2.8,5.3-4.1,7.5c-1.2,2.2-2.4,4-3.5,5.2c-1.7,1.9-3.1,2.8-4.1,2.6c-1.1-0.2-2.1-1.7-3-4.4c-0.5-1.4-0.9-2.9-1.2-4.6
		c-0.3-1.7-0.7-3.4-1-5.2l-0.5-2.5c-0.1-0.6-0.3-1-0.5-1.4c-0.3-0.4-0.6-0.7-0.8-0.8c-0.3-0.1-0.5-0.1-0.7-0.1c-0.6,0-1,0.3-1.4,0.8
		c-0.3,0.5-0.7,1.1-1,1.7c-0.2,0.6-0.5,1.3-0.8,2.1c-0.3,0.8-0.5,1.7-0.8,2.6c-0.2,0.6-0.4,1.2-0.5,1.8c-0.1,0.6-0.3,1.2-0.4,1.8
		l-0.5-3.6c-0.3-1.9-0.7-3.4-1.1-4.4c-0.2-0.5-0.5-1.1-0.8-1.6c-0.3-0.5-0.8-0.9-1.4-1c-0.5-0.1-1,0-1.5,0.2c-0.3,0.2-0.6,0.6-1,1.1
		c-0.4,0.6-0.8,1.6-1.3,3.1c-0.3,0.8-0.5,1.7-0.8,2.7c-0.2,1-0.5,2.1-0.8,3.4c-0.1-1-0.2-2.1-0.3-3.3c-0.1-1.2-0.3-2.2-0.5-3.2
		c-0.1-0.3-0.2-0.6-0.5-0.8c-0.3-0.2-0.5-0.3-0.8-0.2c-0.3,0.1-0.6,0.3-0.8,0.5c-0.2,0.3-0.3,0.6-0.2,0.9c0.3,1.7,0.6,3.4,0.8,5.2
		s0.3,3.5,0.5,5c0.1,1.5,0.2,2.8,0.3,3.8s0.1,1.5,0.1,1.5c0,0.7,0.4,1,1.1,1.1c0.3,0,0.6,0,0.8-0.2c0.2-0.2,0.3-0.4,0.4-0.8
		c0.2-1,0.3-1.9,0.4-2.7c0.1-0.8,0.3-1.7,0.5-2.7c0.2-1,0.4-2.1,0.6-3.2c0.3-1.5,0.6-2.8,0.8-3.8c0.3-1,0.5-1.9,0.7-2.6
		c0.2-0.7,0.4-1.2,0.6-1.6c0.2-0.4,0.3-0.7,0.4-0.9c0.2,0.3,0.4,0.9,0.6,1.6c0.3,0.8,0.5,2,0.8,3.8c0.2,0.8,0.3,1.8,0.5,2.9
		c0.2,1.1,0.3,2.2,0.5,3.3c0.1,1.1,0.3,2.2,0.3,3.2c0.1,1,0.1,1.9,0.1,2.6c0.1,0.5,0.3,0.9,0.6,1c0.3,0.1,0.5,0.2,0.7,0.2
		c0.1,0,0.3-0.1,0.6-0.2c0.3-0.1,0.5-0.5,0.6-1c0-1.7,0.2-3.5,0.5-5.5c0.3-2,0.7-4,1.3-6c0.3-1.2,0.6-2.3,0.9-3.1
		c0.3-0.8,0.6-1.5,0.8-2.1c0.1,0.3,0.1,0.6,0.2,0.9c0,0.3,0.1,0.6,0.1,0.9c0.3,1.8,0.6,3.6,1,5.3c0.4,1.7,0.8,3.4,1.3,4.8
		c0.5,1.6,1.1,2.9,1.8,3.9c0.9,1.2,2,1.9,3.1,2.1c1.1,0,2.1-0.2,3-0.7c0.9-0.5,2-1.4,3.1-2.7c1.1-1.3,2.3-3.1,3.7-5.4
		c0.6-1,1.2-2.2,1.9-3.3c0,0.2,0,0.4,0,0.5c0,1.7,0.1,3.3,0.3,4.8c0.2,1.4,0.6,2.7,1,3.7c0.5,1,1,1.8,1.7,2.3c1,0.8,2.1,0.9,3.3,0.3
		c0.7-0.3,1.2-0.7,1.7-1.3c0.4-0.5,0.8-1.1,1.1-1.7c0.3-0.6,0.6-1.2,0.8-1.8c0.2-0.6,0.5-1.1,0.7-1.6c-0.1,1.5-0.1,2.9-0.2,4.1
		s-0.1,2.3-0.2,3.3c-1.9,1.5-3.5,2.9-5,4.2c-1.4,1.3-2.5,2.6-3.1,3.9c-0.6,1.2-0.8,2.2-0.7,3.2c0.1,1,0.6,1.8,1.5,2.3
		c0.5,0.2,1,0.3,1.5,0.3c0.8,0,1.7-0.3,2.5-0.8c1.4-0.8,2.6-2.2,3.8-4.2c0.4-0.7,0.7-1.6,1-2.8c0.3-1.2,0.5-2.7,0.7-4.5
		c0-0.1,0-0.2,0-0.3c0-0.1,0-0.2,0-0.3c1.6-1.3,3.3-2.6,5.2-4.1c1.8-1.4,3.5-2.9,5.2-4.5c1.7-1.5,3.2-3.1,4.6-4.7
		c1.4-1.6,2.5-3.3,3.3-4.9C361.7,34.3,361.7,34,361.6,33.7z M340.1,57.9c-0.2,0.7-0.4,1.2-0.6,1.5c-0.5,0.8-0.9,1.5-1.4,2
		c-0.5,0.5-0.9,0.9-1.4,1.2c-0.4,0.3-0.8,0.5-1.1,0.5c-0.3,0.1-0.6,0-0.7,0c-0.2-0.1-0.3-0.4-0.3-0.8s0.2-0.9,0.5-1.6
		c0.5-0.9,1.2-1.8,2.2-2.8c1-1,2.1-2,3.4-3.1C340.5,56.2,340.3,57.2,340.1,57.9z"/>
</g>
<g>
	<path d="M180.3,104.3c0,1.8-0.3,3.2-1,4.1c-0.7,0.9-1.7,1.7-3.1,2.6c-0.8,0.5-1.9,0.9-3.1,1.4c-1.2,0.4-2.6,0.8-4.1,1.2
		c-1.5,0.3-3,0.6-4.7,0.8c-1.6,0.2-3.2,0.3-4.8,0.3c-4.3,0-8.3-0.6-12-1.7s-7-2.9-9.7-5.2c-2.8-2.3-4.9-5.2-6.5-8.7
		c-1.6-3.5-2.4-7.5-2.4-12.2c0-4.8,0.9-9.1,2.6-12.7c1.7-3.6,4.1-6.6,6.9-9c2.9-2.4,6.2-4.2,9.8-5.4c3.7-1.2,7.5-1.8,11.4-1.8
		c5.6,0,10.1,0.9,13.4,2.7c3.3,1.8,4.9,4.2,4.9,7.1c0,1.5-0.4,2.9-1.2,4c-0.8,1.1-1.7,2-2.7,2.7c-1.5-0.9-3.3-1.8-5.5-2.6
		c-2.2-0.9-4.7-1.3-7.5-1.3c-5,0-8.9,1.4-11.8,4.3c-2.9,2.8-4.4,6.8-4.4,11.8c0,2.7,0.4,5.1,1.2,7.1c0.8,2,1.9,3.6,3.2,4.9
		c1.4,1.3,2.9,2.2,4.7,2.8s3.7,0.9,5.7,0.9c1.3,0,2.5-0.1,3.5-0.4c1-0.2,1.8-0.5,2.3-0.8v-8.3H156c-0.4-0.7-0.7-1.5-1-2.6
		c-0.3-1.1-0.5-2.2-0.5-3.4c0-2.1,0.5-3.7,1.5-4.6c1-0.9,2.2-1.4,3.8-1.4h15c1.8,0,3.1,0.5,4.1,1.5s1.5,2.4,1.5,4.1V104.3z"/>
	<path d="M234,91.5c0,3.7-0.6,6.9-1.7,9.8c-1.1,2.9-2.7,5.3-4.7,7.2c-2,2-4.5,3.4-7.3,4.4c-2.8,1-6,1.5-9.5,1.5
		c-3.5,0-6.7-0.5-9.5-1.6c-2.8-1.1-5.3-2.6-7.3-4.6c-2-2-3.6-4.4-4.7-7.2c-1.1-2.8-1.7-6-1.7-9.6c0-3.5,0.6-6.7,1.7-9.5
		c1.1-2.8,2.7-5.2,4.7-7.2c2-2,4.5-3.5,7.3-4.6c2.8-1.1,6-1.6,9.5-1.6c3.5,0,6.7,0.5,9.5,1.6c2.8,1.1,5.3,2.6,7.3,4.6
		c2,2,3.6,4.4,4.7,7.2C233.4,85,234,88.1,234,91.5z M202.9,91.5c0,3.6,0.7,6.4,2.1,8.3c1.4,1.9,3.3,2.9,5.8,2.9c2.5,0,4.4-1,5.7-2.9
		c1.3-2,2-4.7,2-8.3s-0.7-6.3-2-8.2c-1.4-1.9-3.3-2.9-5.8-2.9c-2.5,0-4.4,1-5.8,2.9C203.6,85.2,202.9,88,202.9,91.5z"/>
	<path d="M256.7,113c-0.7,0.1-1.6,0.3-2.9,0.5c-1.3,0.2-2.6,0.3-3.9,0.3c-1.3,0-2.5-0.1-3.5-0.3c-1-0.2-1.9-0.5-2.6-1.1
		s-1.3-1.3-1.6-2.2c-0.4-0.9-0.6-2.1-0.6-3.6V55.2c0.7-0.1,1.6-0.3,2.9-0.5c1.3-0.2,2.6-0.3,3.9-0.3s2.5,0.1,3.5,0.3
		c1,0.2,1.9,0.5,2.6,1.1c0.7,0.5,1.3,1.3,1.6,2.2c0.4,0.9,0.6,2.1,0.6,3.6V113z"/>
	<path d="M264.3,91.5c0-3.9,0.6-7.3,1.8-10.2c1.2-2.9,2.8-5.2,4.9-7.1c2.1-1.9,4.6-3.3,7.4-4.2c2.8-0.9,5.8-1.4,9.1-1.4
		c1.2,0,2.3,0.1,3.5,0.3c1.1,0.2,2,0.5,2.8,0.8V55.3c0.6-0.2,1.5-0.4,2.8-0.6c1.3-0.2,2.6-0.3,4-0.3c1.3,0,2.5,0.1,3.5,0.3
		c1,0.2,1.9,0.5,2.6,1.1c0.7,0.5,1.2,1.3,1.6,2.2c0.4,0.9,0.5,2.1,0.5,3.6v42.1c0,2.8-1.3,5-3.9,6.7c-1.7,1.1-3.9,2.1-6.7,3
		c-2.7,0.9-5.9,1.3-9.4,1.3c-3.8,0-7.3-0.5-10.3-1.6c-3-1.1-5.6-2.6-7.7-4.6c-2.1-2-3.7-4.4-4.8-7.2
		C264.9,98.2,264.3,95.1,264.3,91.5z M289.5,80.4c-3.2,0-5.6,0.9-7.4,2.8c-1.7,1.8-2.6,4.6-2.6,8.3c0,3.7,0.8,6.4,2.4,8.3
		c1.6,1.9,3.9,2.8,6.9,2.8c1.1,0,2-0.2,2.9-0.5c0.9-0.3,1.5-0.7,2-1.1V81.5C292.6,80.8,291.2,80.4,289.5,80.4z"/>
	<path d="M341,114.5c-3.5,0-6.7-0.5-9.7-1.5c-3-1-5.6-2.4-7.8-4.4c-2.2-2-4-4.4-5.2-7.4c-1.3-3-1.9-6.4-1.9-10.4
		c0-3.9,0.6-7.3,1.9-10.1c1.3-2.8,2.9-5.1,5-6.9c2.1-1.8,4.4-3.1,7.1-4c2.7-0.9,5.4-1.3,8.2-1.3c3.1,0,6,0.5,8.6,1.4
		c2.6,0.9,4.8,2.2,6.7,3.9c1.9,1.7,3.3,3.6,4.3,5.9c1,2.3,1.6,4.8,1.6,7.5c0,2-0.6,3.5-1.7,4.6c-1.1,1.1-2.7,1.7-4.7,2l-21.9,3.3
		c0.7,2,2,3.4,4,4.4s4.3,1.5,6.9,1.5c2.4,0,4.7-0.3,6.9-0.9c2.2-0.6,3.9-1.3,5.3-2.2c0.9,0.6,1.7,1.4,2.4,2.5c0.7,1.1,1,2.2,1,3.4
		c0,2.7-1.2,4.6-3.7,5.9c-1.9,1-4,1.7-6.4,2C345.3,114.3,343.1,114.5,341,114.5z M338.5,79.6c-1.4,0-2.6,0.2-3.7,0.7
		c-1,0.5-1.9,1.1-2.5,1.8c-0.7,0.7-1.1,1.6-1.5,2.5c-0.3,0.9-0.5,1.8-0.6,2.8l15.2-2.5c-0.2-1.2-0.8-2.4-2-3.5
		C342.3,80.2,340.7,79.6,338.5,79.6z"/>
	<path d="M394.2,85.8c0-1.8-0.5-3.2-1.6-4c-1-0.9-2.4-1.3-4.2-1.3c-1.2,0-2.4,0.1-3.5,0.4c-1.2,0.3-2.1,0.7-3,1.3V113
		c-0.6,0.2-1.5,0.4-2.8,0.5c-1.3,0.2-2.6,0.3-3.9,0.3c-1.3,0-2.5-0.1-3.5-0.3c-1-0.2-1.9-0.5-2.6-1.1c-0.7-0.5-1.3-1.3-1.6-2.2
		c-0.4-0.9-0.6-2.1-0.6-3.6V80.1c0-1.6,0.3-2.9,1-3.9c0.7-1,1.6-1.9,2.8-2.8c2-1.4,4.5-2.6,7.6-3.5c3-0.9,6.4-1.3,10.2-1.3
		c6.7,0,11.8,1.5,15.4,4.4c3.6,2.9,5.4,7,5.4,12.2V113c-0.6,0.2-1.5,0.4-2.8,0.5c-1.3,0.2-2.6,0.3-3.9,0.3c-1.3,0-2.5-0.1-3.5-0.3
		c-1-0.2-1.9-0.5-2.6-1.1c-0.7-0.5-1.3-1.3-1.6-2.2c-0.4-0.9-0.6-2.1-0.6-3.6V85.8z"/>
</g>
<g>
	<path d="M417.4,145.7c2.2-5.1,3.8-10.4,4.6-15.9c-1.3,1.7-2.5,3.4-3.8,5c3.5-8.4,6.2-17.9,8.1-26.9c-1.6,1.9-3.1,3.9-4.5,6
		c1.1-1.7,1.7-5.7,2-7.8c0.5-3.5,0.4-7.3,0.2-10.8c-1.3,7.3-5.2,13.5-9.2,19.6c-4.3,6.5-8.7,13-13.3,19.3
		c-13.5,18.5-32.2,27.1-54.9,27.4c-7.5,0.1-17.5,1.2-24.6-1.7c-3.1-1.3-6-3.5-9.2-4.9c-7.1-3.1-14.7-5.2-22.4-6.4
		c-11.9-1.9-23.7-4.9-35.6-5.5c-14.9-0.7-30,0.6-45,1.2c-9.6,0.3-19.7,2.2-28.8-1.2c-19.7-7.5-39-15.9-51.1-34.9
		c-3.2-5.1-7.8-9.4-11.8-14c-3-3.5-5.9-7.1-9-10.8c-0.9,1.8-2.2,4-3.2,6.3c-4,9.4-10.7,16.8-17.4,24.3c-2,2.2-4.4,2.6-7.1,1.8
		c-5.3-1.6-9.1-4.9-10.2-10.4c-1.4-7.6-2.3-15.2-2.6-22.9c1.3,6.6,2.6,13.1,3.9,19.7c1,4.7,3.5,8.5,8,10.3c1.6,0.6,4.5,0.6,5.5-0.4
		c8.2-8.4,15.5-17.3,20.4-28.3c5.7-12.9-1.5-20.6-12.6-24.9c-4.2-1.6-8.9-1.8-13.3-2.7c-1.1-0.2-2.2-0.5-3.3-0.7c-3.2,0-6.4,0-9.6,0
		c-6.7,2.5-13.3,5-20,7.5c-3.6,1.3-5.9,3.8-6.6,7.5c-1.5,7.9-6.4,11.7-14.3,12.7c-5.5,0.7-10.9,2.1-16.3,3.4
		c-1.7,0.4-3.2,1.5-4.8,2.3c0,1.4,0,2.7,0,4.1c1.7,4.4,3.5,8.8,5,13.3c4.7,13.9,19.1,23.3,33.8,21.8c3-0.3,6.1-0.9,9.1-1.5
		c2.8-0.5,5.6-1,8.4-0.4c0.8,0.2,6.9,2.3,6,3.6c-0.1,0.2-0.4,0.3-0.7,0.2c-0.8-0.1-1.5-0.5-2.2-0.9c-1.9-1-4.1-1.5-6.3-1.4
		c-0.2,0-0.4,0-0.5,0.1c-0.5,0.2-0.4,0.9-0.3,1.4c0.8,3,1.3,6,1.6,9.1c0.4,3.5,0.5,7.1,0.4,10.6c-0.2,6.7-4.1,11.4-7.4,16.7
		c-3.4,5.5-5.7,11.7-6.6,18.2c0.9-1.9,2.5-3.5,4.4-4.5c-0.7,8.6,0,17.3,2,25.7c0.8-1.3,1.5-2.6,2.3-4c0.7,7.4,2.6,14.7,5.6,21.4
		c0.5-1.7,1-3.4,1.4-5.1c3.2,4,6.4,7.6,10,11.3c6.3,5.7,11.9,12.1,18.1,18.6c-1.5-6.2-2.9-12.1-4.4-18c0.4-0.1,0.8-0.2,1.2-0.3
		c1.9,7.4,4.3,14.8,5.5,22.3c2.7,17.2,0.6,34.4,2.6,51.7c1,8.8,1.6,17,1.2,25.8c0,0.9-0.2,1.8-0.4,2.7c-0.9,5.3-1.1,5.5-6.4,5.7
		c-4.4,0.2-9.6,2.2-8.4,7.7c0.5,2.5,2.5,4.6,4.7,5.8c2.3,1.2,4.8,1.7,7.4,1.9c4.1,0.3,8.2,0.1,12.2-0.8c1.1-0.2,2.3-0.5,3.2-1.2
		c0.8-0.6,1.3-1.3,1.8-2.1c3.3-5,5.6-10.7,6.6-16.6c0.5-2.9,0.5-5.8,0.5-8.7c0-1.3,0-2.6,0.2-3.9c0.1-0.8,1.3-3.7,1-4.3
		c0.6,1.1,1.1,2.3,1.7,3.4c0.4-6.7,1.7-13.1,2.7-19.7c0.5,1.8,1,3.7,1.5,5.5c0.5-8.6,1-17.2,1.5-25.8c0.9,2.5,1.9,5,2.8,7.5
		c-0.2-10.4,0.8-20.8,3-31c1-4.9,2.5-9.5,4-14.2c0.7-2.2,1.1-4.5,1.8-6.7c0.6-2,2-4.1,2.4-6.1c-0.8,3.9-1.7,7.9-2.6,11.8
		c-0.9,4.1-3.3,9.5-1.6,13.7c2,4.9,8.7,9.8,12.3,13.9c0.4-2.6,0.4-5.3-0.1-7.9c0.2,0.9,6.1,1.9,7,2.2c3.9,1.3,7.9,2.2,11.8,3.7
		c-0.3-2.5-1.8-4.8-3.9-6.1c6.3,3.9,14.1,3,20.9,1.5c-2.5-1.1-4.8-2.6-6.8-4.3c1.6,1.4,8.3,1,10.4,1.3c3.2,0.4,6.4,0.9,9.6,1.5
		c-0.6-2.4-2.6-4.2-4.5-5.8c1.7,1.4,7.8,0.8,9.9,0.8c3.2,0,6.2-0.6,9.5-0.5c-1.5,0-3-0.5-4.2-1.4c1.8,1.3,9.1-2.5,10.8-3.4
		c2.8-1.4,4.9-3.8,8-4.9c-0.3,2-0.7,4.1-1,6.1c2.2-3,3.9-6.5,6.1-9.5c2.2-3,5.2-5.8,8.8-6.6c-0.6,0.9-0.9,1.9-0.9,2.9
		c2.7-2.5,5.2-5.1,7.5-7.9c1.4-1.8,4.9-4.7,5.2-7c-0.3,2.2-0.6,4.4-0.8,6.5c-1.3,12.7,0.8,24.9,5.7,36.7c2.9,7.1,8,12.3,14.2,16.6
		c4.6,3.2,9.1,6.7,13.6,10.1c0.1-0.5,0.2-1.4,0.3-2.9c4.8,5.9,14.5,6,15.2,15.8c0.3-0.2,0.7-0.4,1-0.6c0.7-2.8,1.5-5.6,2.2-8.4
		c0.2,0,0.5-0.2,0.6-0.1c6.3,6.1,13.3,11.6,18.5,18.5c4.3,5.7,4.8,13.3,4.5,20.6c0,0.9-1.8,2.3-2.9,2.5c-5.5,0.9-8.5,4.4-10.5,9.2
		c-1.1,2.6-0.2,4.5,2.5,5.2c2.1,0.5,4.2,0.8,6.4,0.9c4,0.1,8,0,11.9-0.1c6.3-0.1,13.6-7,13.9-13.4c0.5-11.3,0-22.5-3.2-33.5
		c-1.3-4.3-1.7-8.9-2-13.4c-0.2-3.3-1.6-4.9-4.6-5.1c-3.1-0.2-4.3-1.7-3.9-4.6c0.6-4.7,1.3-9.3,2-14c3.3,1.8,5.7,3.1,8.1,4.5
		c0.2-0.3,0.4-0.6,0.6-0.8c-3-6.2-4.7-12.6-3.1-19.8c1.1,1.3,2,2.3,2.9,3.3c-1.3-10.8,2.9-20.5,5.6-30.4c3.1-11.5,2.2-22.5-3-33.2
		c-1-2-1.9-4.2-2.4-6.4c-0.3-1.1,0.1-3.3,0.8-3.6c3.4-1.3,5.9,3.5,8.8,4.6c7.2,2.8,15.2,3.9,22.9,3.1c-2.3-1.2-4.5-2.3-6.8-3.5
		c10.3,0.7,20.7-2.6,28.8-9c-2.9,1.4-6.1,2-9.3,1.8c9.8-4.3,20.2-9.1,25.9-18.2c-2.7,1-5.5,1.9-8.2,2.9c5.9-6.5,10.8-14,14.3-22.1
		C420.8,142.9,419.1,144.3,417.4,145.7z M221.5,194.1c-2.4,3.6-5.6,7-10.1,10.6c-2.8,2.3-6,4.5-9.7,6.7c-0.4,0.2-0.8,0.3-1.3,0.3
		c-0.5,0-0.9-0.1-1.3-0.3c-6.4-3.9-11.3-7.7-15.3-11.8c-3.8-3.9-6.2-7.6-7.7-11.6c-1.7-4.6-1.7-8.8,0-12.8c2.3-5.6,8.3-9.3,14.3-8.9
		c3.7,0.3,6.6,1.5,8.8,3.7c0.4,0.4,0.8,0.9,1.1,1.3c2-2.7,4.8-4.3,8.4-4.8c5.8-0.8,10.8,1.2,14.3,5.9c2,2.6,3,5.9,2.8,9.5
		C225.7,185.9,224.3,189.8,221.5,194.1z"/>
	<path d="M209.2,169.8c-3,0.4-5.1,1.8-6.6,4.1c-0.2,0.3-0.3,0.5-0.5,0.8l-1.7,2.9l-1.7-2.6c-0.1-0.1-0.1-0.2-0.2-0.3
		c-0.2-0.3-0.4-0.6-0.6-0.9c-0.4-0.6-0.8-1.1-1.2-1.5c-1.6-1.6-3.7-2.5-6.6-2.7c-0.2,0-0.5,0-0.7,0c-4.4,0-8.6,2.8-10.3,6.9
		c-1.3,3.2-1.3,6.6,0.1,10.3c1.3,3.5,3.5,6.9,6.9,10.4c3.7,3.9,8.2,7.4,14.2,11c3.4-2.1,6.3-4.1,8.9-6.2c4.2-3.4,7.2-6.5,9.4-9.9
		c2.5-3.7,3.7-7,3.8-10.4c0.1-2.9-0.6-5.3-2.2-7.4C217.5,170.6,213.9,169.1,209.2,169.8z"/>
	<path class="st0" d="M208.7,166.5c-3.6,0.5-6.4,2.1-8.4,4.8c-0.3-0.5-0.7-0.9-1.1-1.3c-2.2-2.2-5.1-3.4-8.8-3.7
		c-6-0.4-12,3.3-14.3,8.9c-1.6,4-1.6,8.2,0,12.8c1.4,4,3.9,7.7,7.7,11.6c4,4.2,8.9,7.9,15.3,11.8c0.4,0.2,0.8,0.3,1.3,0.3
		c0.5,0,0.9-0.1,1.3-0.3c3.7-2.2,6.9-4.5,9.7-6.7c4.4-3.6,7.7-7,10.1-10.6c2.9-4.2,4.2-8.1,4.4-12.2c0.1-3.7-0.8-6.9-2.8-9.5
		C219.5,167.7,214.6,165.6,208.7,166.5z M224.2,181.8c-0.1,4.2-1.8,7.9-4.1,11.3c-2.7,4-6.1,7.2-9.7,10.2c-3,2.4-6.2,4.6-9.5,6.6
		c-0.2,0.1-0.6,0.1-0.8,0c-5.4-3.3-10.6-7-15-11.6c-3.1-3.2-5.8-6.8-7.3-11c-1.4-3.8-1.7-7.7-0.1-11.6c2-4.9,7.4-8.2,12.7-7.9
		c2.9,0.2,5.6,1,7.7,3.2c0.7,0.8,1.3,1.7,1.9,2.6c0.1,0.2,0.2,0.4,0.4,0.7c0.3-0.6,0.6-1,0.8-1.4c1.8-2.9,4.5-4.4,7.7-4.9
		c5.2-0.8,9.5,1,12.7,5.2C223.6,175.8,224.3,178.7,224.2,181.8z"/>
	<path d="M222.5,181.8c-0.1,3.4-1.3,6.7-3.8,10.4c-2.2,3.3-5.2,6.5-9.4,9.9c-2.6,2.1-5.5,4.1-8.9,6.2c-6-3.6-10.5-7.2-14.2-11
		c-3.4-3.6-5.7-6.9-6.9-10.4c-1.4-3.8-1.4-7.2-0.1-10.3c1.7-4.1,5.9-6.9,10.3-6.9c0.2,0,0.5,0,0.7,0c2.9,0.2,5,1.1,6.6,2.7
		c0.4,0.4,0.8,1,1.2,1.5c0.2,0.3,0.4,0.6,0.6,0.9c0.1,0.1,0.1,0.2,0.2,0.3l1.7,2.6l1.7-2.9c0.2-0.3,0.3-0.6,0.5-0.8
		c1.5-2.3,3.6-3.7,6.6-4.1c4.7-0.7,8.3,0.8,11.2,4.6C221.9,176.4,222.6,178.8,222.5,181.8z"/>
</g>
</svg>
